<ttFont>
<head>
    <!-- Most of this table will be recalculated by the compiler -->
    <tableVersion value="1.0"/>
    <fontRevision value="1.437"/>
    <checkSumAdjustment value="0xbf3fc326"/>
    <magicNumber value="0x5f0f3cf5"/>
    <flags value="00000000 00001101"/>
    <unitsPerEm value="1000"/>
    <created value="Fri Jul 30 13:54:25 2021"/>
    <modified value="Mon Jun 15 12:00:00 2026"/>
    <xMin value="-639"/>
    <yMin value="-400"/>
    <xMax value="688"/>
    <yMax value="1120"/>
    <macStyle value="00000000 00000001"/>
    <lowestRecPPEM value="6"/>
    <fontDirectionHint value="2"/>
    <indexToLocFormat value="0"/>
    <glyphDataFormat value="0"/>
  </head>
    <TTGlyph name=".notdef" xMin="87" yMin="0" xMax="513" yMax="730">
      <contour>
        <pt x="87" y="0" on="1"/>
        <pt x="87" y="730" on="1"/>
        <pt x="513" y="730" on="1"/>
        <pt x="513" y="0" on="1"/>
      </contour>
      <contour>
        <pt x="138" y="109" on="1"/>
        <pt x="442" y="680" on="1"/>
        <pt x="138" y="680" on="1"/>
      </contour>
      <contour>
        <pt x="158" y="50" on="1"/>
        <pt x="462" y="50" on="1"/>
        <pt x="462" y="621" on="1"/>
      </contour>
    </TTGlyph>
    <TTGlyph name="A" xMin="21" yMin="0" xMax="579" yMax="739">
      <contour>
        <pt x="21" y="0" on="1"/>
        <pt x="228" y="739" on="1"/>
        <pt x="372" y="739" on="1"/>
        <pt x="579" y="0" on="1"/>
        <pt x="437" y="0" on="1"/>
        <pt x="405" y="132" on="1"/>
        <pt x="195" y="132" on="1"/>
        <pt x="163" y="0" on="1"/>
      </contour>
      <contour>
        <pt x="230" y="273" on="1"/>
        <pt x="370" y="273" on="1"/>
        <pt x="299" y="555" on="1"/>
      </contour>
    </TTGlyph>
    <TTGlyph name="AE" xMin="21" yMin="0" xMax="579" yMax="738">
      <contour>
        <pt x="21" y="0" on="1"/>
        <pt x="290" y="738" on="1"/>
        <pt x="579" y="738" on="1"/>
        <pt x="579" y="584" on="1"/>
        <pt x="379" y="584" on="1"/>
        <pt x="379" y="456" on="1"/>
        <pt x="502" y="456" on="1"/>
        <pt x="502" y="305" on="1"/>
        <pt x="379" y="305" on="1"/>
        <pt x="379" y="154" on="1"/>
        <pt x="579" y="154" on="1"/>
        <pt x="579" y="0" on="1"/>
        <pt x="290" y="0" on="1"/>
        <pt x="290" y="132" on="1"/>
        <pt x="164" y="132" on="1"/>
        <pt x="118" y="0" on="1"/>
      </contour>
      <contour>
        <pt x="211" y="273" on="1"/>
        <pt x="290" y="273" on="1"/>
        <pt x="290" y="501" on="1"/>
      </contour>
    </TTGlyph>
    <TTGlyph name="AEacute" xMin="21" yMin="0" xMax="579" yMax="950">
      <component glyphName="AE" x="0" y="0" flags="0x204"/>
      <component glyphName="acutecomb.case" x="610" y="0" flags="0x4"/>
    </TTGlyph>
    <TTGlyph name="Aacute" xMin="21" yMin="0" xMax="579" yMax="967">
      <contour>
        <pt x="21" y="0" on="1"/>
        <pt x="228" y="730" on="1"/>
        <pt x="372" y="730" on="1"/>
        <pt x="579" y="0" on="1"/>
        <pt x="437" y="0" on="1"/>
        <pt x="405" y="130" on="1"/>
        <pt x="195" y="130" on="1"/>
        <pt x="163" y="0" on="1"/>
      </contour>
      <contour>
        <pt x="230" y="270" on="1"/>
        <pt x="370" y="270" on="1"/>
        <pt x="299" y="548" on="1"/>
      </contour>
      <contour>
        <pt x="243" y="799" on="1"/>
        <pt x="267" y="836" on="0"/>
        <pt x="316" y="908" on="0"/>
        <pt x="341" y="945" on="1"/>
        <pt x="356" y="967" on="0"/>
        <pt x="376" y="967" on="1"/>
        <pt x="395" y="967" on="0"/>
        <pt x="422" y="931" on="0"/>
        <pt x="422" y="906" on="1"/>
        <pt x="422" y="892" on="0"/>
        <pt x="413" y="869" on="0"/>
        <pt x="406" y="859" on="1"/>
        <pt x="390" y="845" on="0"/>
        <pt x="360" y="814" on="0"/>
        <pt x="345" y="799" on="1"/>
      </contour>
    </TTGlyph>
    <TTGlyph name="Abreve" xMin="21" yMin="0" xMax="579" yMax="930">
      <contour>
        <pt x="21" y="0" on="1"/>
        <pt x="228" y="730" on="1"/>
        <pt x="372" y="730" on="1"/>
        <pt x="579" y="0" on="1"/>
        <pt x="437" y="0" on="1"/>
        <pt x="405" y="130" on="1"/>
        <pt x="195" y="130" on="1"/>
        <pt x="163" y="0" on="1"/>
      </contour>
      <contour>
        <pt x="230" y="270" on="1"/>
        <pt x="370" y="270" on="1"/>
        <pt x="299" y="548" on="1"/>
      </contour>
      <contour>
        <pt x="299" y="799" on="1"/>
        <pt x="255" y="799" on="0"/>
        <pt x="190" y="874" on="0"/>
        <pt x="181" y="930" on="1"/>
        <pt x="251" y="930" on="1"/>
        <pt x="255" y="912" on="0"/>
        <pt x="281" y="883" on="0"/>
        <pt x="299" y="883" on="1"/>
        <pt x="318" y="883" on="0"/>
        <pt x="345" y="912" on="0"/>
        <pt x="348" y="930" on="1"/>
        <pt x="418" y="930" on="1"/>
        <pt x="410" y="874" on="0"/>
        <pt x="344" y="799" on="0"/>
      </contour>
    </TTGlyph>
    <TTGlyph name="Acircumflex" xMin="21" yMin="0" xMax="579" yMax="965">
      <contour>
        <pt x="21" y="0" on="1"/>
        <pt x="228" y="730" on="1"/>
        <pt x="372" y="730" on="1"/>
        <pt x="579" y="0" on="1"/>
        <pt x="437" y="0" on="1"/>
        <pt x="405" y="130" on="1"/>
        <pt x="195" y="130" on="1"/>
        <pt x="163" y="0" on="1"/>
      </contour>
      <contour>
        <pt x="230" y="270" on="1"/>
        <pt x="370" y="270" on="1"/>
        <pt x="299" y="548" on="1"/>
      </contour>
      <contour>
        <pt x="139" y="799" on="1"/>
        <pt x="259" y="944" on="1"/>
        <pt x="267" y="953" on="0"/>
        <pt x="288" y="965" on="0"/>
        <pt x="299" y="965" on="1"/>
        <pt x="322" y="965" on="0"/>
        <pt x="340" y="944" on="1"/>
        <pt x="460" y="799" on="1"/>
        <pt x="355" y="799" on="1"/>
        <pt x="299" y="866" on="1"/>
        <pt x="244" y="799" on="1"/>
      </contour>
    </TTGlyph>
    <TTGlyph name="Adieresis" xMin="21" yMin="0" xMax="579" yMax="947">
      <contour>
        <pt x="21" y="0" on="1"/>
        <pt x="228" y="730" on="1"/>
        <pt x="372" y="730" on="1"/>
        <pt x="579" y="0" on="1"/>
        <pt x="437" y="0" on="1"/>
        <pt x="405" y="130" on="1"/>
        <pt x="195" y="130" on="1"/>
        <pt x="163" y="0" on="1"/>
      </contour>
      <contour>
        <pt x="230" y="270" on="1"/>
        <pt x="370" y="270" on="1"/>
        <pt x="299" y="548" on="1"/>
      </contour>
      <contour>
        <pt x="221" y="793" on="1"/>
        <pt x="197" y="793" on="0"/>
        <pt x="163" y="838" on="0"/>
        <pt x="163" y="870" on="1"/>
        <pt x="163" y="902" on="0"/>
        <pt x="197" y="947" on="0"/>
        <pt x="221" y="947" on="1"/>
        <pt x="245" y="947" on="0"/>
        <pt x="279" y="902" on="0"/>
        <pt x="279" y="870" on="1"/>
        <pt x="279" y="838" on="0"/>
        <pt x="245" y="793" on="0"/>
      </contour>
      <contour>
        <pt x="380" y="793" on="1"/>
        <pt x="356" y="793" on="0"/>
        <pt x="322" y="838" on="0"/>
        <pt x="322" y="870" on="1"/>
        <pt x="322" y="902" on="0"/>
        <pt x="356" y="947" on="0"/>
        <pt x="380" y="947" on="1"/>
        <pt x="404" y="947" on="0"/>
        <pt x="437" y="902" on="0"/>
        <pt x="437" y="870" on="1"/>
        <pt x="437" y="838" on="0"/>
        <pt x="404" y="793" on="0"/>
      </contour>
    </TTGlyph>
    <TTGlyph name="Agrave" xMin="21" yMin="0" xMax="579" yMax="967">
      <contour>
        <pt x="21" y="0" on="1"/>
        <pt x="228" y="730" on="1"/>
        <pt x="372" y="730" on="1"/>
        <pt x="579" y="0" on="1"/>
        <pt x="437" y="0" on="1"/>
        <pt x="405" y="130" on="1"/>
        <pt x="195" y="130" on="1"/>
        <pt x="163" y="0" on="1"/>
      </contour>
      <contour>
        <pt x="230" y="270" on="1"/>
        <pt x="370" y="270" on="1"/>
        <pt x="299" y="548" on="1"/>
      </contour>
      <contour>
        <pt x="256" y="799" on="1"/>
        <pt x="241" y="814" on="0"/>
        <pt x="212" y="845" on="0"/>
        <pt x="196" y="859" on="1"/>
        <pt x="188" y="870" on="0"/>
        <pt x="179" y="891" on="0"/>
        <pt x="179" y="906" on="1"/>
        <pt x="179" y="930" on="0"/>
        <pt x="207" y="967" on="0"/>
        <pt x="225" y="967" on="1"/>
        <pt x="244" y="967" on="0"/>
        <pt x="256" y="951" on="1"/>
        <pt x="359" y="799" on="1"/>
      </contour>
    </TTGlyph>
    <TTGlyph name="Alpha" xMin="21" yMin="0" xMax="579" yMax="739">
      <component glyphName="A" x="0" y="0" flags="0x204"/>
    </TTGlyph>
    <TTGlyph name="Alphatonos" xMin="-18" yMin="0" xMax="579" yMax="739">
      <component glyphName="A" x="0" y="0" flags="0x204"/>
      <component glyphName="tonos.case" x="-230" y="0" flags="0x4"/>
    </TTGlyph>
    <TTGlyph name="Amacron" xMin="21" yMin="0" xMax="579" yMax="923">
      <contour>
        <pt x="21" y="0" on="1"/>
        <pt x="228" y="730" on="1"/>
        <pt x="372" y="730" on="1"/>
        <pt x="579" y="0" on="1"/>
        <pt x="437" y="0" on="1"/>
        <pt x="405" y="130" on="1"/>
        <pt x="195" y="130" on="1"/>
        <pt x="163" y="0" on="1"/>
      </contour>
      <contour>
        <pt x="230" y="270" on="1"/>
        <pt x="370" y="270" on="1"/>
        <pt x="299" y="548" on="1"/>
      </contour>
      <contour>
        <pt x="177" y="816" on="1"/>
        <pt x="177" y="923" on="1"/>
        <pt x="422" y="923" on="1"/>
        <pt x="422" y="816" on="1"/>
      </contour>
    </TTGlyph>
    <TTGlyph name="Aogonek" xMin="21" yMin="-192" xMax="579" yMax="739">
      <contour>
        <pt x="21" y="0" on="1"/>
        <pt x="228" y="739" on="1"/>
        <pt x="372" y="739" on="1"/>
        <pt x="579" y="0" on="1"/>
        <pt x="437" y="0" on="1"/>
        <pt x="405" y="132" on="1"/>
        <pt x="195" y="132" on="1"/>
        <pt x="163" y="0" on="1"/>
      </contour>
      <contour>
        <pt x="230" y="273" on="1"/>
        <pt x="370" y="273" on="1"/>
        <pt x="299" y="555" on="1"/>
      </contour>
      <contour>
        <pt x="488" y="-192" on="1"/>
        <pt x="445" y="-192" on="0"/>
        <pt x="394" y="-160" on="0"/>
        <pt x="372" y="-115" on="0"/>
        <pt x="372" y="-94" on="1"/>
        <pt x="372" y="-56" on="0"/>
        <pt x="414" y="-10" on="0"/>
        <pt x="437" y="0" on="1"/>
        <pt x="554" y="0" on="1"/>
        <pt x="538" y="-2" on="0"/>
        <pt x="501" y="-24" on="0"/>
        <pt x="476" y="-57" on="0"/>
        <pt x="476" y="-75" on="1"/>
        <pt x="476" y="-95" on="0"/>
        <pt x="500" y="-108" on="0"/>
        <pt x="513" y="-108" on="1"/>
        <pt x="526" y="-108" on="0"/>
        <pt x="549" y="-99" on="0"/>
        <pt x="554" y="-98" on="1"/>
        <pt x="554" y="-181" on="1"/>
        <pt x="544" y="-186" on="0"/>
        <pt x="504" y="-192" on="0"/>
      </contour>
    </TTGlyph>
    <TTGlyph name="Aring" xMin="21" yMin="0" xMax="579" yMax="941">
      <contour>
        <pt x="21" y="0" on="1"/>
        <pt x="228" y="730" on="1"/>
        <pt x="372" y="730" on="1"/>
        <pt x="579" y="0" on="1"/>
        <pt x="437" y="0" on="1"/>
        <pt x="405" y="130" on="1"/>
        <pt x="195" y="130" on="1"/>
        <pt x="163" y="0" on="1"/>
      </contour>
      <contour>
        <pt x="230" y="270" on="1"/>
        <pt x="370" y="270" on="1"/>
        <pt x="299" y="548" on="1"/>
      </contour>
      <contour>
        <pt x="299" y="651" on="1"/>
        <pt x="270" y="651" on="0"/>
        <pt x="221" y="691" on="0"/>
        <pt x="191" y="757" on="0"/>
        <pt x="191" y="797" on="1"/>
        <pt x="191" y="837" on="0"/>
        <pt x="221" y="902" on="0"/>
        <pt x="270" y="941" on="0"/>
        <pt x="299" y="941" on="1"/>
        <pt x="329" y="941" on="0"/>
        <pt x="379" y="902" on="0"/>
        <pt x="408" y="837" on="0"/>
        <pt x="408" y="797" on="1"/>
        <pt x="408" y="757" on="0"/>
        <pt x="379" y="691" on="0"/>
        <pt x="329" y="651" on="0"/>
      </contour>
      <contour>
        <pt x="299" y="745" on="1"/>
        <pt x="316" y="745" on="0"/>
        <pt x="337" y="776" on="0"/>
        <pt x="337" y="797" on="1"/>
        <pt x="337" y="819" on="0"/>
        <pt x="316" y="848" on="0"/>
        <pt x="299" y="848" on="1"/>
        <pt x="283" y="848" on="0"/>
        <pt x="260" y="819" on="0"/>
        <pt x="260" y="797" on="1"/>
        <pt x="260" y="776" on="0"/>
        <pt x="283" y="745" on="0"/>
      </contour>
    </TTGlyph>
    <TTGlyph name="Atilde" xMin="21" yMin="0" xMax="579" yMax="928">
      <contour>
        <pt x="21" y="0" on="1"/>
        <pt x="228" y="730" on="1"/>
        <pt x="372" y="730" on="1"/>
        <pt x="579" y="0" on="1"/>
        <pt x="437" y="0" on="1"/>
        <pt x="405" y="130" on="1"/>
        <pt x="195" y="130" on="1"/>
        <pt x="163" y="0" on="1"/>
      </contour>
      <contour>
        <pt x="230" y="270" on="1"/>
        <pt x="370" y="270" on="1"/>
        <pt x="299" y="548" on="1"/>
      </contour>
      <contour>
        <pt x="360" y="797" on="1"/>
        <pt x="328" y="797" on="0"/>
        <pt x="302" y="814" on="1"/>
        <pt x="286" y="825" on="0"/>
        <pt x="268" y="838" on="0"/>
        <pt x="256" y="838" on="1"/>
        <pt x="244" y="838" on="0"/>
        <pt x="224" y="820" on="0"/>
        <pt x="221" y="802" on="1"/>
        <pt x="148" y="802" on="1"/>
        <pt x="155" y="862" on="0"/>
        <pt x="207" y="928" on="0"/>
        <pt x="251" y="928" on="1"/>
        <pt x="277" y="928" on="0"/>
        <pt x="309" y="906" on="0"/>
        <pt x="336" y="883" on="0"/>
        <pt x="352" y="883" on="1"/>
        <pt x="363" y="883" on="0"/>
        <pt x="379" y="895" on="0"/>
        <pt x="387" y="906" on="1"/>
        <pt x="403" y="928" on="0"/>
        <pt x="418" y="928" on="1"/>
        <pt x="433" y="928" on="0"/>
        <pt x="452" y="903" on="0"/>
        <pt x="452" y="884" on="1"/>
        <pt x="452" y="863" on="0"/>
        <pt x="425" y="823" on="0"/>
        <pt x="383" y="797" on="0"/>
      </contour>
    </TTGlyph>
    <TTGlyph name="B" xMin="21" yMin="0" xMax="579" yMax="739">
      <contour>
        <pt x="21" y="0" on="1"/>
        <pt x="21" y="739" on="1"/>
        <pt x="305" y="739" on="1"/>
        <pt x="376" y="739" on="0"/>
        <pt x="487" y="706" on="0"/>
        <pt x="553" y="623" on="0"/>
        <pt x="553" y="546" on="1"/>
        <pt x="553" y="496" on="0"/>
        <pt x="512" y="418" on="0"/>
        <pt x="476" y="393" on="1"/>
        <pt x="522" y="374" on="0"/>
        <pt x="579" y="296" on="0"/>
        <pt x="579" y="228" on="1"/>
        <pt x="579" y="145" on="0"/>
        <pt x="513" y="46" on="0"/>
        <pt x="395" y="0" on="0"/>
        <pt x="316" y="0" on="1"/>
      </contour>
      <contour>
        <pt x="175" y="446" on="1"/>
        <pt x="310" y="446" on="1"/>
        <pt x="349" y="446" on="0"/>
        <pt x="393" y="488" on="0"/>
        <pt x="393" y="522" on="1"/>
        <pt x="393" y="558" on="0"/>
        <pt x="349" y="596" on="0"/>
        <pt x="310" y="596" on="1"/>
        <pt x="175" y="596" on="1"/>
      </contour>
      <contour>
        <pt x="175" y="145" on="1"/>
        <pt x="317" y="145" on="1"/>
        <pt x="367" y="145" on="0"/>
        <pt x="416" y="190" on="0"/>
        <pt x="416" y="229" on="1"/>
        <pt x="416" y="267" on="0"/>
        <pt x="367" y="312" on="0"/>
        <pt x="317" y="312" on="1"/>
        <pt x="175" y="312" on="1"/>
      </contour>
    </TTGlyph>
    <TTGlyph name="Beta" xMin="21" yMin="0" xMax="579" yMax="739">
      <component glyphName="B" x="0" y="0" flags="0x204"/>
    </TTGlyph>
    <TTGlyph name="C" xMin="21" yMin="-13" xMax="579" yMax="752">
      <contour>
        <pt x="324" y="-13" on="1"/>
        <pt x="229" y="-13" on="0"/>
        <pt x="94" y="80" on="0"/>
        <pt x="21" y="252" on="0"/>
        <pt x="21" y="369" on="1"/>
        <pt x="21" y="487" on="0"/>
        <pt x="96" y="658" on="0"/>
        <pt x="233" y="752" on="0"/>
        <pt x="327" y="752" on="1"/>
        <pt x="413" y="752" on="0"/>
        <pt x="540" y="659" on="0"/>
        <pt x="576" y="581" on="1"/>
        <pt x="449" y="524" on="1"/>
        <pt x="429" y="570" on="0"/>
        <pt x="359" y="608" on="0"/>
        <pt x="323" y="608" on="1"/>
        <pt x="281" y="608" on="0"/>
        <pt x="213" y="552" on="0"/>
        <pt x="172" y="444" on="0"/>
        <pt x="172" y="369" on="1"/>
        <pt x="172" y="253" on="0"/>
        <pt x="260" y="131" on="0"/>
        <pt x="324" y="131" on="1"/>
        <pt x="359" y="131" on="0"/>
        <pt x="432" y="166" on="0"/>
        <pt x="453" y="214" on="1"/>
        <pt x="579" y="157" on="1"/>
        <pt x="542" y="79" on="0"/>
        <pt x="409" y="-13" on="0"/>
      </contour>
    </TTGlyph>
    <TTGlyph name="Cacute" xMin="21" yMin="-13" xMax="579" yMax="967">
      <contour>
        <pt x="324" y="-13" on="1"/>
        <pt x="229" y="-13" on="0"/>
        <pt x="94" y="79" on="0"/>
        <pt x="21" y="249" on="0"/>
        <pt x="21" y="365" on="1"/>
        <pt x="21" y="481" on="0"/>
        <pt x="96" y="650" on="0"/>
        <pt x="233" y="743" on="0"/>
        <pt x="327" y="743" on="1"/>
        <pt x="413" y="743" on="0"/>
        <pt x="540" y="651" on="0"/>
        <pt x="576" y="574" on="1"/>
        <pt x="449" y="518" on="1"/>
        <pt x="429" y="563" on="0"/>
        <pt x="359" y="601" on="0"/>
        <pt x="323" y="601" on="1"/>
        <pt x="281" y="601" on="0"/>
        <pt x="213" y="545" on="0"/>
        <pt x="172" y="439" on="0"/>
        <pt x="172" y="365" on="1"/>
        <pt x="172" y="250" on="0"/>
        <pt x="260" y="129" on="0"/>
        <pt x="324" y="129" on="1"/>
        <pt x="359" y="129" on="0"/>
        <pt x="432" y="164" on="0"/>
        <pt x="453" y="211" on="1"/>
        <pt x="579" y="155" on="1"/>
        <pt x="542" y="78" on="0"/>
        <pt x="409" y="-13" on="0"/>
      </contour>
      <contour>
        <pt x="249" y="799" on="1"/>
        <pt x="276" y="836" on="0"/>
        <pt x="330" y="908" on="0"/>
        <pt x="357" y="945" on="1"/>
        <pt x="375" y="967" on="0"/>
        <pt x="396" y="967" on="1"/>
        <pt x="416" y="967" on="0"/>
        <pt x="447" y="931" on="0"/>
        <pt x="447" y="906" on="1"/>
        <pt x="447" y="892" on="0"/>
        <pt x="437" y="869" on="0"/>
        <pt x="429" y="859" on="1"/>
        <pt x="412" y="845" on="0"/>
        <pt x="380" y="814" on="0"/>
        <pt x="362" y="799" on="1"/>
      </contour>
    </TTGlyph>
    <TTGlyph name="Ccaron" xMin="21" yMin="-13" xMax="579" yMax="958">
      <contour>
        <pt x="324" y="-13" on="1"/>
        <pt x="229" y="-13" on="0"/>
        <pt x="94" y="79" on="0"/>
        <pt x="21" y="249" on="0"/>
        <pt x="21" y="365" on="1"/>
        <pt x="21" y="481" on="0"/>
        <pt x="96" y="650" on="0"/>
        <pt x="233" y="743" on="0"/>
        <pt x="327" y="743" on="1"/>
        <pt x="413" y="743" on="0"/>
        <pt x="540" y="651" on="0"/>
        <pt x="576" y="574" on="1"/>
        <pt x="449" y="518" on="1"/>
        <pt x="429" y="563" on="0"/>
        <pt x="359" y="601" on="0"/>
        <pt x="323" y="601" on="1"/>
        <pt x="281" y="601" on="0"/>
        <pt x="213" y="545" on="0"/>
        <pt x="172" y="439" on="0"/>
        <pt x="172" y="365" on="1"/>
        <pt x="172" y="250" on="0"/>
        <pt x="260" y="129" on="0"/>
        <pt x="324" y="129" on="1"/>
        <pt x="359" y="129" on="0"/>
        <pt x="432" y="164" on="0"/>
        <pt x="453" y="211" on="1"/>
        <pt x="579" y="155" on="1"/>
        <pt x="542" y="78" on="0"/>
        <pt x="409" y="-13" on="0"/>
      </contour>
      <contour>
        <pt x="312" y="792" on="1"/>
        <pt x="286" y="792" on="0"/>
        <pt x="268" y="813" on="1"/>
        <pt x="135" y="958" on="1"/>
        <pt x="251" y="958" on="1"/>
        <pt x="312" y="892" on="1"/>
        <pt x="374" y="958" on="1"/>
        <pt x="490" y="958" on="1"/>
        <pt x="358" y="813" on="1"/>
        <pt x="338" y="792" on="0"/>
      </contour>
    </TTGlyph>
    <TTGlyph name="Ccedilla" xMin="21" yMin="-206" xMax="579" yMax="752">
      <contour>
        <pt x="324" y="-13" on="1"/>
        <pt x="229" y="-13" on="0"/>
        <pt x="94" y="80" on="0"/>
        <pt x="21" y="252" on="0"/>
        <pt x="21" y="369" on="1"/>
        <pt x="21" y="487" on="0"/>
        <pt x="96" y="658" on="0"/>
        <pt x="233" y="752" on="0"/>
        <pt x="327" y="752" on="1"/>
        <pt x="413" y="752" on="0"/>
        <pt x="540" y="659" on="0"/>
        <pt x="576" y="581" on="1"/>
        <pt x="449" y="524" on="1"/>
        <pt x="429" y="570" on="0"/>
        <pt x="359" y="608" on="0"/>
        <pt x="323" y="608" on="1"/>
        <pt x="281" y="608" on="0"/>
        <pt x="213" y="552" on="0"/>
        <pt x="172" y="444" on="0"/>
        <pt x="172" y="369" on="1"/>
        <pt x="172" y="253" on="0"/>
        <pt x="260" y="131" on="0"/>
        <pt x="324" y="131" on="1"/>
        <pt x="359" y="131" on="0"/>
        <pt x="432" y="166" on="0"/>
        <pt x="453" y="214" on="1"/>
        <pt x="579" y="157" on="1"/>
        <pt x="542" y="79" on="0"/>
        <pt x="409" y="-13" on="0"/>
      </contour>
      <contour>
        <pt x="295" y="-206" on="1"/>
        <pt x="273" y="-206" on="0"/>
        <pt x="232" y="-199" on="0"/>
        <pt x="215" y="-192" on="1"/>
        <pt x="229" y="-138" on="1"/>
        <pt x="237" y="-142" on="0"/>
        <pt x="269" y="-152" on="0"/>
        <pt x="284" y="-152" on="1"/>
        <pt x="301" y="-152" on="0"/>
        <pt x="324" y="-139" on="0"/>
        <pt x="324" y="-121" on="1"/>
        <pt x="324" y="-108" on="0"/>
        <pt x="306" y="-93" on="0"/>
        <pt x="291" y="-93" on="1"/>
        <pt x="280" y="-93" on="0"/>
        <pt x="267" y="-98" on="1"/>
        <pt x="258" y="-102" on="0"/>
        <pt x="251" y="-96" on="1"/>
        <pt x="245" y="-92" on="0"/>
        <pt x="241" y="-73" on="0"/>
        <pt x="244" y="-65" on="1"/>
        <pt x="291" y="27" on="1"/>
        <pt x="328" y="0" on="1"/>
        <pt x="301" y="-53" on="1"/>
        <pt x="314" y="-50" on="0"/>
        <pt x="331" y="-50" on="1"/>
        <pt x="349" y="-50" on="0"/>
        <pt x="385" y="-63" on="0"/>
        <pt x="409" y="-93" on="0"/>
        <pt x="409" y="-118" on="1"/>
        <pt x="409" y="-151" on="0"/>
        <pt x="376" y="-189" on="0"/>
        <pt x="324" y="-206" on="0"/>
      </contour>
    </TTGlyph>
    <TTGlyph name="Ccircumflex" xMin="21" yMin="-13" xMax="579" yMax="950">
      <component glyphName="C" x="0" y="0" flags="0x204"/>
      <component glyphName="uni0302.case" x="605" y="0" flags="0x4"/>
    </TTGlyph>
    <TTGlyph name="Cdotaccent" xMin="21" yMin="-13" xMax="579" yMax="947">
      <contour>
        <pt x="324" y="-13" on="1"/>
        <pt x="229" y="-13" on="0"/>
        <pt x="94" y="79" on="0"/>
        <pt x="21" y="249" on="0"/>
        <pt x="21" y="365" on="1"/>
        <pt x="21" y="481" on="0"/>
        <pt x="96" y="650" on="0"/>
        <pt x="233" y="743" on="0"/>
        <pt x="327" y="743" on="1"/>
        <pt x="413" y="743" on="0"/>
        <pt x="540" y="651" on="0"/>
        <pt x="576" y="574" on="1"/>
        <pt x="449" y="518" on="1"/>
        <pt x="429" y="563" on="0"/>
        <pt x="359" y="601" on="0"/>
        <pt x="323" y="601" on="1"/>
        <pt x="281" y="601" on="0"/>
        <pt x="213" y="545" on="0"/>
        <pt x="172" y="439" on="0"/>
        <pt x="172" y="365" on="1"/>
        <pt x="172" y="250" on="0"/>
        <pt x="260" y="129" on="0"/>
        <pt x="324" y="129" on="1"/>
        <pt x="359" y="129" on="0"/>
        <pt x="432" y="164" on="0"/>
        <pt x="453" y="211" on="1"/>
        <pt x="579" y="155" on="1"/>
        <pt x="542" y="78" on="0"/>
        <pt x="409" y="-13" on="0"/>
      </contour>
      <contour>
        <pt x="312" y="793" on="1"/>
        <pt x="286" y="793" on="0"/>
        <pt x="248" y="838" on="0"/>
        <pt x="248" y="870" on="1"/>
        <pt x="248" y="902" on="0"/>
        <pt x="286" y="947" on="0"/>
        <pt x="312" y="947" on="1"/>
        <pt x="338" y="947" on="0"/>
        <pt x="376" y="902" on="0"/>
        <pt x="376" y="870" on="1"/>
        <pt x="376" y="838" on="0"/>
        <pt x="338" y="793" on="0"/>
      </contour>
    </TTGlyph>
    <TTGlyph name="Chi" xMin="21" yMin="0" xMax="579" yMax="739">
      <component glyphName="X" x="0" y="0" flags="0x204"/>
    </TTGlyph>
    <TTGlyph name="D" xMin="21" yMin="0" xMax="579" yMax="739">
      <contour>
        <pt x="21" y="0" on="1"/>
        <pt x="21" y="739" on="1"/>
        <pt x="223" y="739" on="1"/>
        <pt x="299" y="739" on="0"/>
        <pt x="428" y="702" on="0"/>
        <pt x="525" y="617" on="0"/>
        <pt x="579" y="475" on="0"/>
        <pt x="579" y="369" on="1"/>
        <pt x="579" y="263" on="0"/>
        <pt x="525" y="121" on="0"/>
        <pt x="428" y="36" on="0"/>
        <pt x="299" y="0" on="0"/>
        <pt x="223" y="0" on="1"/>
      </contour>
      <contour>
        <pt x="167" y="147" on="1"/>
        <pt x="226" y="147" on="1"/>
        <pt x="266" y="147" on="0"/>
        <pt x="338" y="163" on="0"/>
        <pt x="396" y="207" on="0"/>
        <pt x="429" y="297" on="0"/>
        <pt x="429" y="369" on="1"/>
        <pt x="429" y="442" on="0"/>
        <pt x="396" y="532" on="0"/>
        <pt x="338" y="577" on="0"/>
        <pt x="266" y="594" on="0"/>
        <pt x="226" y="594" on="1"/>
        <pt x="167" y="594" on="1"/>
      </contour>
    </TTGlyph>
    <TTGlyph name="Dcaron" xMin="21" yMin="0" xMax="579" yMax="958">
      <contour>
        <pt x="21" y="0" on="1"/>
        <pt x="21" y="730" on="1"/>
        <pt x="223" y="730" on="1"/>
        <pt x="299" y="730" on="0"/>
        <pt x="428" y="694" on="0"/>
        <pt x="525" y="610" on="0"/>
        <pt x="579" y="469" on="0"/>
        <pt x="579" y="365" on="1"/>
        <pt x="579" y="260" on="0"/>
        <pt x="525" y="120" on="0"/>
        <pt x="428" y="36" on="0"/>
        <pt x="299" y="0" on="0"/>
        <pt x="223" y="0" on="1"/>
      </contour>
      <contour>
        <pt x="167" y="145" on="1"/>
        <pt x="226" y="145" on="1"/>
        <pt x="266" y="145" on="0"/>
        <pt x="338" y="161" on="0"/>
        <pt x="396" y="205" on="0"/>
        <pt x="429" y="293" on="0"/>
        <pt x="429" y="365" on="1"/>
        <pt x="429" y="437" on="0"/>
        <pt x="396" y="526" on="0"/>
        <pt x="338" y="570" on="0"/>
        <pt x="266" y="587" on="0"/>
        <pt x="226" y="587" on="1"/>
        <pt x="167" y="587" on="1"/>
      </contour>
      <contour>
        <pt x="286" y="792" on="1"/>
        <pt x="260" y="792" on="0"/>
        <pt x="241" y="813" on="1"/>
        <pt x="106" y="958" on="1"/>
        <pt x="224" y="958" on="1"/>
        <pt x="286" y="892" on="1"/>
        <pt x="349" y="958" on="1"/>
        <pt x="466" y="958" on="1"/>
        <pt x="332" y="813" on="1"/>
        <pt x="312" y="792" on="0"/>
      </contour>
    </TTGlyph>
    <TTGlyph name="Dcroat" xMin="21" yMin="0" xMax="579" yMax="739">
      <contour>
        <pt x="112" y="0" on="1"/>
        <pt x="112" y="305" on="1"/>
        <pt x="21" y="305" on="1"/>
        <pt x="21" y="455" on="1"/>
        <pt x="112" y="455" on="1"/>
        <pt x="112" y="739" on="1"/>
        <pt x="281" y="739" on="1"/>
        <pt x="345" y="739" on="0"/>
        <pt x="453" y="702" on="0"/>
        <pt x="533" y="617" on="0"/>
        <pt x="579" y="475" on="0"/>
        <pt x="579" y="369" on="1"/>
        <pt x="579" y="263" on="0"/>
        <pt x="533" y="121" on="0"/>
        <pt x="453" y="36" on="0"/>
        <pt x="345" y="0" on="0"/>
        <pt x="281" y="0" on="1"/>
      </contour>
      <contour>
        <pt x="233" y="147" on="1"/>
        <pt x="283" y="147" on="1"/>
        <pt x="317" y="147" on="0"/>
        <pt x="377" y="163" on="0"/>
        <pt x="426" y="207" on="0"/>
        <pt x="453" y="297" on="0"/>
        <pt x="453" y="369" on="1"/>
        <pt x="453" y="442" on="0"/>
        <pt x="426" y="532" on="0"/>
        <pt x="377" y="577" on="0"/>
        <pt x="317" y="594" on="0"/>
        <pt x="283" y="594" on="1"/>
        <pt x="233" y="594" on="1"/>
        <pt x="233" y="455" on="1"/>
        <pt x="293" y="455" on="1"/>
        <pt x="293" y="305" on="1"/>
        <pt x="233" y="305" on="1"/>
      </contour>
    </TTGlyph>
    <TTGlyph name="E" xMin="33" yMin="0" xMax="567" yMax="739">
      <contour>
        <pt x="33" y="0" on="1"/>
        <pt x="33" y="739" on="1"/>
        <pt x="567" y="739" on="1"/>
        <pt x="567" y="585" on="1"/>
        <pt x="197" y="585" on="1"/>
        <pt x="197" y="456" on="1"/>
        <pt x="423" y="456" on="1"/>
        <pt x="423" y="303" on="1"/>
        <pt x="197" y="303" on="1"/>
        <pt x="197" y="154" on="1"/>
        <pt x="567" y="154" on="1"/>
        <pt x="567" y="0" on="1"/>
      </contour>
    </TTGlyph>
    <TTGlyph name="Eacute" xMin="33" yMin="0" xMax="567" yMax="967">
      <contour>
        <pt x="33" y="0" on="1"/>
        <pt x="33" y="730" on="1"/>
        <pt x="567" y="730" on="1"/>
        <pt x="567" y="578" on="1"/>
        <pt x="197" y="578" on="1"/>
        <pt x="197" y="451" on="1"/>
        <pt x="423" y="451" on="1"/>
        <pt x="423" y="299" on="1"/>
        <pt x="197" y="299" on="1"/>
        <pt x="197" y="152" on="1"/>
        <pt x="567" y="152" on="1"/>
        <pt x="567" y="0" on="1"/>
      </contour>
      <contour>
        <pt x="229" y="799" on="1"/>
        <pt x="260" y="836" on="0"/>
        <pt x="322" y="908" on="0"/>
        <pt x="353" y="945" on="1"/>
        <pt x="374" y="967" on="0"/>
        <pt x="398" y="967" on="1"/>
        <pt x="422" y="967" on="0"/>
        <pt x="456" y="931" on="0"/>
        <pt x="456" y="906" on="1"/>
        <pt x="456" y="892" on="0"/>
        <pt x="446" y="869" on="0"/>
        <pt x="436" y="859" on="1"/>
        <pt x="416" y="845" on="0"/>
        <pt x="379" y="814" on="0"/>
        <pt x="359" y="799" on="1"/>
      </contour>
    </TTGlyph>
    <TTGlyph name="Ebreve" xMin="33" yMin="0" xMax="567" yMax="950">
      <component glyphName="E" x="0" y="0" flags="0x204"/>
      <component glyphName="uni0306.case" x="620" y="0" flags="0x4"/>
    </TTGlyph>
    <TTGlyph name="Ecaron" xMin="33" yMin="0" xMax="567" yMax="958">
      <contour>
        <pt x="33" y="0" on="1"/>
        <pt x="33" y="730" on="1"/>
        <pt x="567" y="730" on="1"/>
        <pt x="567" y="578" on="1"/>
        <pt x="197" y="578" on="1"/>
        <pt x="197" y="451" on="1"/>
        <pt x="423" y="451" on="1"/>
        <pt x="423" y="299" on="1"/>
        <pt x="197" y="299" on="1"/>
        <pt x="197" y="152" on="1"/>
        <pt x="567" y="152" on="1"/>
        <pt x="567" y="0" on="1"/>
      </contour>
      <contour>
        <pt x="302" y="792" on="1"/>
        <pt x="272" y="792" on="0"/>
        <pt x="250" y="813" on="1"/>
        <pt x="97" y="958" on="1"/>
        <pt x="231" y="958" on="1"/>
        <pt x="302" y="892" on="1"/>
        <pt x="373" y="958" on="1"/>
        <pt x="506" y="958" on="1"/>
        <pt x="354" y="813" on="1"/>
        <pt x="331" y="792" on="0"/>
      </contour>
    </TTGlyph>
    <TTGlyph name="Ecircumflex" xMin="33" yMin="0" xMax="567" yMax="965">
      <contour>
        <pt x="33" y="0" on="1"/>
        <pt x="33" y="730" on="1"/>
        <pt x="567" y="730" on="1"/>
        <pt x="567" y="578" on="1"/>
        <pt x="197" y="578" on="1"/>
        <pt x="197" y="451" on="1"/>
        <pt x="423" y="451" on="1"/>
        <pt x="423" y="299" on="1"/>
        <pt x="197" y="299" on="1"/>
        <pt x="197" y="152" on="1"/>
        <pt x="567" y="152" on="1"/>
        <pt x="567" y="0" on="1"/>
      </contour>
      <contour>
        <pt x="97" y="799" on="1"/>
        <pt x="250" y="944" on="1"/>
        <pt x="260" y="953" on="0"/>
        <pt x="286" y="965" on="0"/>
        <pt x="301" y="965" on="1"/>
        <pt x="330" y="965" on="0"/>
        <pt x="352" y="944" on="1"/>
        <pt x="506" y="799" on="1"/>
        <pt x="372" y="799" on="1"/>
        <pt x="301" y="866" on="1"/>
        <pt x="231" y="799" on="1"/>
      </contour>
    </TTGlyph>
    <TTGlyph name="Edieresis" xMin="33" yMin="0" xMax="567" yMax="947">
      <contour>
        <pt x="33" y="0" on="1"/>
        <pt x="33" y="730" on="1"/>
        <pt x="567" y="730" on="1"/>
        <pt x="567" y="578" on="1"/>
        <pt x="197" y="578" on="1"/>
        <pt x="197" y="451" on="1"/>
        <pt x="423" y="451" on="1"/>
        <pt x="423" y="299" on="1"/>
        <pt x="197" y="299" on="1"/>
        <pt x="197" y="152" on="1"/>
        <pt x="567" y="152" on="1"/>
        <pt x="567" y="0" on="1"/>
      </contour>
      <contour>
        <pt x="202" y="793" on="1"/>
        <pt x="172" y="793" on="0"/>
        <pt x="128" y="838" on="0"/>
        <pt x="128" y="870" on="1"/>
        <pt x="128" y="902" on="0"/>
        <pt x="172" y="947" on="0"/>
        <pt x="202" y="947" on="1"/>
        <pt x="232" y="947" on="0"/>
        <pt x="275" y="902" on="0"/>
        <pt x="275" y="870" on="1"/>
        <pt x="275" y="838" on="0"/>
        <pt x="232" y="793" on="0"/>
      </contour>
      <contour>
        <pt x="404" y="793" on="1"/>
        <pt x="374" y="793" on="0"/>
        <pt x="330" y="838" on="0"/>
        <pt x="330" y="870" on="1"/>
        <pt x="330" y="902" on="0"/>
        <pt x="374" y="947" on="0"/>
        <pt x="404" y="947" on="1"/>
        <pt x="434" y="947" on="0"/>
        <pt x="476" y="902" on="0"/>
        <pt x="476" y="870" on="1"/>
        <pt x="476" y="838" on="0"/>
        <pt x="434" y="793" on="0"/>
      </contour>
    </TTGlyph>
    <TTGlyph name="Edotaccent" xMin="33" yMin="0" xMax="567" yMax="947">
      <contour>
        <pt x="33" y="0" on="1"/>
        <pt x="33" y="730" on="1"/>
        <pt x="567" y="730" on="1"/>
        <pt x="567" y="578" on="1"/>
        <pt x="197" y="578" on="1"/>
        <pt x="197" y="451" on="1"/>
        <pt x="423" y="451" on="1"/>
        <pt x="423" y="299" on="1"/>
        <pt x="197" y="299" on="1"/>
        <pt x="197" y="152" on="1"/>
        <pt x="567" y="152" on="1"/>
        <pt x="567" y="0" on="1"/>
      </contour>
      <contour>
        <pt x="302" y="793" on="1"/>
        <pt x="272" y="793" on="0"/>
        <pt x="228" y="838" on="0"/>
        <pt x="228" y="870" on="1"/>
        <pt x="228" y="902" on="0"/>
        <pt x="272" y="947" on="0"/>
        <pt x="302" y="947" on="1"/>
        <pt x="332" y="947" on="0"/>
        <pt x="375" y="902" on="0"/>
        <pt x="375" y="870" on="1"/>
        <pt x="375" y="838" on="0"/>
        <pt x="332" y="793" on="0"/>
      </contour>
    </TTGlyph>
    <TTGlyph name="Egrave" xMin="33" yMin="0" xMax="567" yMax="967">
      <contour>
        <pt x="33" y="0" on="1"/>
        <pt x="33" y="730" on="1"/>
        <pt x="567" y="730" on="1"/>
        <pt x="567" y="578" on="1"/>
        <pt x="197" y="578" on="1"/>
        <pt x="197" y="451" on="1"/>
        <pt x="423" y="451" on="1"/>
        <pt x="423" y="299" on="1"/>
        <pt x="197" y="299" on="1"/>
        <pt x="197" y="152" on="1"/>
        <pt x="567" y="152" on="1"/>
        <pt x="567" y="0" on="1"/>
      </contour>
      <contour>
        <pt x="247" y="799" on="1"/>
        <pt x="227" y="814" on="0"/>
        <pt x="190" y="845" on="0"/>
        <pt x="170" y="859" on="1"/>
        <pt x="160" y="870" on="0"/>
        <pt x="149" y="891" on="0"/>
        <pt x="149" y="906" on="1"/>
        <pt x="149" y="930" on="0"/>
        <pt x="185" y="967" on="0"/>
        <pt x="207" y="967" on="1"/>
        <pt x="231" y="967" on="0"/>
        <pt x="247" y="951" on="1"/>
        <pt x="377" y="799" on="1"/>
      </contour>
    </TTGlyph>
    <TTGlyph name="Emacron" xMin="33" yMin="0" xMax="567" yMax="923">
      <contour>
        <pt x="33" y="0" on="1"/>
        <pt x="33" y="730" on="1"/>
        <pt x="567" y="730" on="1"/>
        <pt x="567" y="578" on="1"/>
        <pt x="197" y="578" on="1"/>
        <pt x="197" y="451" on="1"/>
        <pt x="423" y="451" on="1"/>
        <pt x="423" y="299" on="1"/>
        <pt x="197" y="299" on="1"/>
        <pt x="197" y="152" on="1"/>
        <pt x="567" y="152" on="1"/>
        <pt x="567" y="0" on="1"/>
      </contour>
      <contour>
        <pt x="146" y="816" on="1"/>
        <pt x="146" y="923" on="1"/>
        <pt x="457" y="923" on="1"/>
        <pt x="457" y="816" on="1"/>
      </contour>
    </TTGlyph>
    <TTGlyph name="Eng" xMin="63" yMin="-182" xMax="537" yMax="739">
      <contour>
        <pt x="244" y="-182" on="1"/>
        <pt x="244" y="-62" on="1"/>
        <pt x="308" y="-62" on="1"/>
        <pt x="354" y="-62" on="0"/>
        <pt x="406" y="-13" on="0"/>
        <pt x="406" y="30" on="1"/>
        <pt x="169" y="597" on="1"/>
        <pt x="171" y="568" on="0"/>
        <pt x="177" y="485" on="0"/>
        <pt x="181" y="398" on="0"/>
        <pt x="181" y="361" on="1"/>
        <pt x="181" y="0" on="1"/>
        <pt x="63" y="0" on="1"/>
        <pt x="63" y="739" on="1"/>
        <pt x="222" y="739" on="1"/>
        <pt x="433" y="231" on="1"/>
        <pt x="430" y="263" on="0"/>
        <pt x="424" y="351" on="0"/>
        <pt x="419" y="442" on="0"/>
        <pt x="419" y="478" on="1"/>
        <pt x="419" y="739" on="1"/>
        <pt x="537" y="739" on="1"/>
        <pt x="537" y="21" on="1"/>
        <pt x="537" y="-39" on="0"/>
        <pt x="478" y="-131" on="0"/>
        <pt x="372" y="-182" on="0"/>
        <pt x="302" y="-182" on="1"/>
      </contour>
    </TTGlyph>
    <TTGlyph name="Eogonek" xMin="33" yMin="-192" xMax="567" yMax="739">
      <contour>
        <pt x="33" y="0" on="1"/>
        <pt x="33" y="739" on="1"/>
        <pt x="567" y="739" on="1"/>
        <pt x="567" y="585" on="1"/>
        <pt x="197" y="585" on="1"/>
        <pt x="197" y="456" on="1"/>
        <pt x="423" y="456" on="1"/>
        <pt x="423" y="303" on="1"/>
        <pt x="197" y="303" on="1"/>
        <pt x="197" y="154" on="1"/>
        <pt x="567" y="154" on="1"/>
        <pt x="567" y="0" on="1"/>
      </contour>
      <contour>
        <pt x="448" y="-192" on="1"/>
        <pt x="392" y="-192" on="0"/>
        <pt x="327" y="-160" on="0"/>
        <pt x="300" y="-115" on="0"/>
        <pt x="300" y="-94" on="1"/>
        <pt x="300" y="-56" on="0"/>
        <pt x="353" y="-10" on="0"/>
        <pt x="383" y="0" on="1"/>
        <pt x="530" y="0" on="1"/>
        <pt x="510" y="-2" on="0"/>
        <pt x="463" y="-24" on="0"/>
        <pt x="431" y="-57" on="0"/>
        <pt x="431" y="-75" on="1"/>
        <pt x="431" y="-95" on="0"/>
        <pt x="462" y="-108" on="0"/>
        <pt x="479" y="-108" on="1"/>
        <pt x="494" y="-108" on="0"/>
        <pt x="524" y="-99" on="0"/>
        <pt x="530" y="-98" on="1"/>
        <pt x="530" y="-181" on="1"/>
        <pt x="518" y="-186" on="0"/>
        <pt x="467" y="-192" on="0"/>
      </contour>
    </TTGlyph>
    <TTGlyph name="Epsilon" xMin="33" yMin="0" xMax="567" yMax="739">
      <component glyphName="E" x="0" y="0" flags="0x204"/>
    </TTGlyph>
    <TTGlyph name="Epsilontonos" xMin="-134" yMin="0" xMax="567" yMax="739">
      <component glyphName="E" x="0" y="0" flags="0x204"/>
      <component glyphName="tonos.case" x="-346" y="0" flags="0x4"/>
    </TTGlyph>
    <TTGlyph name="Eta" xMin="21" yMin="0" xMax="579" yMax="739">
      <component glyphName="H" x="0" y="0" flags="0x204"/>
    </TTGlyph>
    <TTGlyph name="Etatonos" xMin="-134" yMin="0" xMax="579" yMax="739">
      <component glyphName="tonos.case" x="-346" y="0" flags="0x4"/>
      <component glyphName="H" x="0" y="0" flags="0x204"/>
    </TTGlyph>
    <TTGlyph name="Eth" xMin="21" yMin="0" xMax="579" yMax="739">
      <contour>
        <pt x="112" y="0" on="1"/>
        <pt x="112" y="305" on="1"/>
        <pt x="21" y="305" on="1"/>
        <pt x="21" y="455" on="1"/>
        <pt x="112" y="455" on="1"/>
        <pt x="112" y="739" on="1"/>
        <pt x="281" y="739" on="1"/>
        <pt x="345" y="739" on="0"/>
        <pt x="453" y="702" on="0"/>
        <pt x="533" y="617" on="0"/>
        <pt x="579" y="475" on="0"/>
        <pt x="579" y="369" on="1"/>
        <pt x="579" y="263" on="0"/>
        <pt x="533" y="121" on="0"/>
        <pt x="453" y="36" on="0"/>
        <pt x="345" y="0" on="0"/>
        <pt x="281" y="0" on="1"/>
      </contour>
      <contour>
        <pt x="233" y="147" on="1"/>
        <pt x="283" y="147" on="1"/>
        <pt x="317" y="147" on="0"/>
        <pt x="377" y="163" on="0"/>
        <pt x="426" y="207" on="0"/>
        <pt x="453" y="297" on="0"/>
        <pt x="453" y="369" on="1"/>
        <pt x="453" y="442" on="0"/>
        <pt x="426" y="532" on="0"/>
        <pt x="377" y="577" on="0"/>
        <pt x="317" y="594" on="0"/>
        <pt x="283" y="594" on="1"/>
        <pt x="233" y="594" on="1"/>
        <pt x="233" y="455" on="1"/>
        <pt x="293" y="455" on="1"/>
        <pt x="293" y="305" on="1"/>
        <pt x="233" y="305" on="1"/>
      </contour>
    </TTGlyph>
    <TTGlyph name="Euro" xMin="8" yMin="-10" xMax="563" yMax="730">
      <contour>
        <pt x="319" y="-10" on="1"/>
        <pt x="246" y="-10" on="0"/>
        <pt x="137" y="45" on="0"/>
        <pt x="77" y="144" on="0"/>
        <pt x="77" y="211" on="1"/>
        <pt x="77" y="233" on="1"/>
        <pt x="8" y="233" on="1"/>
        <pt x="8" y="316" on="1"/>
        <pt x="77" y="316" on="1"/>
        <pt x="77" y="404" on="1"/>
        <pt x="8" y="404" on="1"/>
        <pt x="8" y="487" on="1"/>
        <pt x="77" y="487" on="1"/>
        <pt x="77" y="509" on="1"/>
        <pt x="77" y="576" on="0"/>
        <pt x="137" y="675" on="0"/>
        <pt x="247" y="730" on="0"/>
        <pt x="320" y="730" on="1"/>
        <pt x="392" y="730" on="0"/>
        <pt x="498" y="678" on="0"/>
        <pt x="560" y="582" on="0"/>
        <pt x="563" y="517" on="1"/>
        <pt x="435" y="517" on="1"/>
        <pt x="433" y="565" on="0"/>
        <pt x="371" y="618" on="0"/>
        <pt x="320" y="618" on="1"/>
        <pt x="266" y="618" on="0"/>
        <pt x="204" y="560" on="0"/>
        <pt x="204" y="509" on="1"/>
        <pt x="204" y="487" on="1"/>
        <pt x="362" y="487" on="1"/>
        <pt x="362" y="404" on="1"/>
        <pt x="204" y="404" on="1"/>
        <pt x="204" y="316" on="1"/>
        <pt x="362" y="316" on="1"/>
        <pt x="362" y="233" on="1"/>
        <pt x="204" y="233" on="1"/>
        <pt x="204" y="211" on="1"/>
        <pt x="204" y="160" on="0"/>
        <pt x="265" y="102" on="0"/>
        <pt x="319" y="102" on="1"/>
        <pt x="371" y="102" on="0"/>
        <pt x="433" y="155" on="0"/>
        <pt x="435" y="203" on="1"/>
        <pt x="563" y="203" on="1"/>
        <pt x="558" y="105" on="0"/>
        <pt x="426" y="-10" on="0"/>
      </contour>
    </TTGlyph>
    <TTGlyph name="F" xMin="51" yMin="0" xMax="549" yMax="739">
      <contour>
        <pt x="51" y="0" on="1"/>
        <pt x="51" y="739" on="1"/>
        <pt x="549" y="739" on="1"/>
        <pt x="549" y="585" on="1"/>
        <pt x="216" y="585" on="1"/>
        <pt x="216" y="456" on="1"/>
        <pt x="549" y="456" on="1"/>
        <pt x="549" y="303" on="1"/>
        <pt x="216" y="303" on="1"/>
        <pt x="216" y="0" on="1"/>
      </contour>
    </TTGlyph>
    <TTGlyph name="G" xMin="21" yMin="-13" xMax="579" yMax="752">
      <contour>
        <pt x="294" y="-13" on="1"/>
        <pt x="210" y="-13" on="0"/>
        <pt x="88" y="81" on="0"/>
        <pt x="21" y="254" on="0"/>
        <pt x="21" y="371" on="1"/>
        <pt x="21" y="489" on="0"/>
        <pt x="95" y="659" on="0"/>
        <pt x="227" y="752" on="0"/>
        <pt x="314" y="752" on="1"/>
        <pt x="389" y="752" on="0"/>
        <pt x="511" y="675" on="0"/>
        <pt x="545" y="599" on="1"/>
        <pt x="428" y="537" on="1"/>
        <pt x="414" y="567" on="0"/>
        <pt x="357" y="608" on="0"/>
        <pt x="312" y="608" on="1"/>
        <pt x="272" y="608" on="0"/>
        <pt x="204" y="556" on="0"/>
        <pt x="165" y="450" on="0"/>
        <pt x="165" y="371" on="1"/>
        <pt x="165" y="255" on="0"/>
        <pt x="248" y="131" on="0"/>
        <pt x="315" y="131" on="1"/>
        <pt x="347" y="131" on="0"/>
        <pt x="405" y="154" on="0"/>
        <pt x="442" y="209" on="0"/>
        <pt x="442" y="255" on="1"/>
        <pt x="442" y="276" on="1"/>
        <pt x="314" y="276" on="1"/>
        <pt x="314" y="418" on="1"/>
        <pt x="579" y="418" on="1"/>
        <pt x="579" y="0" on="1"/>
        <pt x="489" y="0" on="1"/>
        <pt x="471" y="82" on="1"/>
        <pt x="415" y="-13" on="0"/>
      </contour>
    </TTGlyph>
    <TTGlyph name="Gamma" xMin="114" yMin="0" xMax="568" yMax="739">
      <component glyphName="uni0413" x="0" y="0" flags="0x204"/>
    </TTGlyph>
    <TTGlyph name="Gbreve" xMin="21" yMin="-13" xMax="579" yMax="930">
      <contour>
        <pt x="294" y="-13" on="1"/>
        <pt x="210" y="-13" on="0"/>
        <pt x="88" y="80" on="0"/>
        <pt x="21" y="251" on="0"/>
        <pt x="21" y="367" on="1"/>
        <pt x="21" y="483" on="0"/>
        <pt x="95" y="651" on="0"/>
        <pt x="227" y="743" on="0"/>
        <pt x="314" y="743" on="1"/>
        <pt x="389" y="743" on="0"/>
        <pt x="511" y="667" on="0"/>
        <pt x="545" y="592" on="1"/>
        <pt x="428" y="531" on="1"/>
        <pt x="414" y="560" on="0"/>
        <pt x="357" y="601" on="0"/>
        <pt x="312" y="601" on="1"/>
        <pt x="272" y="601" on="0"/>
        <pt x="204" y="549" on="0"/>
        <pt x="165" y="445" on="0"/>
        <pt x="165" y="367" on="1"/>
        <pt x="165" y="252" on="0"/>
        <pt x="248" y="129" on="0"/>
        <pt x="315" y="129" on="1"/>
        <pt x="347" y="129" on="0"/>
        <pt x="405" y="152" on="0"/>
        <pt x="442" y="207" on="0"/>
        <pt x="442" y="252" on="1"/>
        <pt x="442" y="273" on="1"/>
        <pt x="314" y="273" on="1"/>
        <pt x="314" y="413" on="1"/>
        <pt x="579" y="413" on="1"/>
        <pt x="579" y="0" on="1"/>
        <pt x="489" y="0" on="1"/>
        <pt x="471" y="81" on="1"/>
        <pt x="415" y="-13" on="0"/>
      </contour>
      <contour>
        <pt x="308" y="799" on="1"/>
        <pt x="263" y="799" on="0"/>
        <pt x="193" y="874" on="0"/>
        <pt x="186" y="930" on="1"/>
        <pt x="258" y="930" on="1"/>
        <pt x="263" y="912" on="0"/>
        <pt x="290" y="883" on="0"/>
        <pt x="308" y="883" on="1"/>
        <pt x="328" y="883" on="0"/>
        <pt x="356" y="912" on="0"/>
        <pt x="359" y="930" on="1"/>
        <pt x="432" y="930" on="1"/>
        <pt x="425" y="874" on="0"/>
        <pt x="355" y="799" on="0"/>
      </contour>
    </TTGlyph>
    <TTGlyph name="Gcaron" xMin="21" yMin="-13" xMax="579" yMax="950">
      <component glyphName="G" x="0" y="0" flags="0x204"/>
      <component glyphName="uni030C.case" x="600" y="0" flags="0x4"/>
    </TTGlyph>
    <TTGlyph name="Gcircumflex" xMin="21" yMin="-13" xMax="579" yMax="950">
      <component glyphName="G" x="0" y="0" flags="0x204"/>
      <component glyphName="uni0302.case" x="600" y="0" flags="0x4"/>
    </TTGlyph>
    <TTGlyph name="Gdotaccent" xMin="21" yMin="-13" xMax="579" yMax="947">
      <contour>
        <pt x="294" y="-13" on="1"/>
        <pt x="210" y="-13" on="0"/>
        <pt x="88" y="80" on="0"/>
        <pt x="21" y="251" on="0"/>
        <pt x="21" y="367" on="1"/>
        <pt x="21" y="483" on="0"/>
        <pt x="95" y="651" on="0"/>
        <pt x="227" y="743" on="0"/>
        <pt x="314" y="743" on="1"/>
        <pt x="389" y="743" on="0"/>
        <pt x="511" y="667" on="0"/>
        <pt x="545" y="592" on="1"/>
        <pt x="428" y="531" on="1"/>
        <pt x="414" y="560" on="0"/>
        <pt x="357" y="601" on="0"/>
        <pt x="312" y="601" on="1"/>
        <pt x="272" y="601" on="0"/>
        <pt x="204" y="549" on="0"/>
        <pt x="165" y="445" on="0"/>
        <pt x="165" y="367" on="1"/>
        <pt x="165" y="252" on="0"/>
        <pt x="248" y="129" on="0"/>
        <pt x="315" y="129" on="1"/>
        <pt x="347" y="129" on="0"/>
        <pt x="405" y="152" on="0"/>
        <pt x="442" y="207" on="0"/>
        <pt x="442" y="252" on="1"/>
        <pt x="442" y="273" on="1"/>
        <pt x="314" y="273" on="1"/>
        <pt x="314" y="413" on="1"/>
        <pt x="579" y="413" on="1"/>
        <pt x="579" y="0" on="1"/>
        <pt x="489" y="0" on="1"/>
        <pt x="471" y="81" on="1"/>
        <pt x="415" y="-13" on="0"/>
      </contour>
      <contour>
        <pt x="309" y="793" on="1"/>
        <pt x="284" y="793" on="0"/>
        <pt x="248" y="838" on="0"/>
        <pt x="248" y="870" on="1"/>
        <pt x="248" y="902" on="0"/>
        <pt x="284" y="947" on="0"/>
        <pt x="309" y="947" on="1"/>
        <pt x="334" y="947" on="0"/>
        <pt x="370" y="902" on="0"/>
        <pt x="370" y="870" on="1"/>
        <pt x="370" y="838" on="0"/>
        <pt x="334" y="793" on="0"/>
      </contour>
    </TTGlyph>
    <TTGlyph name="H" xMin="21" yMin="0" xMax="579" yMax="739">
      <contour>
        <pt x="21" y="0" on="1"/>
        <pt x="21" y="739" on="1"/>
        <pt x="170" y="739" on="1"/>
        <pt x="170" y="456" on="1"/>
        <pt x="430" y="456" on="1"/>
        <pt x="430" y="739" on="1"/>
        <pt x="579" y="739" on="1"/>
        <pt x="579" y="0" on="1"/>
        <pt x="430" y="0" on="1"/>
        <pt x="430" y="303" on="1"/>
        <pt x="170" y="303" on="1"/>
        <pt x="170" y="0" on="1"/>
      </contour>
    </TTGlyph>
    <TTGlyph name="Hbar" xMin="21" yMin="0" xMax="579" yMax="739">
      <contour>
        <pt x="68" y="0" on="1"/>
        <pt x="68" y="549" on="1"/>
        <pt x="21" y="549" on="1"/>
        <pt x="21" y="657" on="1"/>
        <pt x="68" y="657" on="1"/>
        <pt x="68" y="739" on="1"/>
        <pt x="193" y="739" on="1"/>
        <pt x="193" y="657" on="1"/>
        <pt x="408" y="657" on="1"/>
        <pt x="408" y="739" on="1"/>
        <pt x="532" y="739" on="1"/>
        <pt x="532" y="657" on="1"/>
        <pt x="579" y="657" on="1"/>
        <pt x="579" y="549" on="1"/>
        <pt x="532" y="549" on="1"/>
        <pt x="532" y="0" on="1"/>
        <pt x="408" y="0" on="1"/>
        <pt x="408" y="303" on="1"/>
        <pt x="193" y="303" on="1"/>
        <pt x="193" y="0" on="1"/>
      </contour>
      <contour>
        <pt x="193" y="456" on="1"/>
        <pt x="408" y="456" on="1"/>
        <pt x="408" y="549" on="1"/>
        <pt x="193" y="549" on="1"/>
      </contour>
    </TTGlyph>
    <TTGlyph name="Hcircumflex" xMin="21" yMin="0" xMax="579" yMax="950">
      <component glyphName="H" x="0" y="0" flags="0x204"/>
      <component glyphName="uni0302.case" x="600" y="0" flags="0x4"/>
    </TTGlyph>
    <TTGlyph name="I" xMin="225" yMin="0" xMax="375" yMax="739">
      <contour>
        <pt x="225" y="0" on="1"/>
        <pt x="225" y="739" on="1"/>
        <pt x="375" y="739" on="1"/>
        <pt x="375" y="0" on="1"/>
      </contour>
    </TTGlyph>
    <TTGlyph name="Iacute" xMin="225" yMin="0" xMax="456" yMax="967">
      <contour>
        <pt x="225" y="0" on="1"/>
        <pt x="225" y="739" on="1"/>
        <pt x="375" y="739" on="1"/>
        <pt x="375" y="0" on="1"/>
      </contour>
      <contour>
        <pt x="229" y="799" on="1"/>
        <pt x="260" y="836" on="0"/>
        <pt x="322" y="908" on="0"/>
        <pt x="353" y="945" on="1"/>
        <pt x="374" y="967" on="0"/>
        <pt x="398" y="967" on="1"/>
        <pt x="422" y="967" on="0"/>
        <pt x="456" y="931" on="0"/>
        <pt x="456" y="906" on="1"/>
        <pt x="456" y="892" on="0"/>
        <pt x="446" y="869" on="0"/>
        <pt x="436" y="859" on="1"/>
        <pt x="416" y="845" on="0"/>
        <pt x="379" y="814" on="0"/>
        <pt x="359" y="799" on="1"/>
      </contour>
    </TTGlyph>
    <TTGlyph name="Ibreve" xMin="119" yMin="0" xMax="473" yMax="950">
      <component glyphName="I" x="0" y="0" flags="0x204"/>
      <component glyphName="uni0306.case" x="600" y="0" flags="0x4"/>
    </TTGlyph>
    <TTGlyph name="Icircumflex" xMin="97" yMin="0" xMax="506" yMax="965">
      <contour>
        <pt x="225" y="0" on="1"/>
        <pt x="225" y="739" on="1"/>
        <pt x="375" y="739" on="1"/>
        <pt x="375" y="0" on="1"/>
      </contour>
      <contour>
        <pt x="97" y="799" on="1"/>
        <pt x="250" y="944" on="1"/>
        <pt x="260" y="953" on="0"/>
        <pt x="286" y="965" on="0"/>
        <pt x="301" y="965" on="1"/>
        <pt x="330" y="965" on="0"/>
        <pt x="352" y="944" on="1"/>
        <pt x="506" y="799" on="1"/>
        <pt x="372" y="799" on="1"/>
        <pt x="301" y="866" on="1"/>
        <pt x="231" y="799" on="1"/>
      </contour>
    </TTGlyph>
    <TTGlyph name="Idieresis" xMin="128" yMin="0" xMax="476" yMax="947">
      <contour>
        <pt x="225" y="0" on="1"/>
        <pt x="225" y="739" on="1"/>
        <pt x="375" y="739" on="1"/>
        <pt x="375" y="0" on="1"/>
      </contour>
      <contour>
        <pt x="202" y="793" on="1"/>
        <pt x="172" y="793" on="0"/>
        <pt x="128" y="838" on="0"/>
        <pt x="128" y="870" on="1"/>
        <pt x="128" y="902" on="0"/>
        <pt x="172" y="947" on="0"/>
        <pt x="202" y="947" on="1"/>
        <pt x="232" y="947" on="0"/>
        <pt x="275" y="902" on="0"/>
        <pt x="275" y="870" on="1"/>
        <pt x="275" y="838" on="0"/>
        <pt x="232" y="793" on="0"/>
      </contour>
      <contour>
        <pt x="404" y="793" on="1"/>
        <pt x="374" y="793" on="0"/>
        <pt x="330" y="838" on="0"/>
        <pt x="330" y="870" on="1"/>
        <pt x="330" y="902" on="0"/>
        <pt x="374" y="947" on="0"/>
        <pt x="404" y="947" on="1"/>
        <pt x="434" y="947" on="0"/>
        <pt x="476" y="902" on="0"/>
        <pt x="476" y="870" on="1"/>
        <pt x="476" y="838" on="0"/>
        <pt x="434" y="793" on="0"/>
      </contour>
    </TTGlyph>
    <TTGlyph name="Idotaccent" xMin="212" yMin="0" xMax="379" yMax="952">
      <component glyphName="I" x="0" y="0" flags="0x204"/>
      <component glyphName="uni0307.case" x="600" y="0" flags="0x4"/>
    </TTGlyph>
    <TTGlyph name="Igrave" xMin="149" yMin="0" xMax="377" yMax="967">
      <contour>
        <pt x="225" y="0" on="1"/>
        <pt x="225" y="739" on="1"/>
        <pt x="375" y="739" on="1"/>
        <pt x="375" y="0" on="1"/>
      </contour>
      <contour>
        <pt x="247" y="799" on="1"/>
        <pt x="227" y="814" on="0"/>
        <pt x="190" y="845" on="0"/>
        <pt x="170" y="859" on="1"/>
        <pt x="160" y="870" on="0"/>
        <pt x="149" y="891" on="0"/>
        <pt x="149" y="906" on="1"/>
        <pt x="149" y="930" on="0"/>
        <pt x="185" y="967" on="0"/>
        <pt x="207" y="967" on="1"/>
        <pt x="231" y="967" on="0"/>
        <pt x="247" y="951" on="1"/>
        <pt x="377" y="799" on="1"/>
      </contour>
    </TTGlyph>
    <TTGlyph name="Imacron" xMin="146" yMin="0" xMax="457" yMax="923">
      <contour>
        <pt x="225" y="0" on="1"/>
        <pt x="225" y="739" on="1"/>
        <pt x="375" y="739" on="1"/>
        <pt x="375" y="0" on="1"/>
      </contour>
      <contour>
        <pt x="146" y="816" on="1"/>
        <pt x="146" y="923" on="1"/>
        <pt x="457" y="923" on="1"/>
        <pt x="457" y="816" on="1"/>
      </contour>
    </TTGlyph>
    <TTGlyph name="Iogonek" xMin="176" yMin="-192" xMax="406" yMax="739">
      <contour>
        <pt x="225" y="0" on="1"/>
        <pt x="225" y="739" on="1"/>
        <pt x="375" y="739" on="1"/>
        <pt x="375" y="0" on="1"/>
      </contour>
      <contour>
        <pt x="324" y="-192" on="1"/>
        <pt x="268" y="-192" on="0"/>
        <pt x="203" y="-160" on="0"/>
        <pt x="176" y="-115" on="0"/>
        <pt x="176" y="-94" on="1"/>
        <pt x="176" y="-56" on="0"/>
        <pt x="229" y="-10" on="0"/>
        <pt x="259" y="0" on="1"/>
        <pt x="406" y="0" on="1"/>
        <pt x="386" y="-2" on="0"/>
        <pt x="340" y="-24" on="0"/>
        <pt x="307" y="-57" on="0"/>
        <pt x="307" y="-75" on="1"/>
        <pt x="307" y="-95" on="0"/>
        <pt x="338" y="-108" on="0"/>
        <pt x="355" y="-108" on="1"/>
        <pt x="371" y="-108" on="0"/>
        <pt x="400" y="-99" on="0"/>
        <pt x="406" y="-98" on="1"/>
        <pt x="406" y="-181" on="1"/>
        <pt x="395" y="-186" on="0"/>
        <pt x="344" y="-192" on="0"/>
      </contour>
    </TTGlyph>
    <TTGlyph name="Iota" xMin="225" yMin="0" xMax="375" yMax="739">
      <component glyphName="I" x="0" y="0" flags="0x204"/>
    </TTGlyph>
    <TTGlyph name="Iotadieresis" xMin="102" yMin="0" xMax="489" yMax="953">
      <component glyphName="uni0308.case" x="600" y="0" flags="0x4"/>
      <component glyphName="I" x="0" y="0" flags="0x204"/>
    </TTGlyph>
    <TTGlyph name="Iotatonos" xMin="-134" yMin="0" xMax="375" yMax="739">
      <component glyphName="tonos.case" x="-346" y="0" flags="0x4"/>
      <component glyphName="I" x="0" y="0" flags="0x204"/>
    </TTGlyph>
    <TTGlyph name="Itilde" xMin="121" yMin="0" xMax="470" yMax="954">
      <component glyphName="I" x="0" y="0" flags="0x204"/>
      <component glyphName="tildecomb.case" x="600" y="0" flags="0x4"/>
    </TTGlyph>
    <TTGlyph name="J" xMin="35" yMin="-13" xMax="566" yMax="739">
      <contour>
        <pt x="295" y="-13" on="1"/>
        <pt x="186" y="-13" on="0"/>
        <pt x="57" y="99" on="0"/>
        <pt x="35" y="193" on="1"/>
        <pt x="186" y="252" on="1"/>
        <pt x="192" y="222" on="0"/>
        <pt x="218" y="163" on="0"/>
        <pt x="263" y="124" on="0"/>
        <pt x="295" y="124" on="1"/>
        <pt x="347" y="124" on="0"/>
        <pt x="402" y="194" on="0"/>
        <pt x="402" y="283" on="1"/>
        <pt x="402" y="739" on="1"/>
        <pt x="566" y="739" on="1"/>
        <pt x="566" y="283" on="1"/>
        <pt x="566" y="145" on="0"/>
        <pt x="428" y="-13" on="0"/>
      </contour>
    </TTGlyph>
    <TTGlyph name="Jcircumflex" xMin="35" yMin="-13" xMax="566" yMax="950">
      <component glyphName="J" x="0" y="0" flags="0x204"/>
      <component glyphName="uni0302.case" x="660" y="0" flags="0x4"/>
    </TTGlyph>
    <TTGlyph name="K" xMin="21" yMin="0" xMax="579" yMax="739">
      <contour>
        <pt x="21" y="0" on="1"/>
        <pt x="21" y="739" on="1"/>
        <pt x="167" y="739" on="1"/>
        <pt x="167" y="445" on="1"/>
        <pt x="388" y="739" on="1"/>
        <pt x="566" y="739" on="1"/>
        <pt x="324" y="422" on="1"/>
        <pt x="579" y="0" on="1"/>
        <pt x="410" y="0" on="1"/>
        <pt x="229" y="301" on="1"/>
        <pt x="167" y="218" on="1"/>
        <pt x="167" y="0" on="1"/>
      </contour>
    </TTGlyph>
    <TTGlyph name="Kappa" xMin="21" yMin="0" xMax="579" yMax="739">
      <component glyphName="K" x="0" y="0" flags="0x204"/>
    </TTGlyph>
    <TTGlyph name="L" xMin="51" yMin="0" xMax="549" yMax="739">
      <contour>
        <pt x="51" y="0" on="1"/>
        <pt x="51" y="739" on="1"/>
        <pt x="216" y="739" on="1"/>
        <pt x="216" y="154" on="1"/>
        <pt x="549" y="154" on="1"/>
        <pt x="549" y="0" on="1"/>
      </contour>
    </TTGlyph>
    <TTGlyph name="Lacute" xMin="51" yMin="0" xMax="549" yMax="950">
      <component glyphName="L" x="0" y="0" flags="0x204"/>
      <component glyphName="acutecomb.case" x="494" y="0" flags="0x4"/>
    </TTGlyph>
    <TTGlyph name="Lambda" xMin="24" yMin="0" xMax="576" yMax="739">
      <contour>
        <pt x="24" y="0" on="1"/>
        <pt x="216" y="739" on="1"/>
        <pt x="383" y="739" on="1"/>
        <pt x="576" y="0" on="1"/>
        <pt x="442" y="0" on="1"/>
        <pt x="329" y="481" on="1"/>
        <pt x="321" y="517" on="0"/>
        <pt x="307" y="584" on="0"/>
        <pt x="299" y="626" on="0"/>
        <pt x="299" y="626" on="1"/>
        <pt x="299" y="626" on="0"/>
        <pt x="291" y="584" on="0"/>
        <pt x="277" y="517" on="0"/>
        <pt x="269" y="482" on="1"/>
        <pt x="156" y="0" on="1"/>
      </contour>
    </TTGlyph>
    <TTGlyph name="Lcaron" xMin="51" yMin="0" xMax="549" yMax="765">
      <contour>
        <pt x="51" y="0" on="1"/>
        <pt x="51" y="739" on="1"/>
        <pt x="216" y="739" on="1"/>
        <pt x="216" y="154" on="1"/>
        <pt x="549" y="154" on="1"/>
        <pt x="549" y="0" on="1"/>
      </contour>
      <contour>
        <pt x="346" y="553" on="1"/>
        <pt x="352" y="593" on="0"/>
        <pt x="364" y="674" on="0"/>
        <pt x="371" y="713" on="1"/>
        <pt x="375" y="739" on="0"/>
        <pt x="411" y="765" on="0"/>
        <pt x="429" y="765" on="1"/>
        <pt x="456" y="765" on="0"/>
        <pt x="486" y="725" on="0"/>
        <pt x="486" y="702" on="1"/>
        <pt x="486" y="692" on="0"/>
        <pt x="483" y="683" on="1"/>
        <pt x="429" y="553" on="1"/>
      </contour>
    </TTGlyph>
    <TTGlyph name="Ldot" xMin="51" yMin="0" xMax="556" yMax="739">
      <component glyphName="L" x="0" y="0" flags="0x204"/>
      <component glyphName="period" x="159" y="275" flags="0x4"/>
    </TTGlyph>
    <TTGlyph name="Lslash" xMin="21" yMin="0" xMax="579" yMax="739">
      <contour>
        <pt x="101" y="0" on="1"/>
        <pt x="101" y="250" on="1"/>
        <pt x="21" y="197" on="1"/>
        <pt x="21" y="332" on="1"/>
        <pt x="101" y="384" on="1"/>
        <pt x="101" y="739" on="1"/>
        <pt x="259" y="739" on="1"/>
        <pt x="259" y="488" on="1"/>
        <pt x="419" y="595" on="1"/>
        <pt x="419" y="460" on="1"/>
        <pt x="259" y="355" on="1"/>
        <pt x="259" y="154" on="1"/>
        <pt x="579" y="154" on="1"/>
        <pt x="579" y="0" on="1"/>
      </contour>
    </TTGlyph>
    <TTGlyph name="M" xMin="29" yMin="0" xMax="571" yMax="739">
      <contour>
        <pt x="29" y="0" on="1"/>
        <pt x="29" y="739" on="1"/>
        <pt x="199" y="739" on="1"/>
        <pt x="299" y="209" on="1"/>
        <pt x="401" y="739" on="1"/>
        <pt x="571" y="739" on="1"/>
        <pt x="571" y="0" on="1"/>
        <pt x="461" y="0" on="1"/>
        <pt x="461" y="581" on="1"/>
        <pt x="345" y="0" on="1"/>
        <pt x="253" y="0" on="1"/>
        <pt x="139" y="581" on="1"/>
        <pt x="139" y="0" on="1"/>
      </contour>
    </TTGlyph>
    <TTGlyph name="Mu" xMin="29" yMin="0" xMax="571" yMax="739">
      <component glyphName="M" x="0" y="0" flags="0x204"/>
    </TTGlyph>
    <TTGlyph name="N" xMin="21" yMin="0" xMax="579" yMax="739">
      <contour>
        <pt x="21" y="0" on="1"/>
        <pt x="21" y="739" on="1"/>
        <pt x="204" y="739" on="1"/>
        <pt x="439" y="213" on="1"/>
        <pt x="439" y="739" on="1"/>
        <pt x="579" y="739" on="1"/>
        <pt x="579" y="0" on="1"/>
        <pt x="395" y="0" on="1"/>
        <pt x="160" y="526" on="1"/>
        <pt x="160" y="0" on="1"/>
      </contour>
    </TTGlyph>
    <TTGlyph name="Nacute" xMin="21" yMin="0" xMax="579" yMax="967">
      <contour>
        <pt x="21" y="0" on="1"/>
        <pt x="21" y="730" on="1"/>
        <pt x="204" y="730" on="1"/>
        <pt x="439" y="210" on="1"/>
        <pt x="439" y="730" on="1"/>
        <pt x="579" y="730" on="1"/>
        <pt x="579" y="0" on="1"/>
        <pt x="395" y="0" on="1"/>
        <pt x="160" y="520" on="1"/>
        <pt x="160" y="0" on="1"/>
      </contour>
      <contour>
        <pt x="250" y="799" on="1"/>
        <pt x="277" y="836" on="0"/>
        <pt x="331" y="908" on="0"/>
        <pt x="358" y="945" on="1"/>
        <pt x="377" y="967" on="0"/>
        <pt x="398" y="967" on="1"/>
        <pt x="419" y="967" on="0"/>
        <pt x="449" y="931" on="0"/>
        <pt x="449" y="906" on="1"/>
        <pt x="449" y="892" on="0"/>
        <pt x="439" y="869" on="0"/>
        <pt x="431" y="859" on="1"/>
        <pt x="413" y="845" on="0"/>
        <pt x="381" y="814" on="0"/>
        <pt x="363" y="799" on="1"/>
      </contour>
    </TTGlyph>
    <TTGlyph name="Ncaron" xMin="21" yMin="0" xMax="579" yMax="958">
      <contour>
        <pt x="21" y="0" on="1"/>
        <pt x="21" y="730" on="1"/>
        <pt x="204" y="730" on="1"/>
        <pt x="439" y="210" on="1"/>
        <pt x="439" y="730" on="1"/>
        <pt x="579" y="730" on="1"/>
        <pt x="579" y="0" on="1"/>
        <pt x="395" y="0" on="1"/>
        <pt x="160" y="520" on="1"/>
        <pt x="160" y="0" on="1"/>
      </contour>
      <contour>
        <pt x="314" y="792" on="1"/>
        <pt x="288" y="792" on="0"/>
        <pt x="268" y="813" on="1"/>
        <pt x="135" y="958" on="1"/>
        <pt x="252" y="958" on="1"/>
        <pt x="314" y="892" on="1"/>
        <pt x="376" y="958" on="1"/>
        <pt x="492" y="958" on="1"/>
        <pt x="359" y="813" on="1"/>
        <pt x="340" y="792" on="0"/>
      </contour>
    </TTGlyph>
    <TTGlyph name="Ntilde" xMin="21" yMin="0" xMax="579" yMax="928">
      <contour>
        <pt x="21" y="0" on="1"/>
        <pt x="21" y="730" on="1"/>
        <pt x="204" y="730" on="1"/>
        <pt x="439" y="210" on="1"/>
        <pt x="439" y="730" on="1"/>
        <pt x="579" y="730" on="1"/>
        <pt x="579" y="0" on="1"/>
        <pt x="395" y="0" on="1"/>
        <pt x="160" y="520" on="1"/>
        <pt x="160" y="0" on="1"/>
      </contour>
      <contour>
        <pt x="380" y="797" on="1"/>
        <pt x="345" y="797" on="0"/>
        <pt x="316" y="814" on="1"/>
        <pt x="298" y="825" on="0"/>
        <pt x="278" y="838" on="0"/>
        <pt x="266" y="838" on="1"/>
        <pt x="251" y="838" on="0"/>
        <pt x="229" y="820" on="0"/>
        <pt x="226" y="802" on="1"/>
        <pt x="145" y="802" on="1"/>
        <pt x="153" y="862" on="0"/>
        <pt x="211" y="928" on="0"/>
        <pt x="259" y="928" on="1"/>
        <pt x="289" y="928" on="0"/>
        <pt x="324" y="906" on="0"/>
        <pt x="354" y="883" on="0"/>
        <pt x="372" y="883" on="1"/>
        <pt x="384" y="883" on="0"/>
        <pt x="402" y="895" on="0"/>
        <pt x="411" y="906" on="1"/>
        <pt x="428" y="928" on="0"/>
        <pt x="444" y="928" on="1"/>
        <pt x="461" y="928" on="0"/>
        <pt x="482" y="903" on="0"/>
        <pt x="482" y="884" on="1"/>
        <pt x="482" y="863" on="0"/>
        <pt x="452" y="823" on="0"/>
        <pt x="406" y="797" on="0"/>
      </contour>
    </TTGlyph>
    <TTGlyph name="Nu" xMin="21" yMin="0" xMax="579" yMax="739">
      <component glyphName="N" x="0" y="0" flags="0x204"/>
    </TTGlyph>
    <TTGlyph name="O" xMin="21" yMin="-13" xMax="579" yMax="752">
      <contour>
        <pt x="299" y="-13" on="1"/>
        <pt x="217" y="-13" on="0"/>
        <pt x="92" y="82" on="0"/>
        <pt x="21" y="254" on="0"/>
        <pt x="21" y="369" on="1"/>
        <pt x="21" y="485" on="0"/>
        <pt x="92" y="657" on="0"/>
        <pt x="217" y="752" on="0"/>
        <pt x="299" y="752" on="1"/>
        <pt x="382" y="752" on="0"/>
        <pt x="507" y="657" on="0"/>
        <pt x="579" y="485" on="0"/>
        <pt x="579" y="369" on="1"/>
        <pt x="579" y="254" on="0"/>
        <pt x="507" y="82" on="0"/>
        <pt x="382" y="-13" on="0"/>
      </contour>
      <contour>
        <pt x="299" y="131" on="1"/>
        <pt x="338" y="131" on="0"/>
        <pt x="404" y="184" on="0"/>
        <pt x="444" y="290" on="0"/>
        <pt x="444" y="369" on="1"/>
        <pt x="444" y="448" on="0"/>
        <pt x="404" y="555" on="0"/>
        <pt x="338" y="608" on="0"/>
        <pt x="299" y="608" on="1"/>
        <pt x="260" y="608" on="0"/>
        <pt x="195" y="555" on="0"/>
        <pt x="155" y="448" on="0"/>
        <pt x="155" y="369" on="1"/>
        <pt x="155" y="290" on="0"/>
        <pt x="195" y="184" on="0"/>
        <pt x="260" y="131" on="0"/>
      </contour>
    </TTGlyph>
    <TTGlyph name="OE" xMin="21" yMin="-13" xMax="579" yMax="752">
      <contour>
        <pt x="214" y="-13" on="1"/>
        <pt x="156" y="-13" on="0"/>
        <pt x="70" y="82" on="0"/>
        <pt x="21" y="253" on="0"/>
        <pt x="21" y="369" on="1"/>
        <pt x="21" y="485" on="0"/>
        <pt x="70" y="657" on="0"/>
        <pt x="156" y="752" on="0"/>
        <pt x="214" y="752" on="1"/>
        <pt x="270" y="752" on="0"/>
        <pt x="314" y="704" on="1"/>
        <pt x="314" y="739" on="1"/>
        <pt x="579" y="739" on="1"/>
        <pt x="579" y="584" on="1"/>
        <pt x="381" y="584" on="1"/>
        <pt x="381" y="456" on="1"/>
        <pt x="502" y="456" on="1"/>
        <pt x="502" y="305" on="1"/>
        <pt x="381" y="305" on="1"/>
        <pt x="381" y="154" on="1"/>
        <pt x="579" y="154" on="1"/>
        <pt x="579" y="0" on="1"/>
        <pt x="314" y="0" on="1"/>
        <pt x="314" y="34" on="1"/>
        <pt x="270" y="-13" on="0"/>
      </contour>
      <contour>
        <pt x="214" y="131" on="1"/>
        <pt x="241" y="131" on="0"/>
        <pt x="286" y="184" on="0"/>
        <pt x="314" y="290" on="0"/>
        <pt x="314" y="369" on="1"/>
        <pt x="314" y="448" on="0"/>
        <pt x="286" y="555" on="0"/>
        <pt x="241" y="607" on="0"/>
        <pt x="214" y="607" on="1"/>
        <pt x="187" y="607" on="0"/>
        <pt x="141" y="555" on="0"/>
        <pt x="114" y="448" on="0"/>
        <pt x="114" y="369" on="1"/>
        <pt x="114" y="290" on="0"/>
        <pt x="141" y="184" on="0"/>
        <pt x="187" y="131" on="0"/>
      </contour>
    </TTGlyph>
    <TTGlyph name="Oacute" xMin="21" yMin="-13" xMax="579" yMax="967">
      <contour>
        <pt x="299" y="-13" on="1"/>
        <pt x="217" y="-13" on="0"/>
        <pt x="92" y="81" on="0"/>
        <pt x="21" y="251" on="0"/>
        <pt x="21" y="365" on="1"/>
        <pt x="21" y="479" on="0"/>
        <pt x="92" y="649" on="0"/>
        <pt x="217" y="743" on="0"/>
        <pt x="299" y="743" on="1"/>
        <pt x="382" y="743" on="0"/>
        <pt x="507" y="649" on="0"/>
        <pt x="579" y="479" on="0"/>
        <pt x="579" y="365" on="1"/>
        <pt x="579" y="251" on="0"/>
        <pt x="507" y="81" on="0"/>
        <pt x="382" y="-13" on="0"/>
      </contour>
      <contour>
        <pt x="299" y="129" on="1"/>
        <pt x="338" y="129" on="0"/>
        <pt x="404" y="182" on="0"/>
        <pt x="444" y="287" on="0"/>
        <pt x="444" y="365" on="1"/>
        <pt x="444" y="443" on="0"/>
        <pt x="404" y="548" on="0"/>
        <pt x="338" y="601" on="0"/>
        <pt x="299" y="601" on="1"/>
        <pt x="260" y="601" on="0"/>
        <pt x="195" y="548" on="0"/>
        <pt x="155" y="443" on="0"/>
        <pt x="155" y="365" on="1"/>
        <pt x="155" y="287" on="0"/>
        <pt x="195" y="182" on="0"/>
        <pt x="260" y="129" on="0"/>
      </contour>
      <contour>
        <pt x="244" y="799" on="1"/>
        <pt x="268" y="836" on="0"/>
        <pt x="316" y="908" on="0"/>
        <pt x="340" y="945" on="1"/>
        <pt x="355" y="967" on="0"/>
        <pt x="374" y="967" on="1"/>
        <pt x="393" y="967" on="0"/>
        <pt x="419" y="931" on="0"/>
        <pt x="419" y="906" on="1"/>
        <pt x="419" y="892" on="0"/>
        <pt x="411" y="869" on="0"/>
        <pt x="404" y="859" on="1"/>
        <pt x="388" y="845" on="0"/>
        <pt x="359" y="814" on="0"/>
        <pt x="344" y="799" on="1"/>
      </contour>
    </TTGlyph>
    <TTGlyph name="Obreve" xMin="21" yMin="-13" xMax="579" yMax="950">
      <component glyphName="O" x="0" y="0" flags="0x204"/>
      <component glyphName="uni0306.case" x="600" y="0" flags="0x4"/>
    </TTGlyph>
    <TTGlyph name="Ocircumflex" xMin="21" yMin="-13" xMax="579" yMax="965">
      <contour>
        <pt x="299" y="-13" on="1"/>
        <pt x="217" y="-13" on="0"/>
        <pt x="92" y="81" on="0"/>
        <pt x="21" y="251" on="0"/>
        <pt x="21" y="365" on="1"/>
        <pt x="21" y="479" on="0"/>
        <pt x="92" y="649" on="0"/>
        <pt x="217" y="743" on="0"/>
        <pt x="299" y="743" on="1"/>
        <pt x="382" y="743" on="0"/>
        <pt x="507" y="649" on="0"/>
        <pt x="579" y="479" on="0"/>
        <pt x="579" y="365" on="1"/>
        <pt x="579" y="251" on="0"/>
        <pt x="507" y="81" on="0"/>
        <pt x="382" y="-13" on="0"/>
      </contour>
      <contour>
        <pt x="299" y="129" on="1"/>
        <pt x="338" y="129" on="0"/>
        <pt x="404" y="182" on="0"/>
        <pt x="444" y="287" on="0"/>
        <pt x="444" y="365" on="1"/>
        <pt x="444" y="443" on="0"/>
        <pt x="404" y="548" on="0"/>
        <pt x="338" y="601" on="0"/>
        <pt x="299" y="601" on="1"/>
        <pt x="260" y="601" on="0"/>
        <pt x="195" y="548" on="0"/>
        <pt x="155" y="443" on="0"/>
        <pt x="155" y="365" on="1"/>
        <pt x="155" y="287" on="0"/>
        <pt x="195" y="182" on="0"/>
        <pt x="260" y="129" on="0"/>
      </contour>
      <contour>
        <pt x="142" y="799" on="1"/>
        <pt x="259" y="944" on="1"/>
        <pt x="268" y="953" on="0"/>
        <pt x="288" y="965" on="0"/>
        <pt x="299" y="965" on="1"/>
        <pt x="322" y="965" on="0"/>
        <pt x="338" y="944" on="1"/>
        <pt x="457" y="799" on="1"/>
        <pt x="354" y="799" on="1"/>
        <pt x="299" y="866" on="1"/>
        <pt x="245" y="799" on="1"/>
      </contour>
    </TTGlyph>
    <TTGlyph name="Odieresis" xMin="21" yMin="-13" xMax="579" yMax="947">
      <contour>
        <pt x="299" y="-13" on="1"/>
        <pt x="217" y="-13" on="0"/>
        <pt x="92" y="81" on="0"/>
        <pt x="21" y="251" on="0"/>
        <pt x="21" y="365" on="1"/>
        <pt x="21" y="479" on="0"/>
        <pt x="92" y="649" on="0"/>
        <pt x="217" y="743" on="0"/>
        <pt x="299" y="743" on="1"/>
        <pt x="382" y="743" on="0"/>
        <pt x="507" y="649" on="0"/>
        <pt x="579" y="479" on="0"/>
        <pt x="579" y="365" on="1"/>
        <pt x="579" y="251" on="0"/>
        <pt x="507" y="81" on="0"/>
        <pt x="382" y="-13" on="0"/>
      </contour>
      <contour>
        <pt x="299" y="129" on="1"/>
        <pt x="338" y="129" on="0"/>
        <pt x="404" y="182" on="0"/>
        <pt x="444" y="287" on="0"/>
        <pt x="444" y="365" on="1"/>
        <pt x="444" y="443" on="0"/>
        <pt x="404" y="548" on="0"/>
        <pt x="338" y="601" on="0"/>
        <pt x="299" y="601" on="1"/>
        <pt x="260" y="601" on="0"/>
        <pt x="195" y="548" on="0"/>
        <pt x="155" y="443" on="0"/>
        <pt x="155" y="365" on="1"/>
        <pt x="155" y="287" on="0"/>
        <pt x="195" y="182" on="0"/>
        <pt x="260" y="129" on="0"/>
      </contour>
      <contour>
        <pt x="223" y="793" on="1"/>
        <pt x="199" y="793" on="0"/>
        <pt x="166" y="838" on="0"/>
        <pt x="166" y="870" on="1"/>
        <pt x="166" y="902" on="0"/>
        <pt x="199" y="947" on="0"/>
        <pt x="223" y="947" on="1"/>
        <pt x="246" y="947" on="0"/>
        <pt x="279" y="902" on="0"/>
        <pt x="279" y="870" on="1"/>
        <pt x="279" y="838" on="0"/>
        <pt x="246" y="793" on="0"/>
      </contour>
      <contour>
        <pt x="379" y="793" on="1"/>
        <pt x="355" y="793" on="0"/>
        <pt x="322" y="838" on="0"/>
        <pt x="322" y="870" on="1"/>
        <pt x="322" y="902" on="0"/>
        <pt x="355" y="947" on="0"/>
        <pt x="379" y="947" on="1"/>
        <pt x="402" y="947" on="0"/>
        <pt x="434" y="902" on="0"/>
        <pt x="434" y="870" on="1"/>
        <pt x="434" y="838" on="0"/>
        <pt x="402" y="793" on="0"/>
      </contour>
    </TTGlyph>
    <TTGlyph name="Ograve" xMin="21" yMin="-13" xMax="579" yMax="967">
      <contour>
        <pt x="299" y="-13" on="1"/>
        <pt x="217" y="-13" on="0"/>
        <pt x="92" y="81" on="0"/>
        <pt x="21" y="251" on="0"/>
        <pt x="21" y="365" on="1"/>
        <pt x="21" y="479" on="0"/>
        <pt x="92" y="649" on="0"/>
        <pt x="217" y="743" on="0"/>
        <pt x="299" y="743" on="1"/>
        <pt x="382" y="743" on="0"/>
        <pt x="507" y="649" on="0"/>
        <pt x="579" y="479" on="0"/>
        <pt x="579" y="365" on="1"/>
        <pt x="579" y="251" on="0"/>
        <pt x="507" y="81" on="0"/>
        <pt x="382" y="-13" on="0"/>
      </contour>
      <contour>
        <pt x="299" y="129" on="1"/>
        <pt x="338" y="129" on="0"/>
        <pt x="404" y="182" on="0"/>
        <pt x="444" y="287" on="0"/>
        <pt x="444" y="365" on="1"/>
        <pt x="444" y="443" on="0"/>
        <pt x="404" y="548" on="0"/>
        <pt x="338" y="601" on="0"/>
        <pt x="299" y="601" on="1"/>
        <pt x="260" y="601" on="0"/>
        <pt x="195" y="548" on="0"/>
        <pt x="155" y="443" on="0"/>
        <pt x="155" y="365" on="1"/>
        <pt x="155" y="287" on="0"/>
        <pt x="195" y="182" on="0"/>
        <pt x="260" y="129" on="0"/>
      </contour>
      <contour>
        <pt x="257" y="799" on="1"/>
        <pt x="242" y="814" on="0"/>
        <pt x="214" y="845" on="0"/>
        <pt x="198" y="859" on="1"/>
        <pt x="190" y="870" on="0"/>
        <pt x="181" y="891" on="0"/>
        <pt x="181" y="906" on="1"/>
        <pt x="181" y="930" on="0"/>
        <pt x="210" y="967" on="0"/>
        <pt x="227" y="967" on="1"/>
        <pt x="245" y="967" on="0"/>
        <pt x="257" y="951" on="1"/>
        <pt x="358" y="799" on="1"/>
      </contour>
    </TTGlyph>
    <TTGlyph name="Ohorn" xMin="21" yMin="-13" xMax="606" yMax="810">
      <component glyphName="O" x="0" y="0" flags="0x204"/>
      <component glyphName="uni031B" x="673" y="150" flags="0x4"/>
    </TTGlyph>
    <TTGlyph name="Ohungarumlaut" xMin="21" yMin="-13" xMax="579" yMax="982">
      <contour>
        <pt x="299" y="-13" on="1"/>
        <pt x="217" y="-13" on="0"/>
        <pt x="92" y="81" on="0"/>
        <pt x="21" y="251" on="0"/>
        <pt x="21" y="365" on="1"/>
        <pt x="21" y="479" on="0"/>
        <pt x="92" y="649" on="0"/>
        <pt x="217" y="743" on="0"/>
        <pt x="299" y="743" on="1"/>
        <pt x="382" y="743" on="0"/>
        <pt x="507" y="649" on="0"/>
        <pt x="579" y="479" on="0"/>
        <pt x="579" y="365" on="1"/>
        <pt x="579" y="251" on="0"/>
        <pt x="507" y="81" on="0"/>
        <pt x="382" y="-13" on="0"/>
      </contour>
      <contour>
        <pt x="299" y="129" on="1"/>
        <pt x="338" y="129" on="0"/>
        <pt x="404" y="182" on="0"/>
        <pt x="444" y="287" on="0"/>
        <pt x="444" y="365" on="1"/>
        <pt x="444" y="443" on="0"/>
        <pt x="404" y="548" on="0"/>
        <pt x="338" y="601" on="0"/>
        <pt x="299" y="601" on="1"/>
        <pt x="260" y="601" on="0"/>
        <pt x="195" y="548" on="0"/>
        <pt x="155" y="443" on="0"/>
        <pt x="155" y="365" on="1"/>
        <pt x="155" y="287" on="0"/>
        <pt x="195" y="182" on="0"/>
        <pt x="260" y="129" on="0"/>
      </contour>
      <contour>
        <pt x="159" y="815" on="1"/>
        <pt x="246" y="961" on="1"/>
        <pt x="259" y="982" on="0"/>
        <pt x="280" y="982" on="1"/>
        <pt x="300" y="982" on="0"/>
        <pt x="326" y="947" on="0"/>
        <pt x="326" y="921" on="1"/>
        <pt x="326" y="907" on="0"/>
        <pt x="319" y="883" on="0"/>
        <pt x="310" y="875" on="1"/>
        <pt x="250" y="815" on="1"/>
      </contour>
      <contour>
        <pt x="322" y="815" on="1"/>
        <pt x="409" y="961" on="1"/>
        <pt x="423" y="982" on="0"/>
        <pt x="444" y="982" on="1"/>
        <pt x="463" y="982" on="0"/>
        <pt x="488" y="947" on="0"/>
        <pt x="488" y="921" on="1"/>
        <pt x="488" y="907" on="0"/>
        <pt x="482" y="883" on="0"/>
        <pt x="474" y="875" on="1"/>
        <pt x="413" y="815" on="1"/>
      </contour>
    </TTGlyph>
    <TTGlyph name="Omacron" xMin="21" yMin="-13" xMax="579" yMax="924">
      <component glyphName="O" x="0" y="0" flags="0x204"/>
      <component glyphName="uni0304.case" x="600" y="0" flags="0x4"/>
    </TTGlyph>
    <TTGlyph name="Omegatonos" xMin="-102" yMin="0" xMax="561" yMax="749">
      <component glyphName="uni03A9" x="0" y="0" flags="0x204"/>
      <component glyphName="tonos.case" x="-314" y="0" flags="0x4"/>
    </TTGlyph>
    <TTGlyph name="Omicron" xMin="21" yMin="-13" xMax="579" yMax="752">
      <component glyphName="O" x="0" y="0" flags="0x204"/>
    </TTGlyph>
    <TTGlyph name="Omicrontonos" xMin="-102" yMin="-13" xMax="579" yMax="752">
      <component glyphName="tonos.case" x="-314" y="0" flags="0x4"/>
      <component glyphName="O" x="0" y="0" flags="0x204"/>
    </TTGlyph>
    <TTGlyph name="Oslash" xMin="21" yMin="-13" xMax="579" yMax="751">
      <contour>
        <pt x="299" y="-13" on="1"/>
        <pt x="252" y="-13" on="0"/>
        <pt x="169" y="20" on="0"/>
        <pt x="135" y="51" on="1"/>
        <pt x="94" y="-13" on="1"/>
        <pt x="49" y="39" on="1"/>
        <pt x="90" y="105" on="1"/>
        <pt x="58" y="154" on="0"/>
        <pt x="21" y="288" on="0"/>
        <pt x="21" y="369" on="1"/>
        <pt x="21" y="485" on="0"/>
        <pt x="92" y="656" on="0"/>
        <pt x="217" y="751" on="0"/>
        <pt x="299" y="751" on="1"/>
        <pt x="345" y="751" on="0"/>
        <pt x="425" y="722" on="0"/>
        <pt x="458" y="692" on="1"/>
        <pt x="494" y="751" on="1"/>
        <pt x="539" y="698" on="1"/>
        <pt x="504" y="641" on="1"/>
        <pt x="539" y="591" on="0"/>
        <pt x="579" y="452" on="0"/>
        <pt x="579" y="369" on="1"/>
        <pt x="579" y="254" on="0"/>
        <pt x="507" y="82" on="0"/>
        <pt x="382" y="-13" on="0"/>
      </contour>
      <contour>
        <pt x="175" y="240" on="1"/>
        <pt x="382" y="571" on="1"/>
        <pt x="347" y="607" on="0"/>
        <pt x="299" y="607" on="1"/>
        <pt x="260" y="607" on="0"/>
        <pt x="195" y="553" on="0"/>
        <pt x="155" y="448" on="0"/>
        <pt x="155" y="369" on="1"/>
        <pt x="155" y="332" on="0"/>
        <pt x="166" y="266" on="0"/>
      </contour>
      <contour>
        <pt x="299" y="131" on="1"/>
        <pt x="338" y="131" on="0"/>
        <pt x="404" y="184" on="0"/>
        <pt x="444" y="290" on="0"/>
        <pt x="444" y="369" on="1"/>
        <pt x="444" y="451" on="0"/>
        <pt x="421" y="508" on="1"/>
        <pt x="212" y="174" on="1"/>
        <pt x="230" y="153" on="0"/>
        <pt x="274" y="131" on="0"/>
      </contour>
    </TTGlyph>
    <TTGlyph name="Oslashacute" xMin="21" yMin="-13" xMax="579" yMax="950">
      <component glyphName="Oslash" x="0" y="0" flags="0x204"/>
      <component glyphName="acutecomb.case" x="610" y="0" flags="0x4"/>
    </TTGlyph>
    <TTGlyph name="Otilde" xMin="21" yMin="-13" xMax="579" yMax="928">
      <contour>
        <pt x="299" y="-13" on="1"/>
        <pt x="217" y="-13" on="0"/>
        <pt x="92" y="81" on="0"/>
        <pt x="21" y="251" on="0"/>
        <pt x="21" y="365" on="1"/>
        <pt x="21" y="479" on="0"/>
        <pt x="92" y="649" on="0"/>
        <pt x="217" y="743" on="0"/>
        <pt x="299" y="743" on="1"/>
        <pt x="382" y="743" on="0"/>
        <pt x="507" y="649" on="0"/>
        <pt x="579" y="479" on="0"/>
        <pt x="579" y="365" on="1"/>
        <pt x="579" y="251" on="0"/>
        <pt x="507" y="81" on="0"/>
        <pt x="382" y="-13" on="0"/>
      </contour>
      <contour>
        <pt x="299" y="129" on="1"/>
        <pt x="338" y="129" on="0"/>
        <pt x="404" y="182" on="0"/>
        <pt x="444" y="287" on="0"/>
        <pt x="444" y="365" on="1"/>
        <pt x="444" y="443" on="0"/>
        <pt x="404" y="548" on="0"/>
        <pt x="338" y="601" on="0"/>
        <pt x="299" y="601" on="1"/>
        <pt x="260" y="601" on="0"/>
        <pt x="195" y="548" on="0"/>
        <pt x="155" y="443" on="0"/>
        <pt x="155" y="365" on="1"/>
        <pt x="155" y="287" on="0"/>
        <pt x="195" y="182" on="0"/>
        <pt x="260" y="129" on="0"/>
      </contour>
      <contour>
        <pt x="358" y="797" on="1"/>
        <pt x="327" y="797" on="0"/>
        <pt x="302" y="814" on="1"/>
        <pt x="286" y="825" on="0"/>
        <pt x="269" y="838" on="0"/>
        <pt x="257" y="838" on="1"/>
        <pt x="245" y="838" on="0"/>
        <pt x="225" y="820" on="0"/>
        <pt x="223" y="802" on="1"/>
        <pt x="151" y="802" on="1"/>
        <pt x="159" y="862" on="0"/>
        <pt x="210" y="928" on="0"/>
        <pt x="252" y="928" on="1"/>
        <pt x="277" y="928" on="0"/>
        <pt x="308" y="906" on="0"/>
        <pt x="335" y="883" on="0"/>
        <pt x="351" y="883" on="1"/>
        <pt x="362" y="883" on="0"/>
        <pt x="378" y="895" on="0"/>
        <pt x="386" y="906" on="1"/>
        <pt x="401" y="928" on="0"/>
        <pt x="414" y="928" on="1"/>
        <pt x="430" y="928" on="0"/>
        <pt x="449" y="903" on="0"/>
        <pt x="449" y="884" on="1"/>
        <pt x="449" y="863" on="0"/>
        <pt x="422" y="823" on="0"/>
        <pt x="381" y="797" on="0"/>
      </contour>
    </TTGlyph>
    <TTGlyph name="P" xMin="21" yMin="0" xMax="579" yMax="739">
      <contour>
        <pt x="21" y="0" on="1"/>
        <pt x="21" y="739" on="1"/>
        <pt x="277" y="739" on="1"/>
        <pt x="363" y="739" on="0"/>
        <pt x="500" y="699" on="0"/>
        <pt x="579" y="595" on="0"/>
        <pt x="579" y="498" on="1"/>
        <pt x="579" y="402" on="0"/>
        <pt x="500" y="297" on="0"/>
        <pt x="363" y="257" on="0"/>
        <pt x="277" y="257" on="1"/>
        <pt x="178" y="257" on="1"/>
        <pt x="178" y="0" on="1"/>
      </contour>
      <contour>
        <pt x="178" y="402" on="1"/>
        <pt x="282" y="402" on="1"/>
        <pt x="319" y="402" on="0"/>
        <pt x="378" y="417" on="0"/>
        <pt x="412" y="459" on="0"/>
        <pt x="412" y="498" on="1"/>
        <pt x="412" y="536" on="0"/>
        <pt x="378" y="577" on="0"/>
        <pt x="319" y="592" on="0"/>
        <pt x="282" y="592" on="1"/>
        <pt x="178" y="592" on="1"/>
      </contour>
    </TTGlyph>
    <TTGlyph name="Phi" xMin="30" yMin="-25" xMax="570" yMax="779">
      <component glyphName="uni0424" x="0" y="0" flags="0x204"/>
    </TTGlyph>
    <TTGlyph name="Pi" xMin="69" yMin="0" xMax="531" yMax="739">
      <component glyphName="uni041F" x="0" y="0" flags="0x204"/>
    </TTGlyph>
    <TTGlyph name="Psi" xMin="30" yMin="0" xMax="570" yMax="739">
      <contour>
        <pt x="245" y="0" on="1"/>
        <pt x="245" y="172" on="1"/>
        <pt x="180" y="173" on="0"/>
        <pt x="83" y="228" on="0"/>
        <pt x="30" y="325" on="0"/>
        <pt x="30" y="389" on="1"/>
        <pt x="30" y="739" on="1"/>
        <pt x="143" y="739" on="1"/>
        <pt x="143" y="389" on="1"/>
        <pt x="143" y="336" on="0"/>
        <pt x="200" y="272" on="0"/>
        <pt x="249" y="272" on="1"/>
        <pt x="249" y="739" on="1"/>
        <pt x="351" y="739" on="1"/>
        <pt x="351" y="272" on="1"/>
        <pt x="400" y="272" on="0"/>
        <pt x="457" y="336" on="0"/>
        <pt x="457" y="389" on="1"/>
        <pt x="457" y="739" on="1"/>
        <pt x="570" y="739" on="1"/>
        <pt x="570" y="389" on="1"/>
        <pt x="570" y="325" on="0"/>
        <pt x="517" y="228" on="0"/>
        <pt x="420" y="173" on="0"/>
        <pt x="355" y="172" on="1"/>
        <pt x="355" y="0" on="1"/>
      </contour>
    </TTGlyph>
    <TTGlyph name="Q" xMin="21" yMin="-61" xMax="579" yMax="752">
      <contour>
        <pt x="516" y="-61" on="1"/>
        <pt x="435" y="53" on="1"/>
        <pt x="371" y="-13" on="0"/>
        <pt x="280" y="-13" on="1"/>
        <pt x="203" y="-13" on="0"/>
        <pt x="87" y="82" on="0"/>
        <pt x="21" y="254" on="0"/>
        <pt x="21" y="369" on="1"/>
        <pt x="21" y="485" on="0"/>
        <pt x="87" y="657" on="0"/>
        <pt x="203" y="752" on="0"/>
        <pt x="280" y="752" on="1"/>
        <pt x="357" y="752" on="0"/>
        <pt x="474" y="657" on="0"/>
        <pt x="540" y="485" on="0"/>
        <pt x="540" y="369" on="1"/>
        <pt x="540" y="306" on="0"/>
        <pt x="518" y="194" on="0"/>
        <pt x="499" y="150" on="1"/>
        <pt x="579" y="37" on="1"/>
      </contour>
      <contour>
        <pt x="280" y="131" on="1"/>
        <pt x="323" y="131" on="0"/>
        <pt x="354" y="165" on="1"/>
        <pt x="248" y="315" on="1"/>
        <pt x="309" y="412" on="1"/>
        <pt x="406" y="277" on="1"/>
        <pt x="410" y="299" on="0"/>
        <pt x="414" y="344" on="0"/>
        <pt x="414" y="369" on="1"/>
        <pt x="414" y="448" on="0"/>
        <pt x="378" y="555" on="0"/>
        <pt x="317" y="608" on="0"/>
        <pt x="280" y="608" on="1"/>
        <pt x="244" y="608" on="0"/>
        <pt x="182" y="555" on="0"/>
        <pt x="146" y="448" on="0"/>
        <pt x="146" y="369" on="1"/>
        <pt x="146" y="290" on="0"/>
        <pt x="182" y="184" on="0"/>
        <pt x="244" y="131" on="0"/>
      </contour>
    </TTGlyph>
    <TTGlyph name="R" xMin="21" yMin="0" xMax="579" yMax="739">
      <contour>
        <pt x="21" y="0" on="1"/>
        <pt x="21" y="739" on="1"/>
        <pt x="263" y="739" on="1"/>
        <pt x="345" y="739" on="0"/>
        <pt x="474" y="701" on="0"/>
        <pt x="548" y="601" on="0"/>
        <pt x="548" y="510" on="1"/>
        <pt x="548" y="468" on="0"/>
        <pt x="522" y="385" on="0"/>
        <pt x="456" y="317" on="0"/>
        <pt x="397" y="298" on="1"/>
        <pt x="579" y="0" on="1"/>
        <pt x="407" y="0" on="1"/>
        <pt x="237" y="278" on="1"/>
        <pt x="170" y="278" on="1"/>
        <pt x="170" y="0" on="1"/>
      </contour>
      <contour>
        <pt x="170" y="425" on="1"/>
        <pt x="268" y="425" on="1"/>
        <pt x="320" y="425" on="0"/>
        <pt x="390" y="456" on="0"/>
        <pt x="390" y="508" on="1"/>
        <pt x="390" y="560" on="0"/>
        <pt x="320" y="592" on="0"/>
        <pt x="268" y="592" on="1"/>
        <pt x="170" y="592" on="1"/>
      </contour>
    </TTGlyph>
    <TTGlyph name="Racute" xMin="21" yMin="0" xMax="579" yMax="967">
      <contour>
        <pt x="21" y="0" on="1"/>
        <pt x="21" y="730" on="1"/>
        <pt x="263" y="730" on="1"/>
        <pt x="345" y="730" on="0"/>
        <pt x="474" y="693" on="0"/>
        <pt x="548" y="594" on="0"/>
        <pt x="548" y="504" on="1"/>
        <pt x="548" y="462" on="0"/>
        <pt x="522" y="380" on="0"/>
        <pt x="456" y="313" on="0"/>
        <pt x="397" y="294" on="1"/>
        <pt x="579" y="0" on="1"/>
        <pt x="407" y="0" on="1"/>
        <pt x="237" y="275" on="1"/>
        <pt x="170" y="275" on="1"/>
        <pt x="170" y="0" on="1"/>
      </contour>
      <contour>
        <pt x="170" y="420" on="1"/>
        <pt x="268" y="420" on="1"/>
        <pt x="320" y="420" on="0"/>
        <pt x="390" y="451" on="0"/>
        <pt x="390" y="502" on="1"/>
        <pt x="390" y="553" on="0"/>
        <pt x="320" y="585" on="0"/>
        <pt x="268" y="585" on="1"/>
        <pt x="170" y="585" on="1"/>
      </contour>
      <contour>
        <pt x="202" y="799" on="1"/>
        <pt x="231" y="836" on="0"/>
        <pt x="286" y="908" on="0"/>
        <pt x="315" y="945" on="1"/>
        <pt x="333" y="967" on="0"/>
        <pt x="355" y="967" on="1"/>
        <pt x="377" y="967" on="0"/>
        <pt x="407" y="931" on="0"/>
        <pt x="407" y="906" on="1"/>
        <pt x="407" y="892" on="0"/>
        <pt x="398" y="869" on="0"/>
        <pt x="389" y="859" on="1"/>
        <pt x="372" y="845" on="0"/>
        <pt x="338" y="814" on="0"/>
        <pt x="320" y="799" on="1"/>
      </contour>
    </TTGlyph>
    <TTGlyph name="Rcaron" xMin="21" yMin="0" xMax="579" yMax="958">
      <contour>
        <pt x="21" y="0" on="1"/>
        <pt x="21" y="730" on="1"/>
        <pt x="263" y="730" on="1"/>
        <pt x="345" y="730" on="0"/>
        <pt x="474" y="693" on="0"/>
        <pt x="548" y="594" on="0"/>
        <pt x="548" y="504" on="1"/>
        <pt x="548" y="462" on="0"/>
        <pt x="522" y="380" on="0"/>
        <pt x="456" y="313" on="0"/>
        <pt x="397" y="294" on="1"/>
        <pt x="579" y="0" on="1"/>
        <pt x="407" y="0" on="1"/>
        <pt x="237" y="275" on="1"/>
        <pt x="170" y="275" on="1"/>
        <pt x="170" y="0" on="1"/>
      </contour>
      <contour>
        <pt x="170" y="420" on="1"/>
        <pt x="268" y="420" on="1"/>
        <pt x="320" y="420" on="0"/>
        <pt x="390" y="451" on="0"/>
        <pt x="390" y="502" on="1"/>
        <pt x="390" y="553" on="0"/>
        <pt x="320" y="585" on="0"/>
        <pt x="268" y="585" on="1"/>
        <pt x="170" y="585" on="1"/>
      </contour>
      <contour>
        <pt x="269" y="792" on="1"/>
        <pt x="242" y="792" on="0"/>
        <pt x="222" y="813" on="1"/>
        <pt x="84" y="958" on="1"/>
        <pt x="204" y="958" on="1"/>
        <pt x="269" y="892" on="1"/>
        <pt x="332" y="958" on="1"/>
        <pt x="453" y="958" on="1"/>
        <pt x="316" y="813" on="1"/>
        <pt x="295" y="792" on="0"/>
      </contour>
    </TTGlyph>
    <TTGlyph name="Rho" xMin="21" yMin="0" xMax="579" yMax="739">
      <component glyphName="P" x="0" y="0" flags="0x204"/>
    </TTGlyph>
    <TTGlyph name="S" xMin="21" yMin="-13" xMax="579" yMax="752">
      <contour>
        <pt x="303" y="-13" on="1"/>
        <pt x="197" y="-13" on="0"/>
        <pt x="51" y="85" on="0"/>
        <pt x="21" y="174" on="1"/>
        <pt x="162" y="231" on="1"/>
        <pt x="175" y="178" on="0"/>
        <pt x="251" y="128" on="0"/>
        <pt x="304" y="128" on="1"/>
        <pt x="332" y="128" on="0"/>
        <pt x="385" y="142" on="0"/>
        <pt x="421" y="176" on="0"/>
        <pt x="421" y="204" on="1"/>
        <pt x="421" y="243" on="0"/>
        <pt x="354" y="286" on="0"/>
        <pt x="301" y="298" on="1"/>
        <pt x="222" y="315" on="1"/>
        <pt x="170" y="327" on="0"/>
        <pt x="78" y="377" on="0"/>
        <pt x="24" y="460" on="0"/>
        <pt x="24" y="523" on="1"/>
        <pt x="24" y="583" on="0"/>
        <pt x="73" y="669" on="0"/>
        <pt x="154" y="725" on="0"/>
        <pt x="252" y="752" on="0"/>
        <pt x="300" y="752" on="1"/>
        <pt x="353" y="752" on="0"/>
        <pt x="452" y="719" on="0"/>
        <pt x="530" y="649" on="0"/>
        <pt x="551" y="592" on="1"/>
        <pt x="411" y="534" on="1"/>
        <pt x="398" y="572" on="0"/>
        <pt x="332" y="611" on="0"/>
        <pt x="286" y="611" on="1"/>
        <pt x="242" y="611" on="0"/>
        <pt x="182" y="575" on="0"/>
        <pt x="182" y="540" on="1"/>
        <pt x="182" y="513" on="0"/>
        <pt x="223" y="474" on="0"/>
        <pt x="256" y="466" on="1"/>
        <pt x="345" y="445" on="1"/>
        <pt x="384" y="437" on="0"/>
        <pt x="466" y="409" on="0"/>
        <pt x="536" y="364" on="0"/>
        <pt x="579" y="288" on="0"/>
        <pt x="579" y="231" on="1"/>
        <pt x="579" y="172" on="0"/>
        <pt x="531" y="81" on="0"/>
        <pt x="452" y="19" on="0"/>
        <pt x="354" y="-13" on="0"/>
      </contour>
    </TTGlyph>
    <TTGlyph name="Sacute" xMin="21" yMin="-13" xMax="579" yMax="967">
      <contour>
        <pt x="303" y="-13" on="1"/>
        <pt x="197" y="-13" on="0"/>
        <pt x="51" y="84" on="0"/>
        <pt x="21" y="172" on="1"/>
        <pt x="162" y="228" on="1"/>
        <pt x="175" y="176" on="0"/>
        <pt x="251" y="126" on="0"/>
        <pt x="304" y="126" on="1"/>
        <pt x="332" y="126" on="0"/>
        <pt x="385" y="140" on="0"/>
        <pt x="421" y="174" on="0"/>
        <pt x="421" y="202" on="1"/>
        <pt x="421" y="240" on="0"/>
        <pt x="354" y="283" on="0"/>
        <pt x="301" y="294" on="1"/>
        <pt x="222" y="311" on="1"/>
        <pt x="170" y="323" on="0"/>
        <pt x="78" y="373" on="0"/>
        <pt x="24" y="455" on="0"/>
        <pt x="24" y="517" on="1"/>
        <pt x="24" y="576" on="0"/>
        <pt x="73" y="661" on="0"/>
        <pt x="154" y="716" on="0"/>
        <pt x="252" y="743" on="0"/>
        <pt x="300" y="743" on="1"/>
        <pt x="353" y="743" on="0"/>
        <pt x="452" y="710" on="0"/>
        <pt x="530" y="641" on="0"/>
        <pt x="551" y="585" on="1"/>
        <pt x="411" y="528" on="1"/>
        <pt x="398" y="565" on="0"/>
        <pt x="332" y="604" on="0"/>
        <pt x="286" y="604" on="1"/>
        <pt x="242" y="604" on="0"/>
        <pt x="182" y="568" on="0"/>
        <pt x="182" y="534" on="1"/>
        <pt x="182" y="507" on="0"/>
        <pt x="223" y="468" on="0"/>
        <pt x="256" y="460" on="1"/>
        <pt x="345" y="440" on="1"/>
        <pt x="384" y="432" on="0"/>
        <pt x="466" y="404" on="0"/>
        <pt x="536" y="360" on="0"/>
        <pt x="579" y="285" on="0"/>
        <pt x="579" y="228" on="1"/>
        <pt x="579" y="170" on="0"/>
        <pt x="531" y="80" on="0"/>
        <pt x="452" y="19" on="0"/>
        <pt x="354" y="-13" on="0"/>
      </contour>
      <contour>
        <pt x="225" y="799" on="1"/>
        <pt x="254" y="836" on="0"/>
        <pt x="312" y="908" on="0"/>
        <pt x="342" y="945" on="1"/>
        <pt x="361" y="967" on="0"/>
        <pt x="383" y="967" on="1"/>
        <pt x="406" y="967" on="0"/>
        <pt x="438" y="931" on="0"/>
        <pt x="438" y="906" on="1"/>
        <pt x="438" y="892" on="0"/>
        <pt x="428" y="869" on="0"/>
        <pt x="420" y="859" on="1"/>
        <pt x="401" y="845" on="0"/>
        <pt x="366" y="814" on="0"/>
        <pt x="348" y="799" on="1"/>
      </contour>
    </TTGlyph>
    <TTGlyph name="Scaron" xMin="21" yMin="-13" xMax="579" yMax="958">
      <contour>
        <pt x="303" y="-13" on="1"/>
        <pt x="197" y="-13" on="0"/>
        <pt x="51" y="84" on="0"/>
        <pt x="21" y="172" on="1"/>
        <pt x="162" y="228" on="1"/>
        <pt x="175" y="176" on="0"/>
        <pt x="251" y="126" on="0"/>
        <pt x="304" y="126" on="1"/>
        <pt x="332" y="126" on="0"/>
        <pt x="385" y="140" on="0"/>
        <pt x="421" y="174" on="0"/>
        <pt x="421" y="202" on="1"/>
        <pt x="421" y="240" on="0"/>
        <pt x="354" y="283" on="0"/>
        <pt x="301" y="294" on="1"/>
        <pt x="222" y="311" on="1"/>
        <pt x="170" y="323" on="0"/>
        <pt x="78" y="373" on="0"/>
        <pt x="24" y="455" on="0"/>
        <pt x="24" y="517" on="1"/>
        <pt x="24" y="576" on="0"/>
        <pt x="73" y="661" on="0"/>
        <pt x="154" y="716" on="0"/>
        <pt x="252" y="743" on="0"/>
        <pt x="300" y="743" on="1"/>
        <pt x="353" y="743" on="0"/>
        <pt x="452" y="710" on="0"/>
        <pt x="530" y="641" on="0"/>
        <pt x="551" y="585" on="1"/>
        <pt x="411" y="528" on="1"/>
        <pt x="398" y="565" on="0"/>
        <pt x="332" y="604" on="0"/>
        <pt x="286" y="604" on="1"/>
        <pt x="242" y="604" on="0"/>
        <pt x="182" y="568" on="0"/>
        <pt x="182" y="534" on="1"/>
        <pt x="182" y="507" on="0"/>
        <pt x="223" y="468" on="0"/>
        <pt x="256" y="460" on="1"/>
        <pt x="345" y="440" on="1"/>
        <pt x="384" y="432" on="0"/>
        <pt x="466" y="404" on="0"/>
        <pt x="536" y="360" on="0"/>
        <pt x="579" y="285" on="0"/>
        <pt x="579" y="228" on="1"/>
        <pt x="579" y="170" on="0"/>
        <pt x="531" y="80" on="0"/>
        <pt x="452" y="19" on="0"/>
        <pt x="354" y="-13" on="0"/>
      </contour>
      <contour>
        <pt x="294" y="792" on="1"/>
        <pt x="266" y="792" on="0"/>
        <pt x="245" y="813" on="1"/>
        <pt x="101" y="958" on="1"/>
        <pt x="227" y="958" on="1"/>
        <pt x="294" y="892" on="1"/>
        <pt x="360" y="958" on="1"/>
        <pt x="485" y="958" on="1"/>
        <pt x="343" y="813" on="1"/>
        <pt x="321" y="792" on="0"/>
      </contour>
    </TTGlyph>
    <TTGlyph name="Scedilla" xMin="21" yMin="-206" xMax="579" yMax="752">
      <contour>
        <pt x="303" y="-13" on="1"/>
        <pt x="197" y="-13" on="0"/>
        <pt x="51" y="85" on="0"/>
        <pt x="21" y="174" on="1"/>
        <pt x="162" y="231" on="1"/>
        <pt x="175" y="178" on="0"/>
        <pt x="251" y="128" on="0"/>
        <pt x="304" y="128" on="1"/>
        <pt x="332" y="128" on="0"/>
        <pt x="385" y="142" on="0"/>
        <pt x="421" y="176" on="0"/>
        <pt x="421" y="204" on="1"/>
        <pt x="421" y="243" on="0"/>
        <pt x="354" y="286" on="0"/>
        <pt x="301" y="298" on="1"/>
        <pt x="222" y="315" on="1"/>
        <pt x="170" y="327" on="0"/>
        <pt x="78" y="377" on="0"/>
        <pt x="24" y="460" on="0"/>
        <pt x="24" y="523" on="1"/>
        <pt x="24" y="583" on="0"/>
        <pt x="73" y="669" on="0"/>
        <pt x="154" y="725" on="0"/>
        <pt x="252" y="752" on="0"/>
        <pt x="300" y="752" on="1"/>
        <pt x="353" y="752" on="0"/>
        <pt x="452" y="719" on="0"/>
        <pt x="530" y="649" on="0"/>
        <pt x="551" y="592" on="1"/>
        <pt x="411" y="534" on="1"/>
        <pt x="398" y="572" on="0"/>
        <pt x="332" y="611" on="0"/>
        <pt x="286" y="611" on="1"/>
        <pt x="242" y="611" on="0"/>
        <pt x="182" y="575" on="0"/>
        <pt x="182" y="540" on="1"/>
        <pt x="182" y="513" on="0"/>
        <pt x="223" y="474" on="0"/>
        <pt x="256" y="466" on="1"/>
        <pt x="345" y="445" on="1"/>
        <pt x="384" y="437" on="0"/>
        <pt x="466" y="409" on="0"/>
        <pt x="536" y="364" on="0"/>
        <pt x="579" y="288" on="0"/>
        <pt x="579" y="231" on="1"/>
        <pt x="579" y="172" on="0"/>
        <pt x="531" y="81" on="0"/>
        <pt x="452" y="19" on="0"/>
        <pt x="354" y="-13" on="0"/>
      </contour>
      <contour>
        <pt x="299" y="-206" on="1"/>
        <pt x="275" y="-206" on="0"/>
        <pt x="231" y="-199" on="0"/>
        <pt x="213" y="-192" on="1"/>
        <pt x="228" y="-138" on="1"/>
        <pt x="237" y="-142" on="0"/>
        <pt x="270" y="-152" on="0"/>
        <pt x="288" y="-152" on="1"/>
        <pt x="305" y="-152" on="0"/>
        <pt x="331" y="-139" on="0"/>
        <pt x="331" y="-121" on="1"/>
        <pt x="331" y="-108" on="0"/>
        <pt x="311" y="-93" on="0"/>
        <pt x="295" y="-93" on="1"/>
        <pt x="283" y="-93" on="0"/>
        <pt x="268" y="-98" on="1"/>
        <pt x="259" y="-102" on="0"/>
        <pt x="252" y="-96" on="1"/>
        <pt x="245" y="-92" on="0"/>
        <pt x="240" y="-73" on="0"/>
        <pt x="244" y="-65" on="1"/>
        <pt x="295" y="27" on="1"/>
        <pt x="334" y="0" on="1"/>
        <pt x="305" y="-53" on="1"/>
        <pt x="319" y="-50" on="0"/>
        <pt x="338" y="-50" on="1"/>
        <pt x="357" y="-50" on="0"/>
        <pt x="396" y="-63" on="0"/>
        <pt x="423" y="-93" on="0"/>
        <pt x="423" y="-118" on="1"/>
        <pt x="423" y="-151" on="0"/>
        <pt x="386" y="-189" on="0"/>
        <pt x="330" y="-206" on="0"/>
      </contour>
    </TTGlyph>
    <TTGlyph name="Scircumflex" xMin="21" yMin="-13" xMax="579" yMax="950">
      <component glyphName="S" x="0" y="0" flags="0x204"/>
      <component glyphName="uni0302.case" x="600" y="0" flags="0x4"/>
    </TTGlyph>
    <TTGlyph name="Sigma" xMin="60" yMin="0" xMax="560" yMax="739">
      <contour>
        <pt x="60" y="0" on="1"/>
        <pt x="60" y="110" on="1"/>
        <pt x="273" y="376" on="1"/>
        <pt x="60" y="628" on="1"/>
        <pt x="60" y="739" on="1"/>
        <pt x="560" y="739" on="1"/>
        <pt x="560" y="625" on="1"/>
        <pt x="217" y="625" on="1"/>
        <pt x="429" y="380" on="1"/>
        <pt x="217" y="113" on="1"/>
        <pt x="560" y="113" on="1"/>
        <pt x="560" y="0" on="1"/>
      </contour>
    </TTGlyph>
    <TTGlyph name="T" xMin="21" yMin="0" xMax="579" yMax="739">
      <contour>
        <pt x="225" y="0" on="1"/>
        <pt x="225" y="585" on="1"/>
        <pt x="21" y="585" on="1"/>
        <pt x="21" y="739" on="1"/>
        <pt x="579" y="739" on="1"/>
        <pt x="579" y="585" on="1"/>
        <pt x="375" y="585" on="1"/>
        <pt x="375" y="0" on="1"/>
      </contour>
    </TTGlyph>
    <TTGlyph name="Tau" xMin="21" yMin="0" xMax="579" yMax="739">
      <component glyphName="T" x="0" y="0" flags="0x204"/>
    </TTGlyph>
    <TTGlyph name="Tbar" xMin="36" yMin="0" xMax="564" yMax="739">
      <contour>
        <pt x="234" y="0" on="1"/>
        <pt x="234" y="280" on="1"/>
        <pt x="96" y="280" on="1"/>
        <pt x="96" y="387" on="1"/>
        <pt x="234" y="387" on="1"/>
        <pt x="234" y="624" on="1"/>
        <pt x="36" y="624" on="1"/>
        <pt x="36" y="739" on="1"/>
        <pt x="564" y="739" on="1"/>
        <pt x="564" y="624" on="1"/>
        <pt x="366" y="624" on="1"/>
        <pt x="366" y="387" on="1"/>
        <pt x="504" y="387" on="1"/>
        <pt x="504" y="280" on="1"/>
        <pt x="366" y="280" on="1"/>
        <pt x="366" y="0" on="1"/>
      </contour>
    </TTGlyph>
    <TTGlyph name="Tcaron" xMin="21" yMin="0" xMax="579" yMax="958">
      <contour>
        <pt x="225" y="0" on="1"/>
        <pt x="225" y="578" on="1"/>
        <pt x="21" y="578" on="1"/>
        <pt x="21" y="730" on="1"/>
        <pt x="579" y="730" on="1"/>
        <pt x="579" y="578" on="1"/>
        <pt x="375" y="578" on="1"/>
        <pt x="375" y="0" on="1"/>
      </contour>
      <contour>
        <pt x="300" y="792" on="1"/>
        <pt x="273" y="792" on="0"/>
        <pt x="253" y="813" on="1"/>
        <pt x="114" y="958" on="1"/>
        <pt x="236" y="958" on="1"/>
        <pt x="300" y="892" on="1"/>
        <pt x="366" y="958" on="1"/>
        <pt x="486" y="958" on="1"/>
        <pt x="348" y="813" on="1"/>
        <pt x="327" y="792" on="0"/>
      </contour>
    </TTGlyph>
    <TTGlyph name="Theta" xMin="63" yMin="-10" xMax="537" yMax="749">
      <contour>
        <pt x="300" y="-10" on="1"/>
        <pt x="191" y="-10" on="0"/>
        <pt x="63" y="108" on="0"/>
        <pt x="63" y="208" on="1"/>
        <pt x="63" y="530" on="1"/>
        <pt x="63" y="630" on="0"/>
        <pt x="191" y="749" on="0"/>
        <pt x="300" y="749" on="1"/>
        <pt x="409" y="749" on="0"/>
        <pt x="537" y="630" on="0"/>
        <pt x="537" y="531" on="1"/>
        <pt x="537" y="208" on="1"/>
        <pt x="537" y="108" on="0"/>
        <pt x="409" y="-10" on="0"/>
      </contour>
      <contour>
        <pt x="300" y="101" on="1"/>
        <pt x="353" y="101" on="0"/>
        <pt x="407" y="157" on="0"/>
        <pt x="407" y="208" on="1"/>
        <pt x="407" y="530" on="1"/>
        <pt x="407" y="582" on="0"/>
        <pt x="353" y="638" on="0"/>
        <pt x="300" y="638" on="1"/>
        <pt x="247" y="638" on="0"/>
        <pt x="193" y="582" on="0"/>
        <pt x="193" y="530" on="1"/>
        <pt x="193" y="208" on="1"/>
        <pt x="193" y="157" on="0"/>
        <pt x="247" y="101" on="0"/>
      </contour>
      <contour>
        <pt x="224" y="317" on="1"/>
        <pt x="224" y="434" on="1"/>
        <pt x="375" y="434" on="1"/>
        <pt x="375" y="317" on="1"/>
      </contour>
    </TTGlyph>
    <TTGlyph name="Thorn" xMin="21" yMin="0" xMax="579" yMax="738">
      <contour>
        <pt x="21" y="0" on="1"/>
        <pt x="21" y="738" on="1"/>
        <pt x="182" y="738" on="1"/>
        <pt x="182" y="621" on="1"/>
        <pt x="272" y="621" on="1"/>
        <pt x="359" y="621" on="0"/>
        <pt x="499" y="582" on="0"/>
        <pt x="579" y="477" on="0"/>
        <pt x="579" y="380" on="1"/>
        <pt x="579" y="284" on="0"/>
        <pt x="499" y="180" on="0"/>
        <pt x="359" y="142" on="0"/>
        <pt x="272" y="142" on="1"/>
        <pt x="182" y="142" on="1"/>
        <pt x="182" y="0" on="1"/>
      </contour>
      <contour>
        <pt x="182" y="298" on="1"/>
        <pt x="277" y="298" on="1"/>
        <pt x="314" y="298" on="0"/>
        <pt x="374" y="309" on="0"/>
        <pt x="409" y="345" on="0"/>
        <pt x="409" y="383" on="1"/>
        <pt x="409" y="422" on="0"/>
        <pt x="374" y="459" on="0"/>
        <pt x="314" y="470" on="0"/>
        <pt x="277" y="470" on="1"/>
        <pt x="182" y="470" on="1"/>
      </contour>
    </TTGlyph>
    <TTGlyph name="U" xMin="21" yMin="-13" xMax="579" yMax="739">
      <contour>
        <pt x="300" y="-13" on="1"/>
        <pt x="148" y="-13" on="0"/>
        <pt x="21" y="153" on="0"/>
        <pt x="21" y="323" on="1"/>
        <pt x="21" y="739" on="1"/>
        <pt x="174" y="739" on="1"/>
        <pt x="174" y="309" on="1"/>
        <pt x="174" y="254" on="0"/>
        <pt x="193" y="174" on="0"/>
        <pt x="247" y="130" on="0"/>
        <pt x="300" y="130" on="1"/>
        <pt x="354" y="130" on="0"/>
        <pt x="407" y="174" on="0"/>
        <pt x="426" y="254" on="0"/>
        <pt x="426" y="309" on="1"/>
        <pt x="426" y="739" on="1"/>
        <pt x="579" y="739" on="1"/>
        <pt x="579" y="323" on="1"/>
        <pt x="579" y="153" on="0"/>
        <pt x="451" y="-13" on="0"/>
      </contour>
    </TTGlyph>
    <TTGlyph name="Uacute" xMin="21" yMin="-13" xMax="579" yMax="967">
      <contour>
        <pt x="300" y="-13" on="1"/>
        <pt x="148" y="-13" on="0"/>
        <pt x="21" y="151" on="0"/>
        <pt x="21" y="319" on="1"/>
        <pt x="21" y="730" on="1"/>
        <pt x="174" y="730" on="1"/>
        <pt x="174" y="305" on="1"/>
        <pt x="174" y="251" on="0"/>
        <pt x="193" y="172" on="0"/>
        <pt x="247" y="128" on="0"/>
        <pt x="300" y="128" on="1"/>
        <pt x="354" y="128" on="0"/>
        <pt x="407" y="172" on="0"/>
        <pt x="426" y="251" on="0"/>
        <pt x="426" y="305" on="1"/>
        <pt x="426" y="730" on="1"/>
        <pt x="579" y="730" on="1"/>
        <pt x="579" y="319" on="1"/>
        <pt x="579" y="151" on="0"/>
        <pt x="451" y="-13" on="0"/>
      </contour>
      <contour>
        <pt x="232" y="799" on="1"/>
        <pt x="262" y="836" on="0"/>
        <pt x="319" y="908" on="0"/>
        <pt x="348" y="945" on="1"/>
        <pt x="368" y="967" on="0"/>
        <pt x="389" y="967" on="1"/>
        <pt x="412" y="967" on="0"/>
        <pt x="444" y="931" on="0"/>
        <pt x="444" y="906" on="1"/>
        <pt x="444" y="892" on="0"/>
        <pt x="434" y="869" on="0"/>
        <pt x="426" y="859" on="1"/>
        <pt x="407" y="845" on="0"/>
        <pt x="372" y="814" on="0"/>
        <pt x="354" y="799" on="1"/>
      </contour>
    </TTGlyph>
    <TTGlyph name="Ubreve" xMin="21" yMin="-13" xMax="579" yMax="950">
      <component glyphName="U" x="0" y="0" flags="0x204"/>
      <component glyphName="uni0306.case" x="600" y="0" flags="0x4"/>
    </TTGlyph>
    <TTGlyph name="Ucircumflex" xMin="21" yMin="-13" xMax="579" yMax="965">
      <contour>
        <pt x="300" y="-13" on="1"/>
        <pt x="148" y="-13" on="0"/>
        <pt x="21" y="151" on="0"/>
        <pt x="21" y="319" on="1"/>
        <pt x="21" y="730" on="1"/>
        <pt x="174" y="730" on="1"/>
        <pt x="174" y="305" on="1"/>
        <pt x="174" y="251" on="0"/>
        <pt x="193" y="172" on="0"/>
        <pt x="247" y="128" on="0"/>
        <pt x="300" y="128" on="1"/>
        <pt x="354" y="128" on="0"/>
        <pt x="407" y="172" on="0"/>
        <pt x="426" y="251" on="0"/>
        <pt x="426" y="305" on="1"/>
        <pt x="426" y="730" on="1"/>
        <pt x="579" y="730" on="1"/>
        <pt x="579" y="319" on="1"/>
        <pt x="579" y="151" on="0"/>
        <pt x="451" y="-13" on="0"/>
      </contour>
      <contour>
        <pt x="110" y="799" on="1"/>
        <pt x="252" y="944" on="1"/>
        <pt x="262" y="953" on="0"/>
        <pt x="285" y="965" on="0"/>
        <pt x="300" y="965" on="1"/>
        <pt x="327" y="965" on="0"/>
        <pt x="347" y="944" on="1"/>
        <pt x="490" y="799" on="1"/>
        <pt x="366" y="799" on="1"/>
        <pt x="300" y="866" on="1"/>
        <pt x="234" y="799" on="1"/>
      </contour>
    </TTGlyph>
    <TTGlyph name="Udieresis" xMin="21" yMin="-13" xMax="579" yMax="947">
      <contour>
        <pt x="300" y="-13" on="1"/>
        <pt x="148" y="-13" on="0"/>
        <pt x="21" y="151" on="0"/>
        <pt x="21" y="319" on="1"/>
        <pt x="21" y="730" on="1"/>
        <pt x="174" y="730" on="1"/>
        <pt x="174" y="305" on="1"/>
        <pt x="174" y="251" on="0"/>
        <pt x="193" y="172" on="0"/>
        <pt x="247" y="128" on="0"/>
        <pt x="300" y="128" on="1"/>
        <pt x="354" y="128" on="0"/>
        <pt x="407" y="172" on="0"/>
        <pt x="426" y="251" on="0"/>
        <pt x="426" y="305" on="1"/>
        <pt x="426" y="730" on="1"/>
        <pt x="579" y="730" on="1"/>
        <pt x="579" y="319" on="1"/>
        <pt x="579" y="151" on="0"/>
        <pt x="451" y="-13" on="0"/>
      </contour>
      <contour>
        <pt x="207" y="793" on="1"/>
        <pt x="179" y="793" on="0"/>
        <pt x="139" y="838" on="0"/>
        <pt x="139" y="870" on="1"/>
        <pt x="139" y="902" on="0"/>
        <pt x="179" y="947" on="0"/>
        <pt x="207" y="947" on="1"/>
        <pt x="236" y="947" on="0"/>
        <pt x="275" y="902" on="0"/>
        <pt x="275" y="870" on="1"/>
        <pt x="275" y="838" on="0"/>
        <pt x="236" y="793" on="0"/>
      </contour>
      <contour>
        <pt x="396" y="793" on="1"/>
        <pt x="368" y="793" on="0"/>
        <pt x="327" y="838" on="0"/>
        <pt x="327" y="870" on="1"/>
        <pt x="327" y="902" on="0"/>
        <pt x="368" y="947" on="0"/>
        <pt x="396" y="947" on="1"/>
        <pt x="424" y="947" on="0"/>
        <pt x="462" y="902" on="0"/>
        <pt x="462" y="870" on="1"/>
        <pt x="462" y="838" on="0"/>
        <pt x="424" y="793" on="0"/>
      </contour>
    </TTGlyph>
    <TTGlyph name="Ugrave" xMin="21" yMin="-13" xMax="579" yMax="967">
      <contour>
        <pt x="300" y="-13" on="1"/>
        <pt x="148" y="-13" on="0"/>
        <pt x="21" y="151" on="0"/>
        <pt x="21" y="319" on="1"/>
        <pt x="21" y="730" on="1"/>
        <pt x="174" y="730" on="1"/>
        <pt x="174" y="305" on="1"/>
        <pt x="174" y="251" on="0"/>
        <pt x="193" y="172" on="0"/>
        <pt x="247" y="128" on="0"/>
        <pt x="300" y="128" on="1"/>
        <pt x="354" y="128" on="0"/>
        <pt x="407" y="172" on="0"/>
        <pt x="426" y="251" on="0"/>
        <pt x="426" y="305" on="1"/>
        <pt x="426" y="730" on="1"/>
        <pt x="579" y="730" on="1"/>
        <pt x="579" y="319" on="1"/>
        <pt x="579" y="151" on="0"/>
        <pt x="451" y="-13" on="0"/>
      </contour>
      <contour>
        <pt x="249" y="799" on="1"/>
        <pt x="230" y="814" on="0"/>
        <pt x="196" y="845" on="0"/>
        <pt x="177" y="859" on="1"/>
        <pt x="168" y="870" on="0"/>
        <pt x="158" y="891" on="0"/>
        <pt x="158" y="906" on="1"/>
        <pt x="158" y="930" on="0"/>
        <pt x="191" y="967" on="0"/>
        <pt x="213" y="967" on="1"/>
        <pt x="234" y="967" on="0"/>
        <pt x="249" y="951" on="1"/>
        <pt x="371" y="799" on="1"/>
      </contour>
    </TTGlyph>
    <TTGlyph name="Uhorn" xMin="21" yMin="-13" xMax="606" yMax="840">
      <component glyphName="U" x="0" y="0" flags="0x204"/>
      <component glyphName="uni031B" x="673" y="180" flags="0x4"/>
    </TTGlyph>
    <TTGlyph name="Uhungarumlaut" xMin="21" yMin="-13" xMax="579" yMax="982">
      <contour>
        <pt x="300" y="-13" on="1"/>
        <pt x="148" y="-13" on="0"/>
        <pt x="21" y="151" on="0"/>
        <pt x="21" y="319" on="1"/>
        <pt x="21" y="730" on="1"/>
        <pt x="174" y="730" on="1"/>
        <pt x="174" y="305" on="1"/>
        <pt x="174" y="251" on="0"/>
        <pt x="193" y="172" on="0"/>
        <pt x="247" y="128" on="0"/>
        <pt x="300" y="128" on="1"/>
        <pt x="354" y="128" on="0"/>
        <pt x="407" y="172" on="0"/>
        <pt x="426" y="251" on="0"/>
        <pt x="426" y="305" on="1"/>
        <pt x="426" y="730" on="1"/>
        <pt x="579" y="730" on="1"/>
        <pt x="579" y="319" on="1"/>
        <pt x="579" y="151" on="0"/>
        <pt x="451" y="-13" on="0"/>
      </contour>
      <contour>
        <pt x="129" y="815" on="1"/>
        <pt x="236" y="961" on="1"/>
        <pt x="252" y="982" on="0"/>
        <pt x="277" y="982" on="1"/>
        <pt x="300" y="982" on="0"/>
        <pt x="331" y="947" on="0"/>
        <pt x="331" y="921" on="1"/>
        <pt x="331" y="907" on="0"/>
        <pt x="323" y="883" on="0"/>
        <pt x="314" y="875" on="1"/>
        <pt x="241" y="815" on="1"/>
      </contour>
      <contour>
        <pt x="327" y="815" on="1"/>
        <pt x="432" y="961" on="1"/>
        <pt x="449" y="982" on="0"/>
        <pt x="474" y="982" on="1"/>
        <pt x="498" y="982" on="0"/>
        <pt x="529" y="947" on="0"/>
        <pt x="529" y="921" on="1"/>
        <pt x="529" y="907" on="0"/>
        <pt x="519" y="883" on="0"/>
        <pt x="510" y="875" on="1"/>
        <pt x="437" y="815" on="1"/>
      </contour>
    </TTGlyph>
    <TTGlyph name="Umacron" xMin="21" yMin="-13" xMax="579" yMax="923">
      <contour>
        <pt x="300" y="-13" on="1"/>
        <pt x="148" y="-13" on="0"/>
        <pt x="21" y="151" on="0"/>
        <pt x="21" y="319" on="1"/>
        <pt x="21" y="730" on="1"/>
        <pt x="174" y="730" on="1"/>
        <pt x="174" y="305" on="1"/>
        <pt x="174" y="251" on="0"/>
        <pt x="193" y="172" on="0"/>
        <pt x="247" y="128" on="0"/>
        <pt x="300" y="128" on="1"/>
        <pt x="354" y="128" on="0"/>
        <pt x="407" y="172" on="0"/>
        <pt x="426" y="251" on="0"/>
        <pt x="426" y="305" on="1"/>
        <pt x="426" y="730" on="1"/>
        <pt x="579" y="730" on="1"/>
        <pt x="579" y="319" on="1"/>
        <pt x="579" y="151" on="0"/>
        <pt x="451" y="-13" on="0"/>
      </contour>
      <contour>
        <pt x="155" y="816" on="1"/>
        <pt x="155" y="923" on="1"/>
        <pt x="445" y="923" on="1"/>
        <pt x="445" y="816" on="1"/>
      </contour>
    </TTGlyph>
    <TTGlyph name="Uogonek" xMin="21" yMin="-192" xMax="579" yMax="739">
      <contour>
        <pt x="300" y="-13" on="1"/>
        <pt x="148" y="-13" on="0"/>
        <pt x="21" y="153" on="0"/>
        <pt x="21" y="323" on="1"/>
        <pt x="21" y="739" on="1"/>
        <pt x="174" y="739" on="1"/>
        <pt x="174" y="309" on="1"/>
        <pt x="174" y="254" on="0"/>
        <pt x="193" y="174" on="0"/>
        <pt x="247" y="130" on="0"/>
        <pt x="300" y="130" on="1"/>
        <pt x="354" y="130" on="0"/>
        <pt x="407" y="174" on="0"/>
        <pt x="426" y="254" on="0"/>
        <pt x="426" y="309" on="1"/>
        <pt x="426" y="739" on="1"/>
        <pt x="579" y="739" on="1"/>
        <pt x="579" y="323" on="1"/>
        <pt x="579" y="153" on="0"/>
        <pt x="451" y="-13" on="0"/>
      </contour>
      <contour>
        <pt x="328" y="-192" on="1"/>
        <pt x="276" y="-192" on="0"/>
        <pt x="216" y="-160" on="0"/>
        <pt x="191" y="-115" on="0"/>
        <pt x="191" y="-94" on="1"/>
        <pt x="191" y="-56" on="0"/>
        <pt x="241" y="-10" on="0"/>
        <pt x="269" y="0" on="1"/>
        <pt x="405" y="0" on="1"/>
        <pt x="386" y="-2" on="0"/>
        <pt x="343" y="-24" on="0"/>
        <pt x="314" y="-57" on="0"/>
        <pt x="314" y="-75" on="1"/>
        <pt x="314" y="-95" on="0"/>
        <pt x="343" y="-108" on="0"/>
        <pt x="357" y="-108" on="1"/>
        <pt x="372" y="-108" on="0"/>
        <pt x="400" y="-99" on="0"/>
        <pt x="405" y="-98" on="1"/>
        <pt x="405" y="-181" on="1"/>
        <pt x="395" y="-186" on="0"/>
        <pt x="347" y="-192" on="0"/>
      </contour>
    </TTGlyph>
    <TTGlyph name="Upsilon" xMin="21" yMin="0" xMax="579" yMax="739">
      <component glyphName="Y" x="0" y="0" flags="0x204"/>
    </TTGlyph>
    <TTGlyph name="Upsilondieresis" xMin="21" yMin="0" xMax="579" yMax="953">
      <component glyphName="uni0308.case" x="600" y="0" flags="0x4"/>
      <component glyphName="Y" x="0" y="0" flags="0x204"/>
    </TTGlyph>
    <TTGlyph name="Upsilontonos" xMin="-161" yMin="0" xMax="579" yMax="739">
      <component glyphName="tonos.case" x="-373" y="0" flags="0x4"/>
      <component glyphName="Y" x="0" y="0" flags="0x204"/>
    </TTGlyph>
    <TTGlyph name="Uring" xMin="21" yMin="-13" xMax="579" yMax="1012">
      <contour>
        <pt x="300" y="-13" on="1"/>
        <pt x="148" y="-13" on="0"/>
        <pt x="21" y="151" on="0"/>
        <pt x="21" y="319" on="1"/>
        <pt x="21" y="730" on="1"/>
        <pt x="174" y="730" on="1"/>
        <pt x="174" y="305" on="1"/>
        <pt x="174" y="251" on="0"/>
        <pt x="193" y="172" on="0"/>
        <pt x="247" y="128" on="0"/>
        <pt x="300" y="128" on="1"/>
        <pt x="354" y="128" on="0"/>
        <pt x="407" y="172" on="0"/>
        <pt x="426" y="251" on="0"/>
        <pt x="426" y="305" on="1"/>
        <pt x="426" y="730" on="1"/>
        <pt x="579" y="730" on="1"/>
        <pt x="579" y="319" on="1"/>
        <pt x="579" y="151" on="0"/>
        <pt x="451" y="-13" on="0"/>
      </contour>
      <contour>
        <pt x="300" y="722" on="1"/>
        <pt x="265" y="722" on="0"/>
        <pt x="206" y="762" on="0"/>
        <pt x="171" y="828" on="0"/>
        <pt x="171" y="868" on="1"/>
        <pt x="171" y="908" on="0"/>
        <pt x="206" y="973" on="0"/>
        <pt x="265" y="1012" on="0"/>
        <pt x="300" y="1012" on="1"/>
        <pt x="335" y="1012" on="0"/>
        <pt x="394" y="973" on="0"/>
        <pt x="429" y="908" on="0"/>
        <pt x="429" y="868" on="1"/>
        <pt x="429" y="828" on="0"/>
        <pt x="394" y="762" on="0"/>
        <pt x="335" y="722" on="0"/>
      </contour>
      <contour>
        <pt x="300" y="816" on="1"/>
        <pt x="319" y="816" on="0"/>
        <pt x="345" y="847" on="0"/>
        <pt x="345" y="868" on="1"/>
        <pt x="345" y="890" on="0"/>
        <pt x="319" y="919" on="0"/>
        <pt x="300" y="919" on="1"/>
        <pt x="281" y="919" on="0"/>
        <pt x="254" y="890" on="0"/>
        <pt x="254" y="868" on="1"/>
        <pt x="254" y="847" on="0"/>
        <pt x="281" y="816" on="0"/>
      </contour>
    </TTGlyph>
    <TTGlyph name="Utilde" xMin="21" yMin="-13" xMax="579" yMax="954">
      <component glyphName="U" x="0" y="0" flags="0x204"/>
      <component glyphName="tildecomb.case" x="600" y="0" flags="0x4"/>
    </TTGlyph>
    <TTGlyph name="V" xMin="21" yMin="0" xMax="579" yMax="739">
      <contour>
        <pt x="219" y="0" on="1"/>
        <pt x="21" y="739" on="1"/>
        <pt x="165" y="739" on="1"/>
        <pt x="299" y="195" on="1"/>
        <pt x="434" y="739" on="1"/>
        <pt x="579" y="739" on="1"/>
        <pt x="380" y="0" on="1"/>
      </contour>
    </TTGlyph>
    <TTGlyph name="W" xMin="29" yMin="0" xMax="571" yMax="739">
      <contour>
        <pt x="130" y="0" on="1"/>
        <pt x="29" y="739" on="1"/>
        <pt x="128" y="739" on="1"/>
        <pt x="187" y="227" on="1"/>
        <pt x="248" y="739" on="1"/>
        <pt x="352" y="739" on="1"/>
        <pt x="413" y="227" on="1"/>
        <pt x="472" y="739" on="1"/>
        <pt x="571" y="739" on="1"/>
        <pt x="470" y="0" on="1"/>
        <pt x="364" y="0" on="1"/>
        <pt x="300" y="520" on="1"/>
        <pt x="236" y="0" on="1"/>
      </contour>
    </TTGlyph>
    <TTGlyph name="Wacute" xMin="29" yMin="0" xMax="571" yMax="950">
      <component glyphName="W" x="0" y="0" flags="0x204"/>
      <component glyphName="acutecomb.case" x="610" y="0" flags="0x4"/>
    </TTGlyph>
    <TTGlyph name="Wcircumflex" xMin="29" yMin="0" xMax="571" yMax="950">
      <component glyphName="W" x="0" y="0" flags="0x204"/>
      <component glyphName="uni0302.case" x="600" y="0" flags="0x4"/>
    </TTGlyph>
    <TTGlyph name="Wdieresis" xMin="29" yMin="0" xMax="571" yMax="953">
      <component glyphName="W" x="0" y="0" flags="0x204"/>
      <component glyphName="uni0308.case" x="600" y="0" flags="0x4"/>
    </TTGlyph>
    <TTGlyph name="Wgrave" xMin="29" yMin="0" xMax="571" yMax="950">
      <component glyphName="W" x="0" y="0" flags="0x204"/>
      <component glyphName="gravecomb.case" x="590" y="0" flags="0x4"/>
    </TTGlyph>
    <TTGlyph name="X" xMin="21" yMin="0" xMax="579" yMax="739">
      <contour>
        <pt x="21" y="0" on="1"/>
        <pt x="222" y="380" on="1"/>
        <pt x="33" y="739" on="1"/>
        <pt x="188" y="739" on="1"/>
        <pt x="300" y="526" on="1"/>
        <pt x="412" y="739" on="1"/>
        <pt x="567" y="739" on="1"/>
        <pt x="378" y="380" on="1"/>
        <pt x="579" y="0" on="1"/>
        <pt x="423" y="0" on="1"/>
        <pt x="300" y="234" on="1"/>
        <pt x="177" y="0" on="1"/>
      </contour>
    </TTGlyph>
    <TTGlyph name="Xi" xMin="62" yMin="0" xMax="538" yMax="739">
      <contour>
        <pt x="62" y="621" on="1"/>
        <pt x="62" y="739" on="1"/>
        <pt x="538" y="739" on="1"/>
        <pt x="538" y="621" on="1"/>
      </contour>
      <contour>
        <pt x="93" y="316" on="1"/>
        <pt x="93" y="433" on="1"/>
        <pt x="507" y="433" on="1"/>
        <pt x="507" y="316" on="1"/>
      </contour>
      <contour>
        <pt x="62" y="0" on="1"/>
        <pt x="62" y="117" on="1"/>
        <pt x="538" y="117" on="1"/>
        <pt x="538" y="0" on="1"/>
      </contour>
    </TTGlyph>
    <TTGlyph name="Y" xMin="21" yMin="0" xMax="579" yMax="739">
      <contour>
        <pt x="234" y="0" on="1"/>
        <pt x="234" y="287" on="1"/>
        <pt x="21" y="739" on="1"/>
        <pt x="175" y="739" on="1"/>
        <pt x="300" y="454" on="1"/>
        <pt x="424" y="739" on="1"/>
        <pt x="579" y="739" on="1"/>
        <pt x="366" y="287" on="1"/>
        <pt x="366" y="0" on="1"/>
      </contour>
    </TTGlyph>
    <TTGlyph name="Yacute" xMin="21" yMin="0" xMax="579" yMax="967">
      <contour>
        <pt x="234" y="0" on="1"/>
        <pt x="234" y="284" on="1"/>
        <pt x="21" y="730" on="1"/>
        <pt x="175" y="730" on="1"/>
        <pt x="300" y="449" on="1"/>
        <pt x="424" y="730" on="1"/>
        <pt x="579" y="730" on="1"/>
        <pt x="366" y="284" on="1"/>
        <pt x="366" y="0" on="1"/>
      </contour>
      <contour>
        <pt x="242" y="799" on="1"/>
        <pt x="267" y="836" on="0"/>
        <pt x="317" y="908" on="0"/>
        <pt x="342" y="945" on="1"/>
        <pt x="358" y="967" on="0"/>
        <pt x="377" y="967" on="1"/>
        <pt x="397" y="967" on="0"/>
        <pt x="424" y="931" on="0"/>
        <pt x="424" y="906" on="1"/>
        <pt x="424" y="892" on="0"/>
        <pt x="415" y="869" on="0"/>
        <pt x="408" y="859" on="1"/>
        <pt x="393" y="845" on="0"/>
        <pt x="362" y="814" on="0"/>
        <pt x="347" y="799" on="1"/>
      </contour>
    </TTGlyph>
    <TTGlyph name="Ycircumflex" xMin="21" yMin="0" xMax="579" yMax="950">
      <component glyphName="Y" x="0" y="0" flags="0x204"/>
      <component glyphName="uni0302.case" x="600" y="0" flags="0x4"/>
    </TTGlyph>
    <TTGlyph name="Ydieresis" xMin="21" yMin="0" xMax="579" yMax="947">
      <contour>
        <pt x="234" y="0" on="1"/>
        <pt x="234" y="284" on="1"/>
        <pt x="21" y="730" on="1"/>
        <pt x="175" y="730" on="1"/>
        <pt x="300" y="449" on="1"/>
        <pt x="424" y="730" on="1"/>
        <pt x="579" y="730" on="1"/>
        <pt x="366" y="284" on="1"/>
        <pt x="366" y="0" on="1"/>
      </contour>
      <contour>
        <pt x="220" y="793" on="1"/>
        <pt x="196" y="793" on="0"/>
        <pt x="161" y="838" on="0"/>
        <pt x="161" y="870" on="1"/>
        <pt x="161" y="902" on="0"/>
        <pt x="196" y="947" on="0"/>
        <pt x="220" y="947" on="1"/>
        <pt x="245" y="947" on="0"/>
        <pt x="279" y="902" on="0"/>
        <pt x="279" y="870" on="1"/>
        <pt x="279" y="838" on="0"/>
        <pt x="245" y="793" on="0"/>
      </contour>
      <contour>
        <pt x="382" y="793" on="1"/>
        <pt x="358" y="793" on="0"/>
        <pt x="323" y="838" on="0"/>
        <pt x="323" y="870" on="1"/>
        <pt x="323" y="902" on="0"/>
        <pt x="358" y="947" on="0"/>
        <pt x="382" y="947" on="1"/>
        <pt x="406" y="947" on="0"/>
        <pt x="440" y="902" on="0"/>
        <pt x="440" y="870" on="1"/>
        <pt x="440" y="838" on="0"/>
        <pt x="406" y="793" on="0"/>
      </contour>
    </TTGlyph>
    <TTGlyph name="Ygrave" xMin="21" yMin="0" xMax="579" yMax="950">
      <component glyphName="Y" x="0" y="0" flags="0x204"/>
      <component glyphName="gravecomb.case" x="590" y="0" flags="0x4"/>
    </TTGlyph>
    <TTGlyph name="Z" xMin="21" yMin="0" xMax="579" yMax="739">
      <contour>
        <pt x="21" y="0" on="1"/>
        <pt x="21" y="134" on="1"/>
        <pt x="358" y="585" on="1"/>
        <pt x="36" y="585" on="1"/>
        <pt x="36" y="739" on="1"/>
        <pt x="564" y="739" on="1"/>
        <pt x="564" y="605" on="1"/>
        <pt x="229" y="154" on="1"/>
        <pt x="579" y="154" on="1"/>
        <pt x="579" y="0" on="1"/>
      </contour>
    </TTGlyph>
    <TTGlyph name="Zacute" xMin="21" yMin="0" xMax="579" yMax="967">
      <contour>
        <pt x="21" y="0" on="1"/>
        <pt x="21" y="132" on="1"/>
        <pt x="358" y="578" on="1"/>
        <pt x="36" y="578" on="1"/>
        <pt x="36" y="730" on="1"/>
        <pt x="564" y="730" on="1"/>
        <pt x="564" y="598" on="1"/>
        <pt x="229" y="152" on="1"/>
        <pt x="579" y="152" on="1"/>
        <pt x="579" y="0" on="1"/>
      </contour>
      <contour>
        <pt x="230" y="799" on="1"/>
        <pt x="260" y="836" on="0"/>
        <pt x="320" y="908" on="0"/>
        <pt x="350" y="945" on="1"/>
        <pt x="370" y="967" on="0"/>
        <pt x="393" y="967" on="1"/>
        <pt x="415" y="967" on="0"/>
        <pt x="449" y="931" on="0"/>
        <pt x="449" y="906" on="1"/>
        <pt x="449" y="892" on="0"/>
        <pt x="438" y="869" on="0"/>
        <pt x="430" y="859" on="1"/>
        <pt x="410" y="845" on="0"/>
        <pt x="375" y="814" on="0"/>
        <pt x="355" y="799" on="1"/>
      </contour>
    </TTGlyph>
    <TTGlyph name="Zcaron" xMin="21" yMin="0" xMax="579" yMax="958">
      <contour>
        <pt x="21" y="0" on="1"/>
        <pt x="21" y="132" on="1"/>
        <pt x="358" y="578" on="1"/>
        <pt x="36" y="578" on="1"/>
        <pt x="36" y="730" on="1"/>
        <pt x="564" y="730" on="1"/>
        <pt x="564" y="598" on="1"/>
        <pt x="229" y="152" on="1"/>
        <pt x="579" y="152" on="1"/>
        <pt x="579" y="0" on="1"/>
      </contour>
      <contour>
        <pt x="300" y="792" on="1"/>
        <pt x="272" y="792" on="0"/>
        <pt x="250" y="813" on="1"/>
        <pt x="103" y="958" on="1"/>
        <pt x="232" y="958" on="1"/>
        <pt x="300" y="892" on="1"/>
        <pt x="369" y="958" on="1"/>
        <pt x="497" y="958" on="1"/>
        <pt x="351" y="813" on="1"/>
        <pt x="328" y="792" on="0"/>
      </contour>
    </TTGlyph>
    <TTGlyph name="Zdotaccent" xMin="21" yMin="0" xMax="579" yMax="947">
      <contour>
        <pt x="21" y="0" on="1"/>
        <pt x="21" y="132" on="1"/>
        <pt x="358" y="578" on="1"/>
        <pt x="36" y="578" on="1"/>
        <pt x="36" y="730" on="1"/>
        <pt x="564" y="730" on="1"/>
        <pt x="564" y="598" on="1"/>
        <pt x="229" y="152" on="1"/>
        <pt x="579" y="152" on="1"/>
        <pt x="579" y="0" on="1"/>
      </contour>
      <contour>
        <pt x="300" y="793" on="1"/>
        <pt x="272" y="793" on="0"/>
        <pt x="229" y="838" on="0"/>
        <pt x="229" y="870" on="1"/>
        <pt x="229" y="902" on="0"/>
        <pt x="272" y="947" on="0"/>
        <pt x="300" y="947" on="1"/>
        <pt x="329" y="947" on="0"/>
        <pt x="371" y="902" on="0"/>
        <pt x="371" y="870" on="1"/>
        <pt x="371" y="838" on="0"/>
        <pt x="329" y="793" on="0"/>
      </contour>
    </TTGlyph>
    <TTGlyph name="Zeta" xMin="21" yMin="0" xMax="579" yMax="739">
      <component glyphName="Z" x="0" y="0" flags="0x204"/>
    </TTGlyph>
    <TTGlyph name="a" xMin="42" yMin="-14" xMax="558" yMax="585">
      <contour>
        <pt x="220" y="-14" on="1"/>
        <pt x="171" y="-14" on="0"/>
        <pt x="90" y="27" on="0"/>
        <pt x="42" y="102" on="0"/>
        <pt x="42" y="153" on="1"/>
        <pt x="42" y="224" on="0"/>
        <pt x="130" y="307" on="0"/>
        <pt x="284" y="348" on="0"/>
        <pt x="384" y="356" on="1"/>
        <pt x="384" y="417" on="0"/>
        <pt x="349" y="467" on="0"/>
        <pt x="298" y="467" on="1"/>
        <pt x="266" y="467" on="0"/>
        <pt x="217" y="434" on="0"/>
        <pt x="208" y="399" on="1"/>
        <pt x="75" y="453" on="1"/>
        <pt x="101" y="509" on="0"/>
        <pt x="223" y="585" on="0"/>
        <pt x="311" y="585" on="1"/>
        <pt x="422" y="585" on="0"/>
        <pt x="540" y="478" on="0"/>
        <pt x="540" y="348" on="1"/>
        <pt x="540" y="223" on="1"/>
        <pt x="540" y="186" on="0"/>
        <pt x="544" y="101" on="0"/>
        <pt x="553" y="25" on="0"/>
        <pt x="558" y="0" on="1"/>
        <pt x="411" y="0" on="1"/>
        <pt x="393" y="69" on="1"/>
        <pt x="363" y="24" on="0"/>
        <pt x="275" y="-14" on="0"/>
      </contour>
      <contour>
        <pt x="278" y="106" on="1"/>
        <pt x="325" y="106" on="0"/>
        <pt x="387" y="161" on="0"/>
        <pt x="387" y="238" on="1"/>
        <pt x="387" y="252" on="1"/>
        <pt x="305" y="245" on="0"/>
        <pt x="205" y="211" on="0"/>
        <pt x="205" y="166" on="1"/>
        <pt x="205" y="139" on="0"/>
        <pt x="247" y="106" on="0"/>
      </contour>
    </TTGlyph>
    <TTGlyph name="aacute" xMin="42" yMin="-14" xMax="558" yMax="794">
      <contour>
        <pt x="220" y="-14" on="1"/>
        <pt x="171" y="-14" on="0"/>
        <pt x="90" y="27" on="0"/>
        <pt x="42" y="102" on="0"/>
        <pt x="42" y="153" on="1"/>
        <pt x="42" y="224" on="0"/>
        <pt x="130" y="307" on="0"/>
        <pt x="284" y="348" on="0"/>
        <pt x="384" y="356" on="1"/>
        <pt x="384" y="417" on="0"/>
        <pt x="349" y="467" on="0"/>
        <pt x="298" y="467" on="1"/>
        <pt x="266" y="467" on="0"/>
        <pt x="217" y="434" on="0"/>
        <pt x="208" y="399" on="1"/>
        <pt x="75" y="453" on="1"/>
        <pt x="101" y="509" on="0"/>
        <pt x="223" y="585" on="0"/>
        <pt x="311" y="585" on="1"/>
        <pt x="422" y="585" on="0"/>
        <pt x="540" y="478" on="0"/>
        <pt x="540" y="348" on="1"/>
        <pt x="540" y="223" on="1"/>
        <pt x="540" y="186" on="0"/>
        <pt x="544" y="101" on="0"/>
        <pt x="553" y="25" on="0"/>
        <pt x="558" y="0" on="1"/>
        <pt x="411" y="0" on="1"/>
        <pt x="393" y="69" on="1"/>
        <pt x="363" y="24" on="0"/>
        <pt x="275" y="-14" on="0"/>
      </contour>
      <contour>
        <pt x="278" y="106" on="1"/>
        <pt x="325" y="106" on="0"/>
        <pt x="387" y="161" on="0"/>
        <pt x="387" y="238" on="1"/>
        <pt x="387" y="252" on="1"/>
        <pt x="305" y="245" on="0"/>
        <pt x="205" y="211" on="0"/>
        <pt x="205" y="166" on="1"/>
        <pt x="205" y="139" on="0"/>
        <pt x="247" y="106" on="0"/>
      </contour>
      <contour>
        <pt x="243" y="627" on="1"/>
        <pt x="272" y="664" on="0"/>
        <pt x="329" y="738" on="0"/>
        <pt x="358" y="775" on="1"/>
        <pt x="374" y="794" on="0"/>
        <pt x="401" y="794" on="1"/>
        <pt x="426" y="794" on="0"/>
        <pt x="459" y="760" on="0"/>
        <pt x="459" y="733" on="1"/>
        <pt x="459" y="705" on="0"/>
        <pt x="439" y="687" on="1"/>
        <pt x="420" y="673" on="0"/>
        <pt x="381" y="643" on="0"/>
        <pt x="361" y="627" on="1"/>
      </contour>
    </TTGlyph>
    <TTGlyph name="abreve" xMin="42" yMin="-14" xMax="558" yMax="753">
      <contour>
        <pt x="220" y="-14" on="1"/>
        <pt x="171" y="-14" on="0"/>
        <pt x="90" y="27" on="0"/>
        <pt x="42" y="102" on="0"/>
        <pt x="42" y="153" on="1"/>
        <pt x="42" y="224" on="0"/>
        <pt x="130" y="307" on="0"/>
        <pt x="284" y="348" on="0"/>
        <pt x="384" y="356" on="1"/>
        <pt x="384" y="417" on="0"/>
        <pt x="349" y="467" on="0"/>
        <pt x="298" y="467" on="1"/>
        <pt x="266" y="467" on="0"/>
        <pt x="217" y="434" on="0"/>
        <pt x="208" y="399" on="1"/>
        <pt x="75" y="453" on="1"/>
        <pt x="101" y="509" on="0"/>
        <pt x="223" y="585" on="0"/>
        <pt x="311" y="585" on="1"/>
        <pt x="422" y="585" on="0"/>
        <pt x="540" y="478" on="0"/>
        <pt x="540" y="348" on="1"/>
        <pt x="540" y="223" on="1"/>
        <pt x="540" y="186" on="0"/>
        <pt x="544" y="101" on="0"/>
        <pt x="553" y="25" on="0"/>
        <pt x="558" y="0" on="1"/>
        <pt x="411" y="0" on="1"/>
        <pt x="393" y="69" on="1"/>
        <pt x="363" y="24" on="0"/>
        <pt x="275" y="-14" on="0"/>
      </contour>
      <contour>
        <pt x="278" y="106" on="1"/>
        <pt x="325" y="106" on="0"/>
        <pt x="387" y="161" on="0"/>
        <pt x="387" y="238" on="1"/>
        <pt x="387" y="252" on="1"/>
        <pt x="305" y="245" on="0"/>
        <pt x="205" y="211" on="0"/>
        <pt x="205" y="166" on="1"/>
        <pt x="205" y="139" on="0"/>
        <pt x="247" y="106" on="0"/>
      </contour>
      <contour>
        <pt x="312" y="622" on="1"/>
        <pt x="257" y="622" on="0"/>
        <pt x="173" y="697" on="0"/>
        <pt x="164" y="753" on="1"/>
        <pt x="252" y="753" on="1"/>
        <pt x="256" y="735" on="0"/>
        <pt x="290" y="706" on="0"/>
        <pt x="312" y="706" on="1"/>
        <pt x="336" y="706" on="0"/>
        <pt x="370" y="735" on="0"/>
        <pt x="374" y="753" on="1"/>
        <pt x="462" y="753" on="1"/>
        <pt x="453" y="697" on="0"/>
        <pt x="369" y="622" on="0"/>
      </contour>
    </TTGlyph>
    <TTGlyph name="acircumflex" xMin="42" yMin="-14" xMax="558" yMax="793">
      <contour>
        <pt x="220" y="-14" on="1"/>
        <pt x="171" y="-14" on="0"/>
        <pt x="90" y="27" on="0"/>
        <pt x="42" y="102" on="0"/>
        <pt x="42" y="153" on="1"/>
        <pt x="42" y="224" on="0"/>
        <pt x="130" y="307" on="0"/>
        <pt x="284" y="348" on="0"/>
        <pt x="384" y="356" on="1"/>
        <pt x="384" y="417" on="0"/>
        <pt x="349" y="467" on="0"/>
        <pt x="298" y="467" on="1"/>
        <pt x="266" y="467" on="0"/>
        <pt x="217" y="434" on="0"/>
        <pt x="208" y="399" on="1"/>
        <pt x="75" y="453" on="1"/>
        <pt x="101" y="509" on="0"/>
        <pt x="223" y="585" on="0"/>
        <pt x="311" y="585" on="1"/>
        <pt x="422" y="585" on="0"/>
        <pt x="540" y="478" on="0"/>
        <pt x="540" y="348" on="1"/>
        <pt x="540" y="223" on="1"/>
        <pt x="540" y="186" on="0"/>
        <pt x="544" y="101" on="0"/>
        <pt x="553" y="25" on="0"/>
        <pt x="558" y="0" on="1"/>
        <pt x="411" y="0" on="1"/>
        <pt x="393" y="69" on="1"/>
        <pt x="363" y="24" on="0"/>
        <pt x="275" y="-14" on="0"/>
      </contour>
      <contour>
        <pt x="278" y="106" on="1"/>
        <pt x="325" y="106" on="0"/>
        <pt x="387" y="161" on="0"/>
        <pt x="387" y="238" on="1"/>
        <pt x="387" y="252" on="1"/>
        <pt x="305" y="245" on="0"/>
        <pt x="205" y="211" on="0"/>
        <pt x="205" y="166" on="1"/>
        <pt x="205" y="139" on="0"/>
        <pt x="247" y="106" on="0"/>
      </contour>
      <contour>
        <pt x="109" y="627" on="1"/>
        <pt x="262" y="772" on="1"/>
        <pt x="284" y="793" on="0"/>
        <pt x="314" y="793" on="1"/>
        <pt x="328" y="793" on="0"/>
        <pt x="355" y="781" on="0"/>
        <pt x="366" y="772" on="1"/>
        <pt x="517" y="627" on="1"/>
        <pt x="384" y="627" on="1"/>
        <pt x="314" y="694" on="1"/>
        <pt x="243" y="627" on="1"/>
      </contour>
    </TTGlyph>
    <TTGlyph name="acknowledgecontrol" xMin="3" yMin="241" xMax="597" yMax="493">
      <component glyphName="A" x="-4" y="245" scale="0.33" flags="0x4"/>
      <component glyphName="C" x="195" y="245" scale="0.33" flags="0x4"/>
      <component glyphName="K" x="406" y="245" scale="0.33" flags="0x4"/>
    </TTGlyph>
    <TTGlyph name="acute" xMin="208" yMin="645" xMax="452" yMax="785">
      <component glyphName="acutecomb" x="600" y="0" flags="0x4"/>
    </TTGlyph>
    <TTGlyph name="acute.case" xMin="208" yMin="810" xMax="452" yMax="950">
      <component glyphName="acutecomb.case" x="600" y="0" flags="0x4"/>
    </TTGlyph>
    <TTGlyph name="acutecomb" xMin="-392" yMin="645" xMax="-148" yMax="785">
      <contour>
        <pt x="-392" y="645" on="1"/>
        <pt x="-284" y="785" on="1"/>
        <pt x="-148" y="785" on="1"/>
        <pt x="-264" y="645" on="1"/>
      </contour>
    </TTGlyph>
    <TTGlyph name="acutecomb.case" xMin="-392" yMin="810" xMax="-148" yMax="950">
      <contour>
        <pt x="-392" y="810" on="1"/>
        <pt x="-284" y="950" on="1"/>
        <pt x="-148" y="950" on="1"/>
        <pt x="-264" y="810" on="1"/>
      </contour>
    </TTGlyph>
    <TTGlyph name="adieresis" xMin="42" yMin="-14" xMax="558" yMax="786">
      <contour>
        <pt x="220" y="-14" on="1"/>
        <pt x="171" y="-14" on="0"/>
        <pt x="90" y="27" on="0"/>
        <pt x="42" y="102" on="0"/>
        <pt x="42" y="153" on="1"/>
        <pt x="42" y="224" on="0"/>
        <pt x="130" y="307" on="0"/>
        <pt x="284" y="348" on="0"/>
        <pt x="384" y="356" on="1"/>
        <pt x="384" y="417" on="0"/>
        <pt x="349" y="467" on="0"/>
        <pt x="298" y="467" on="1"/>
        <pt x="266" y="467" on="0"/>
        <pt x="217" y="434" on="0"/>
        <pt x="208" y="399" on="1"/>
        <pt x="75" y="453" on="1"/>
        <pt x="101" y="509" on="0"/>
        <pt x="223" y="585" on="0"/>
        <pt x="311" y="585" on="1"/>
        <pt x="422" y="585" on="0"/>
        <pt x="540" y="478" on="0"/>
        <pt x="540" y="348" on="1"/>
        <pt x="540" y="223" on="1"/>
        <pt x="540" y="186" on="0"/>
        <pt x="544" y="101" on="0"/>
        <pt x="553" y="25" on="0"/>
        <pt x="558" y="0" on="1"/>
        <pt x="411" y="0" on="1"/>
        <pt x="393" y="69" on="1"/>
        <pt x="363" y="24" on="0"/>
        <pt x="275" y="-14" on="0"/>
      </contour>
      <contour>
        <pt x="278" y="106" on="1"/>
        <pt x="325" y="106" on="0"/>
        <pt x="387" y="161" on="0"/>
        <pt x="387" y="238" on="1"/>
        <pt x="387" y="252" on="1"/>
        <pt x="305" y="245" on="0"/>
        <pt x="205" y="211" on="0"/>
        <pt x="205" y="166" on="1"/>
        <pt x="205" y="139" on="0"/>
        <pt x="247" y="106" on="0"/>
      </contour>
      <contour>
        <pt x="214" y="632" on="1"/>
        <pt x="184" y="632" on="0"/>
        <pt x="140" y="676" on="0"/>
        <pt x="140" y="708" on="1"/>
        <pt x="140" y="740" on="0"/>
        <pt x="184" y="786" on="0"/>
        <pt x="214" y="786" on="1"/>
        <pt x="244" y="786" on="0"/>
        <pt x="286" y="740" on="0"/>
        <pt x="286" y="708" on="1"/>
        <pt x="286" y="676" on="0"/>
        <pt x="244" y="632" on="0"/>
      </contour>
      <contour>
        <pt x="415" y="632" on="1"/>
        <pt x="385" y="632" on="0"/>
        <pt x="342" y="676" on="0"/>
        <pt x="342" y="708" on="1"/>
        <pt x="342" y="740" on="0"/>
        <pt x="385" y="786" on="0"/>
        <pt x="415" y="786" on="1"/>
        <pt x="446" y="786" on="0"/>
        <pt x="487" y="740" on="0"/>
        <pt x="487" y="708" on="1"/>
        <pt x="487" y="676" on="0"/>
        <pt x="446" y="632" on="0"/>
      </contour>
    </TTGlyph>
    <TTGlyph name="ae" xMin="21" yMin="-14" xMax="582" yMax="585">
      <contour>
        <pt x="143" y="-14" on="1"/>
        <pt x="113" y="-14" on="0"/>
        <pt x="57" y="24" on="0"/>
        <pt x="21" y="100" on="0"/>
        <pt x="21" y="155" on="1"/>
        <pt x="21" y="190" on="0"/>
        <pt x="40" y="258" on="0"/>
        <pt x="88" y="312" on="0"/>
        <pt x="174" y="344" on="0"/>
        <pt x="241" y="344" on="1"/>
        <pt x="241" y="378" on="1"/>
        <pt x="241" y="427" on="0"/>
        <pt x="212" y="467" on="0"/>
        <pt x="185" y="467" on="1"/>
        <pt x="165" y="467" on="0"/>
        <pt x="133" y="434" on="0"/>
        <pt x="127" y="399" on="1"/>
        <pt x="42" y="453" on="1"/>
        <pt x="59" y="509" on="0"/>
        <pt x="137" y="585" on="0"/>
        <pt x="194" y="585" on="1"/>
        <pt x="229" y="585" on="0"/>
        <pt x="284" y="560" on="0"/>
        <pt x="303" y="530" on="1"/>
        <pt x="348" y="585" on="0"/>
        <pt x="408" y="585" on="1"/>
        <pt x="462" y="585" on="0"/>
        <pt x="541" y="497" on="0"/>
        <pt x="582" y="341" on="0"/>
        <pt x="579" y="239" on="1"/>
        <pt x="333" y="239" on="1"/>
        <pt x="335" y="181" on="0"/>
        <pt x="382" y="122" on="0"/>
        <pt x="409" y="122" on="1"/>
        <pt x="433" y="122" on="0"/>
        <pt x="467" y="146" on="0"/>
        <pt x="477" y="164" on="1"/>
        <pt x="557" y="113" on="1"/>
        <pt x="531" y="47" on="0"/>
        <pt x="453" y="-14" on="0"/>
        <pt x="412" y="-14" on="1"/>
        <pt x="325" y="-14" on="0"/>
        <pt x="275" y="77" on="1"/>
        <pt x="248" y="21" on="0"/>
        <pt x="179" y="-14" on="0"/>
      </contour>
      <contour>
        <pt x="332" y="343" on="1"/>
        <pt x="484" y="343" on="1"/>
        <pt x="483" y="398" on="0"/>
        <pt x="440" y="455" on="0"/>
        <pt x="410" y="455" on="1"/>
        <pt x="382" y="455" on="0"/>
        <pt x="337" y="401" on="0"/>
      </contour>
      <contour>
        <pt x="172" y="104" on="1"/>
        <pt x="202" y="104" on="0"/>
        <pt x="242" y="161" on="0"/>
        <pt x="242" y="231" on="1"/>
        <pt x="242" y="239" on="1"/>
        <pt x="188" y="240" on="0"/>
        <pt x="125" y="214" on="0"/>
        <pt x="125" y="170" on="1"/>
        <pt x="125" y="139" on="0"/>
        <pt x="151" y="104" on="0"/>
      </contour>
    </TTGlyph>
    <TTGlyph name="aeacute" xMin="21" yMin="-14" xMax="582" yMax="785">
      <component glyphName="ae" x="0" y="0" flags="0x204"/>
      <component glyphName="acutecomb" x="610" y="0" flags="0x4"/>
    </TTGlyph>
    <TTGlyph name="agrave" xMin="42" yMin="-14" xMax="558" yMax="796">
      <contour>
        <pt x="220" y="-14" on="1"/>
        <pt x="171" y="-14" on="0"/>
        <pt x="90" y="27" on="0"/>
        <pt x="42" y="102" on="0"/>
        <pt x="42" y="153" on="1"/>
        <pt x="42" y="224" on="0"/>
        <pt x="130" y="307" on="0"/>
        <pt x="284" y="348" on="0"/>
        <pt x="384" y="356" on="1"/>
        <pt x="384" y="417" on="0"/>
        <pt x="349" y="467" on="0"/>
        <pt x="298" y="467" on="1"/>
        <pt x="266" y="467" on="0"/>
        <pt x="217" y="434" on="0"/>
        <pt x="208" y="399" on="1"/>
        <pt x="75" y="453" on="1"/>
        <pt x="101" y="509" on="0"/>
        <pt x="223" y="585" on="0"/>
        <pt x="311" y="585" on="1"/>
        <pt x="422" y="585" on="0"/>
        <pt x="540" y="478" on="0"/>
        <pt x="540" y="348" on="1"/>
        <pt x="540" y="223" on="1"/>
        <pt x="540" y="186" on="0"/>
        <pt x="544" y="101" on="0"/>
        <pt x="553" y="25" on="0"/>
        <pt x="558" y="0" on="1"/>
        <pt x="411" y="0" on="1"/>
        <pt x="393" y="69" on="1"/>
        <pt x="363" y="24" on="0"/>
        <pt x="275" y="-14" on="0"/>
      </contour>
      <contour>
        <pt x="278" y="106" on="1"/>
        <pt x="325" y="106" on="0"/>
        <pt x="387" y="161" on="0"/>
        <pt x="387" y="238" on="1"/>
        <pt x="387" y="252" on="1"/>
        <pt x="305" y="245" on="0"/>
        <pt x="205" y="211" on="0"/>
        <pt x="205" y="166" on="1"/>
        <pt x="205" y="139" on="0"/>
        <pt x="247" y="106" on="0"/>
      </contour>
      <contour>
        <pt x="267" y="627" on="1"/>
        <pt x="247" y="643" on="0"/>
        <pt x="208" y="673" on="0"/>
        <pt x="189" y="687" on="1"/>
        <pt x="169" y="708" on="0"/>
        <pt x="169" y="733" on="1"/>
        <pt x="169" y="758" on="0"/>
        <pt x="203" y="796" on="0"/>
        <pt x="227" y="796" on="1"/>
        <pt x="254" y="796" on="0"/>
        <pt x="271" y="775" on="1"/>
        <pt x="385" y="627" on="1"/>
      </contour>
    </TTGlyph>
    <TTGlyph name="alpha" xMin="63" yMin="-10" xMax="531" yMax="588">
      <contour>
        <pt x="251" y="-10" on="1"/>
        <pt x="165" y="-10" on="0"/>
        <pt x="63" y="109" on="0"/>
        <pt x="63" y="211" on="1"/>
        <pt x="63" y="368" on="1"/>
        <pt x="63" y="468" on="0"/>
        <pt x="165" y="588" on="0"/>
        <pt x="251" y="588" on="1"/>
        <pt x="315" y="588" on="0"/>
        <pt x="393" y="525" on="0"/>
        <pt x="401" y="467" on="1"/>
        <pt x="404" y="467" on="1"/>
        <pt x="404" y="578" on="1"/>
        <pt x="531" y="578" on="1"/>
        <pt x="531" y="0" on="1"/>
        <pt x="404" y="0" on="1"/>
        <pt x="404" y="110" on="1"/>
        <pt x="401" y="110" on="1"/>
        <pt x="393" y="54" on="0"/>
        <pt x="315" y="-10" on="0"/>
      </contour>
      <contour>
        <pt x="297" y="103" on="1"/>
        <pt x="347" y="103" on="0"/>
        <pt x="401" y="163" on="0"/>
        <pt x="401" y="216" on="1"/>
        <pt x="401" y="361" on="1"/>
        <pt x="401" y="415" on="0"/>
        <pt x="347" y="475" on="0"/>
        <pt x="297" y="475" on="1"/>
        <pt x="247" y="475" on="0"/>
        <pt x="194" y="416" on="0"/>
        <pt x="194" y="361" on="1"/>
        <pt x="194" y="216" on="1"/>
        <pt x="194" y="162" on="0"/>
        <pt x="247" y="103" on="0"/>
      </contour>
    </TTGlyph>
    <TTGlyph name="alphatonos" xMin="63" yMin="-10" xMax="531" yMax="785">
      <contour>
        <pt x="214" y="645" on="1"/>
        <pt x="323" y="785" on="1"/>
        <pt x="463" y="785" on="1"/>
        <pt x="344" y="645" on="1"/>
      </contour>
      <contour>
        <pt x="251" y="-10" on="1"/>
        <pt x="165" y="-10" on="0"/>
        <pt x="63" y="104" on="0"/>
        <pt x="63" y="201" on="1"/>
        <pt x="63" y="350" on="1"/>
        <pt x="63" y="446" on="0"/>
        <pt x="165" y="560" on="0"/>
        <pt x="251" y="560" on="1"/>
        <pt x="315" y="560" on="0"/>
        <pt x="393" y="500" on="0"/>
        <pt x="401" y="445" on="1"/>
        <pt x="404" y="445" on="1"/>
        <pt x="404" y="550" on="1"/>
        <pt x="531" y="550" on="1"/>
        <pt x="531" y="0" on="1"/>
        <pt x="404" y="0" on="1"/>
        <pt x="404" y="105" on="1"/>
        <pt x="401" y="105" on="1"/>
        <pt x="393" y="51" on="0"/>
        <pt x="315" y="-10" on="0"/>
      </contour>
      <contour>
        <pt x="297" y="98" on="1"/>
        <pt x="347" y="98" on="0"/>
        <pt x="401" y="155" on="0"/>
        <pt x="401" y="206" on="1"/>
        <pt x="401" y="344" on="1"/>
        <pt x="401" y="395" on="0"/>
        <pt x="347" y="452" on="0"/>
        <pt x="297" y="452" on="1"/>
        <pt x="247" y="452" on="0"/>
        <pt x="194" y="396" on="0"/>
        <pt x="194" y="344" on="1"/>
        <pt x="194" y="206" on="1"/>
        <pt x="194" y="154" on="0"/>
        <pt x="247" y="98" on="0"/>
      </contour>
    </TTGlyph>
    <TTGlyph name="amacron" xMin="42" yMin="-14" xMax="558" yMax="730">
      <contour>
        <pt x="220" y="-14" on="1"/>
        <pt x="171" y="-14" on="0"/>
        <pt x="90" y="27" on="0"/>
        <pt x="42" y="102" on="0"/>
        <pt x="42" y="153" on="1"/>
        <pt x="42" y="224" on="0"/>
        <pt x="130" y="307" on="0"/>
        <pt x="284" y="348" on="0"/>
        <pt x="384" y="356" on="1"/>
        <pt x="384" y="417" on="0"/>
        <pt x="349" y="467" on="0"/>
        <pt x="298" y="467" on="1"/>
        <pt x="266" y="467" on="0"/>
        <pt x="217" y="434" on="0"/>
        <pt x="208" y="399" on="1"/>
        <pt x="75" y="453" on="1"/>
        <pt x="101" y="509" on="0"/>
        <pt x="223" y="585" on="0"/>
        <pt x="311" y="585" on="1"/>
        <pt x="422" y="585" on="0"/>
        <pt x="540" y="478" on="0"/>
        <pt x="540" y="348" on="1"/>
        <pt x="540" y="223" on="1"/>
        <pt x="540" y="186" on="0"/>
        <pt x="544" y="101" on="0"/>
        <pt x="553" y="25" on="0"/>
        <pt x="558" y="0" on="1"/>
        <pt x="411" y="0" on="1"/>
        <pt x="393" y="69" on="1"/>
        <pt x="363" y="24" on="0"/>
        <pt x="275" y="-14" on="0"/>
      </contour>
      <contour>
        <pt x="278" y="106" on="1"/>
        <pt x="325" y="106" on="0"/>
        <pt x="387" y="161" on="0"/>
        <pt x="387" y="238" on="1"/>
        <pt x="387" y="252" on="1"/>
        <pt x="305" y="245" on="0"/>
        <pt x="205" y="211" on="0"/>
        <pt x="205" y="166" on="1"/>
        <pt x="205" y="139" on="0"/>
        <pt x="247" y="106" on="0"/>
      </contour>
      <contour>
        <pt x="158" y="623" on="1"/>
        <pt x="158" y="730" on="1"/>
        <pt x="468" y="730" on="1"/>
        <pt x="468" y="623" on="1"/>
      </contour>
    </TTGlyph>
    <TTGlyph name="ampersand" xMin="40" yMin="-10" xMax="577" yMax="740">
      <contour>
        <pt x="232" y="-10" on="1"/>
        <pt x="141" y="-10" on="0"/>
        <pt x="40" y="90" on="0"/>
        <pt x="40" y="178" on="1"/>
        <pt x="40" y="271" on="1"/>
        <pt x="40" y="330" on="0"/>
        <pt x="94" y="411" on="0"/>
        <pt x="143" y="427" on="1"/>
        <pt x="118" y="465" on="0"/>
        <pt x="93" y="536" on="0"/>
        <pt x="93" y="572" on="1"/>
        <pt x="93" y="647" on="0"/>
        <pt x="199" y="740" on="0"/>
        <pt x="287" y="740" on="1"/>
        <pt x="378" y="740" on="0"/>
        <pt x="487" y="641" on="0"/>
        <pt x="487" y="558" on="1"/>
        <pt x="370" y="558" on="1"/>
        <pt x="370" y="594" on="0"/>
        <pt x="324" y="637" on="0"/>
        <pt x="287" y="637" on="1"/>
        <pt x="251" y="637" on="0"/>
        <pt x="207" y="596" on="0"/>
        <pt x="207" y="562" on="1"/>
        <pt x="207" y="538" on="0"/>
        <pt x="232" y="480" on="0"/>
        <pt x="255" y="450" on="1"/>
        <pt x="394" y="255" on="1"/>
        <pt x="449" y="360" on="1"/>
        <pt x="572" y="360" on="1"/>
        <pt x="464" y="157" on="1"/>
        <pt x="577" y="0" on="1"/>
        <pt x="450" y="0" on="1"/>
        <pt x="403" y="66" on="1"/>
        <pt x="332" y="-10" on="0"/>
      </contour>
      <contour>
        <pt x="242" y="93" on="1"/>
        <pt x="272" y="93" on="0"/>
        <pt x="322" y="125" on="0"/>
        <pt x="340" y="153" on="1"/>
        <pt x="202" y="345" on="1"/>
        <pt x="161" y="328" on="0"/>
        <pt x="161" y="271" on="1"/>
        <pt x="161" y="178" on="1"/>
        <pt x="161" y="137" on="0"/>
        <pt x="205" y="93" on="0"/>
      </contour>
    </TTGlyph>
    <TTGlyph name="anoteleia" xMin="203" yMin="265" xMax="397" yMax="452">
      <component glyphName="period" x="0" y="275" flags="0x204"/>
    </TTGlyph>
    <TTGlyph name="aogonek" xMin="42" yMin="-199" xMax="558" yMax="585">
      <contour>
        <pt x="220" y="-14" on="1"/>
        <pt x="171" y="-14" on="0"/>
        <pt x="90" y="27" on="0"/>
        <pt x="42" y="102" on="0"/>
        <pt x="42" y="153" on="1"/>
        <pt x="42" y="224" on="0"/>
        <pt x="130" y="307" on="0"/>
        <pt x="284" y="348" on="0"/>
        <pt x="384" y="356" on="1"/>
        <pt x="384" y="417" on="0"/>
        <pt x="349" y="467" on="0"/>
        <pt x="298" y="467" on="1"/>
        <pt x="266" y="467" on="0"/>
        <pt x="217" y="434" on="0"/>
        <pt x="208" y="399" on="1"/>
        <pt x="75" y="453" on="1"/>
        <pt x="101" y="509" on="0"/>
        <pt x="223" y="585" on="0"/>
        <pt x="311" y="585" on="1"/>
        <pt x="422" y="585" on="0"/>
        <pt x="540" y="478" on="0"/>
        <pt x="540" y="348" on="1"/>
        <pt x="540" y="223" on="1"/>
        <pt x="540" y="186" on="0"/>
        <pt x="544" y="101" on="0"/>
        <pt x="553" y="25" on="0"/>
        <pt x="558" y="0" on="1"/>
        <pt x="411" y="0" on="1"/>
        <pt x="393" y="69" on="1"/>
        <pt x="363" y="24" on="0"/>
        <pt x="275" y="-14" on="0"/>
      </contour>
      <contour>
        <pt x="278" y="106" on="1"/>
        <pt x="325" y="106" on="0"/>
        <pt x="387" y="161" on="0"/>
        <pt x="387" y="238" on="1"/>
        <pt x="387" y="252" on="1"/>
        <pt x="305" y="245" on="0"/>
        <pt x="205" y="211" on="0"/>
        <pt x="205" y="166" on="1"/>
        <pt x="205" y="139" on="0"/>
        <pt x="247" y="106" on="0"/>
      </contour>
      <contour>
        <pt x="474" y="-199" on="1"/>
        <pt x="418" y="-199" on="0"/>
        <pt x="353" y="-166" on="0"/>
        <pt x="326" y="-120" on="0"/>
        <pt x="326" y="-98" on="1"/>
        <pt x="326" y="-58" on="0"/>
        <pt x="379" y="-10" on="0"/>
        <pt x="409" y="0" on="1"/>
        <pt x="556" y="0" on="1"/>
        <pt x="520" y="-20" on="0"/>
        <pt x="457" y="-58" on="0"/>
        <pt x="457" y="-78" on="1"/>
        <pt x="457" y="-99" on="0"/>
        <pt x="488" y="-112" on="0"/>
        <pt x="505" y="-112" on="1"/>
        <pt x="520" y="-112" on="0"/>
        <pt x="550" y="-103" on="0"/>
        <pt x="556" y="-102" on="1"/>
        <pt x="556" y="-188" on="1"/>
        <pt x="544" y="-193" on="0"/>
        <pt x="493" y="-199" on="0"/>
      </contour>
    </TTGlyph>
    <TTGlyph name="approxequal" xMin="47" yMin="84" xMax="553" yMax="576">
      <component glyphName="asciitilde" x="0" y="106" flags="0x204"/>
      <component glyphName="asciitilde" x="0" y="-151" flags="0x4"/>
    </TTGlyph>
    <TTGlyph name="aring" xMin="42" yMin="-14" xMax="558" yMax="874">
      <contour>
        <pt x="220" y="-14" on="1"/>
        <pt x="171" y="-14" on="0"/>
        <pt x="90" y="27" on="0"/>
        <pt x="42" y="102" on="0"/>
        <pt x="42" y="153" on="1"/>
        <pt x="42" y="224" on="0"/>
        <pt x="130" y="307" on="0"/>
        <pt x="284" y="348" on="0"/>
        <pt x="384" y="356" on="1"/>
        <pt x="384" y="417" on="0"/>
        <pt x="349" y="467" on="0"/>
        <pt x="298" y="467" on="1"/>
        <pt x="266" y="467" on="0"/>
        <pt x="217" y="434" on="0"/>
        <pt x="208" y="399" on="1"/>
        <pt x="75" y="453" on="1"/>
        <pt x="101" y="509" on="0"/>
        <pt x="223" y="585" on="0"/>
        <pt x="311" y="585" on="1"/>
        <pt x="422" y="585" on="0"/>
        <pt x="540" y="478" on="0"/>
        <pt x="540" y="348" on="1"/>
        <pt x="540" y="223" on="1"/>
        <pt x="540" y="186" on="0"/>
        <pt x="544" y="101" on="0"/>
        <pt x="553" y="25" on="0"/>
        <pt x="558" y="0" on="1"/>
        <pt x="411" y="0" on="1"/>
        <pt x="393" y="69" on="1"/>
        <pt x="363" y="24" on="0"/>
        <pt x="275" y="-14" on="0"/>
      </contour>
      <contour>
        <pt x="278" y="106" on="1"/>
        <pt x="325" y="106" on="0"/>
        <pt x="387" y="161" on="0"/>
        <pt x="387" y="238" on="1"/>
        <pt x="387" y="252" on="1"/>
        <pt x="305" y="245" on="0"/>
        <pt x="205" y="211" on="0"/>
        <pt x="205" y="166" on="1"/>
        <pt x="205" y="139" on="0"/>
        <pt x="247" y="106" on="0"/>
      </contour>
      <contour>
        <pt x="312" y="585" on="1"/>
        <pt x="275" y="585" on="0"/>
        <pt x="213" y="624" on="0"/>
        <pt x="175" y="691" on="0"/>
        <pt x="175" y="730" on="1"/>
        <pt x="175" y="770" on="0"/>
        <pt x="213" y="835" on="0"/>
        <pt x="275" y="874" on="0"/>
        <pt x="312" y="874" on="1"/>
        <pt x="351" y="874" on="0"/>
        <pt x="413" y="835" on="0"/>
        <pt x="451" y="770" on="0"/>
        <pt x="451" y="730" on="1"/>
        <pt x="451" y="691" on="0"/>
        <pt x="413" y="624" on="0"/>
        <pt x="351" y="585" on="0"/>
      </contour>
      <contour>
        <pt x="312" y="679" on="1"/>
        <pt x="333" y="679" on="0"/>
        <pt x="361" y="709" on="0"/>
        <pt x="361" y="730" on="1"/>
        <pt x="361" y="752" on="0"/>
        <pt x="333" y="781" on="0"/>
        <pt x="312" y="781" on="1"/>
        <pt x="293" y="781" on="0"/>
        <pt x="264" y="752" on="0"/>
        <pt x="264" y="730" on="1"/>
        <pt x="264" y="709" on="0"/>
        <pt x="293" y="679" on="0"/>
      </contour>
    </TTGlyph>
    <TTGlyph name="arrowboth" xMin="-88" yMin="35" xMax="688" yMax="625">
      <contour>
        <pt x="149" y="35" on="1"/>
        <pt x="-88" y="330" on="1"/>
        <pt x="148" y="625" on="1"/>
        <pt x="256" y="625" on="1"/>
        <pt x="91" y="420" on="1"/>
        <pt x="81" y="407" on="0"/>
        <pt x="54" y="382" on="0"/>
        <pt x="45" y="375" on="1"/>
        <pt x="45" y="366" on="1"/>
        <pt x="58" y="368" on="0"/>
        <pt x="100" y="370" on="0"/>
        <pt x="116" y="370" on="1"/>
        <pt x="484" y="370" on="1"/>
        <pt x="501" y="370" on="0"/>
        <pt x="542" y="367" on="0"/>
        <pt x="555" y="365" on="1"/>
        <pt x="555" y="374" on="1"/>
        <pt x="548" y="380" on="0"/>
        <pt x="522" y="406" on="0"/>
        <pt x="509" y="421" on="1"/>
        <pt x="344" y="625" on="1"/>
        <pt x="451" y="625" on="1"/>
        <pt x="688" y="330" on="1"/>
        <pt x="452" y="35" on="1"/>
        <pt x="344" y="35" on="1"/>
        <pt x="509" y="240" on="1"/>
        <pt x="519" y="253" on="0"/>
        <pt x="546" y="278" on="0"/>
        <pt x="555" y="285" on="1"/>
        <pt x="555" y="294" on="1"/>
        <pt x="542" y="293" on="0"/>
        <pt x="501" y="290" on="0"/>
        <pt x="484" y="290" on="1"/>
        <pt x="116" y="290" on="1"/>
        <pt x="100" y="290" on="0"/>
        <pt x="58" y="294" on="0"/>
        <pt x="45" y="295" on="1"/>
        <pt x="45" y="286" on="1"/>
        <pt x="52" y="280" on="0"/>
        <pt x="78" y="254" on="0"/>
        <pt x="91" y="239" on="1"/>
        <pt x="256" y="35" on="1"/>
      </contour>
    </TTGlyph>
    <TTGlyph name="arrowdblboth" xMin="-88" yMin="35" xMax="688" yMax="625">
      <contour>
        <pt x="148" y="35" on="1"/>
        <pt x="-88" y="330" on="1"/>
        <pt x="149" y="625" on="1"/>
        <pt x="256" y="625" on="1"/>
        <pt x="148" y="490" on="1"/>
        <pt x="452" y="490" on="1"/>
        <pt x="344" y="625" on="1"/>
        <pt x="451" y="625" on="1"/>
        <pt x="688" y="330" on="1"/>
        <pt x="452" y="35" on="1"/>
        <pt x="344" y="35" on="1"/>
        <pt x="452" y="170" on="1"/>
        <pt x="148" y="170" on="1"/>
        <pt x="256" y="35" on="1"/>
      </contour>
      <contour>
        <pt x="84" y="250" on="1"/>
        <pt x="516" y="250" on="1"/>
        <pt x="581" y="330" on="1"/>
        <pt x="516" y="410" on="1"/>
        <pt x="84" y="410" on="1"/>
        <pt x="20" y="330" on="1"/>
      </contour>
    </TTGlyph>
    <TTGlyph name="arrowdbldown" xMin="-16" yMin="-190" xMax="616" yMax="829">
      <component glyphName="arrowdblup" x="0" y="649" scalex="1.0" scaley="-1.0" flags="0x4"/>
    </TTGlyph>
    <TTGlyph name="arrowdblright" xMin="-88" yMin="35" xMax="688" yMax="625">
      <contour>
        <pt x="344" y="35" on="1"/>
        <pt x="452" y="170" on="1"/>
        <pt x="-88" y="170" on="1"/>
        <pt x="-88" y="250" on="1"/>
        <pt x="516" y="250" on="1"/>
        <pt x="581" y="330" on="1"/>
        <pt x="516" y="410" on="1"/>
        <pt x="-88" y="410" on="1"/>
        <pt x="-88" y="490" on="1"/>
        <pt x="452" y="490" on="1"/>
        <pt x="344" y="625" on="1"/>
        <pt x="451" y="625" on="1"/>
        <pt x="688" y="330" on="1"/>
        <pt x="452" y="35" on="1"/>
      </contour>
    </TTGlyph>
    <TTGlyph name="arrowdblup" xMin="-16" yMin="-180" xMax="616" yMax="839">
      <contour>
        <pt x="366" y="-180" on="1"/>
        <pt x="366" y="839" on="1"/>
        <pt x="616" y="601" on="1"/>
        <pt x="616" y="536" on="1"/>
        <pt x="417" y="725" on="1"/>
        <pt x="417" y="-180" on="1"/>
      </contour>
      <contour>
        <pt x="183" y="-180" on="1"/>
        <pt x="183" y="725" on="1"/>
        <pt x="-16" y="536" on="1"/>
        <pt x="-16" y="601" on="1"/>
        <pt x="234" y="839" on="1"/>
        <pt x="234" y="-180" on="1"/>
      </contour>
    </TTGlyph>
    <TTGlyph name="arrowdown" xMin="4" yMin="-10" xMax="596" yMax="730">
      <contour>
        <pt x="299" y="-10" on="1"/>
        <pt x="4" y="236" on="1"/>
        <pt x="4" y="341" on="1"/>
        <pt x="194" y="183" on="1"/>
        <pt x="216" y="164" on="0"/>
        <pt x="245" y="136" on="0"/>
        <pt x="249" y="130" on="1"/>
        <pt x="259" y="130" on="1"/>
        <pt x="258" y="143" on="0"/>
        <pt x="254" y="188" on="0"/>
        <pt x="254" y="210" on="1"/>
        <pt x="254" y="730" on="1"/>
        <pt x="346" y="730" on="1"/>
        <pt x="346" y="210" on="1"/>
        <pt x="346" y="188" on="0"/>
        <pt x="343" y="143" on="0"/>
        <pt x="341" y="130" on="1"/>
        <pt x="351" y="130" on="1"/>
        <pt x="361" y="145" on="0"/>
        <pt x="407" y="184" on="1"/>
        <pt x="596" y="342" on="1"/>
        <pt x="596" y="237" on="1"/>
      </contour>
    </TTGlyph>
    <TTGlyph name="arrowleft" xMin="35" yMin="35" xMax="575" yMax="625">
      <contour>
        <pt x="271" y="35" on="1"/>
        <pt x="35" y="330" on="1"/>
        <pt x="270" y="625" on="1"/>
        <pt x="379" y="625" on="1"/>
        <pt x="213" y="420" on="1"/>
        <pt x="203" y="407" on="0"/>
        <pt x="177" y="382" on="0"/>
        <pt x="167" y="375" on="1"/>
        <pt x="167" y="366" on="1"/>
        <pt x="181" y="368" on="0"/>
        <pt x="222" y="370" on="0"/>
        <pt x="239" y="370" on="1"/>
        <pt x="575" y="370" on="1"/>
        <pt x="575" y="290" on="1"/>
        <pt x="239" y="290" on="1"/>
        <pt x="222" y="290" on="0"/>
        <pt x="181" y="294" on="0"/>
        <pt x="167" y="295" on="1"/>
        <pt x="167" y="286" on="1"/>
        <pt x="175" y="280" on="0"/>
        <pt x="200" y="254" on="0"/>
        <pt x="213" y="239" on="1"/>
        <pt x="379" y="35" on="1"/>
      </contour>
    </TTGlyph>
    <TTGlyph name="arrowright" xMin="35" yMin="35" xMax="575" yMax="625">
      <contour>
        <pt x="232" y="35" on="1"/>
        <pt x="397" y="240" on="1"/>
        <pt x="407" y="253" on="0"/>
        <pt x="434" y="278" on="0"/>
        <pt x="443" y="285" on="1"/>
        <pt x="443" y="294" on="1"/>
        <pt x="430" y="293" on="0"/>
        <pt x="389" y="290" on="0"/>
        <pt x="371" y="290" on="1"/>
        <pt x="35" y="290" on="1"/>
        <pt x="35" y="370" on="1"/>
        <pt x="371" y="370" on="1"/>
        <pt x="389" y="370" on="0"/>
        <pt x="430" y="367" on="0"/>
        <pt x="443" y="365" on="1"/>
        <pt x="443" y="374" on="1"/>
        <pt x="436" y="380" on="0"/>
        <pt x="410" y="406" on="0"/>
        <pt x="397" y="421" on="1"/>
        <pt x="232" y="625" on="1"/>
        <pt x="339" y="625" on="1"/>
        <pt x="575" y="330" on="1"/>
        <pt x="340" y="35" on="1"/>
      </contour>
    </TTGlyph>
    <TTGlyph name="arrowup" xMin="4" yMin="0" xMax="596" yMax="740">
      <contour>
        <pt x="254" y="0" on="1"/>
        <pt x="254" y="520" on="1"/>
        <pt x="254" y="542" on="0"/>
        <pt x="258" y="587" on="0"/>
        <pt x="259" y="600" on="1"/>
        <pt x="249" y="600" on="1"/>
        <pt x="239" y="585" on="0"/>
        <pt x="193" y="546" on="1"/>
        <pt x="4" y="388" on="1"/>
        <pt x="4" y="493" on="1"/>
        <pt x="301" y="740" on="1"/>
        <pt x="596" y="494" on="1"/>
        <pt x="596" y="389" on="1"/>
        <pt x="406" y="547" on="1"/>
        <pt x="384" y="566" on="0"/>
        <pt x="356" y="594" on="0"/>
        <pt x="351" y="600" on="1"/>
        <pt x="341" y="600" on="1"/>
        <pt x="343" y="587" on="0"/>
        <pt x="346" y="542" on="0"/>
        <pt x="346" y="520" on="1"/>
        <pt x="346" y="0" on="1"/>
      </contour>
    </TTGlyph>
    <TTGlyph name="arrowupdn" xMin="4" yMin="-170" xMax="596" yMax="900">
      <contour>
        <pt x="300" y="-170" on="1"/>
        <pt x="4" y="76" on="1"/>
        <pt x="4" y="181" on="1"/>
        <pt x="194" y="23" on="1"/>
        <pt x="216" y="4" on="0"/>
        <pt x="245" y="-24" on="0"/>
        <pt x="249" y="-30" on="1"/>
        <pt x="259" y="-30" on="1"/>
        <pt x="258" y="-17" on="0"/>
        <pt x="254" y="28" on="0"/>
        <pt x="254" y="50" on="1"/>
        <pt x="254" y="680" on="1"/>
        <pt x="254" y="702" on="0"/>
        <pt x="258" y="747" on="0"/>
        <pt x="259" y="760" on="1"/>
        <pt x="249" y="760" on="1"/>
        <pt x="239" y="745" on="0"/>
        <pt x="193" y="706" on="1"/>
        <pt x="4" y="548" on="1"/>
        <pt x="4" y="653" on="1"/>
        <pt x="300" y="900" on="1"/>
        <pt x="596" y="654" on="1"/>
        <pt x="596" y="549" on="1"/>
        <pt x="406" y="707" on="1"/>
        <pt x="384" y="726" on="0"/>
        <pt x="356" y="754" on="0"/>
        <pt x="351" y="760" on="1"/>
        <pt x="341" y="760" on="1"/>
        <pt x="343" y="747" on="0"/>
        <pt x="346" y="702" on="0"/>
        <pt x="346" y="680" on="1"/>
        <pt x="346" y="50" on="1"/>
        <pt x="346" y="28" on="0"/>
        <pt x="343" y="-17" on="0"/>
        <pt x="341" y="-30" on="1"/>
        <pt x="351" y="-30" on="1"/>
        <pt x="361" y="-15" on="0"/>
        <pt x="407" y="24" on="1"/>
        <pt x="596" y="182" on="1"/>
        <pt x="596" y="77" on="1"/>
      </contour>
    </TTGlyph>
    <TTGlyph name="asciicircum" xMin="63" yMin="340" xMax="537" yMax="730">
      <contour>
        <pt x="63" y="340" on="1"/>
        <pt x="240" y="730" on="1"/>
        <pt x="362" y="730" on="1"/>
        <pt x="537" y="340" on="1"/>
        <pt x="417" y="340" on="1"/>
        <pt x="323" y="570" on="1"/>
        <pt x="315" y="591" on="0"/>
        <pt x="304" y="630" on="0"/>
        <pt x="302" y="640" on="1"/>
        <pt x="299" y="630" on="0"/>
        <pt x="287" y="591" on="0"/>
        <pt x="279" y="570" on="1"/>
        <pt x="182" y="340" on="1"/>
      </contour>
    </TTGlyph>
    <TTGlyph name="asciitilde" xMin="47" yMin="235" xMax="553" yMax="470">
      <contour>
        <pt x="47" y="255" on="1"/>
        <pt x="47" y="334" on="1"/>
        <pt x="47" y="395" on="0"/>
        <pt x="129" y="470" on="0"/>
        <pt x="195" y="470" on="1"/>
        <pt x="237" y="470" on="0"/>
        <pt x="292" y="442" on="0"/>
        <pt x="328" y="402" on="0"/>
        <pt x="356" y="361" on="0"/>
        <pt x="385" y="334" on="0"/>
        <pt x="406" y="334" on="1"/>
        <pt x="445" y="334" on="0"/>
        <pt x="445" y="377" on="1"/>
        <pt x="445" y="450" on="1"/>
        <pt x="553" y="450" on="1"/>
        <pt x="553" y="371" on="1"/>
        <pt x="553" y="310" on="0"/>
        <pt x="472" y="235" on="0"/>
        <pt x="405" y="235" on="1"/>
        <pt x="363" y="235" on="0"/>
        <pt x="308" y="263" on="0"/>
        <pt x="272" y="303" on="0"/>
        <pt x="244" y="344" on="0"/>
        <pt x="215" y="371" on="0"/>
        <pt x="194" y="371" on="1"/>
        <pt x="155" y="371" on="0"/>
        <pt x="155" y="328" on="1"/>
        <pt x="155" y="255" on="1"/>
      </contour>
    </TTGlyph>
    <TTGlyph name="asterisk" xMin="25" yMin="87" xMax="575" yMax="610">
      <contour>
        <pt x="188" y="87" on="1"/>
        <pt x="94" y="151" on="1"/>
        <pt x="136" y="210" on="1"/>
        <pt x="151" y="231" on="0"/>
        <pt x="196" y="274" on="0"/>
        <pt x="243" y="310" on="0"/>
        <pt x="259" y="322" on="1"/>
        <pt x="257" y="328" on="1"/>
        <pt x="236" y="328" on="0"/>
        <pt x="177" y="333" on="0"/>
        <pt x="116" y="342" on="0"/>
        <pt x="93" y="351" on="1"/>
        <pt x="25" y="375" on="1"/>
        <pt x="64" y="481" on="1"/>
        <pt x="132" y="457" on="1"/>
        <pt x="156" y="448" on="0"/>
        <pt x="209" y="417" on="0"/>
        <pt x="257" y="383" on="0"/>
        <pt x="273" y="369" on="1"/>
        <pt x="279" y="373" on="1"/>
        <pt x="272" y="393" on="0"/>
        <pt x="255" y="450" on="0"/>
        <pt x="243" y="512" on="0"/>
        <pt x="243" y="538" on="1"/>
        <pt x="243" y="610" on="1"/>
        <pt x="357" y="610" on="1"/>
        <pt x="357" y="538" on="1"/>
        <pt x="357" y="512" on="0"/>
        <pt x="345" y="450" on="0"/>
        <pt x="328" y="393" on="0"/>
        <pt x="320" y="373" on="1"/>
        <pt x="326" y="370" on="1"/>
        <pt x="342" y="383" on="0"/>
        <pt x="390" y="417" on="0"/>
        <pt x="443" y="448" on="0"/>
        <pt x="467" y="457" on="1"/>
        <pt x="536" y="481" on="1"/>
        <pt x="575" y="375" on="1"/>
        <pt x="506" y="351" on="1"/>
        <pt x="470" y="338" on="0"/>
        <pt x="375" y="329" on="0"/>
        <pt x="343" y="328" on="1"/>
        <pt x="341" y="322" on="1"/>
        <pt x="357" y="310" on="0"/>
        <pt x="403" y="273" on="0"/>
        <pt x="448" y="231" on="0"/>
        <pt x="463" y="210" on="1"/>
        <pt x="505" y="151" on="1"/>
        <pt x="411" y="87" on="1"/>
        <pt x="369" y="146" on="1"/>
        <pt x="354" y="167" on="0"/>
        <pt x="329" y="224" on="0"/>
        <pt x="309" y="280" on="0"/>
        <pt x="303" y="299" on="1"/>
        <pt x="297" y="299" on="1"/>
        <pt x="291" y="280" on="0"/>
        <pt x="271" y="224" on="0"/>
        <pt x="246" y="167" on="0"/>
        <pt x="230" y="146" on="1"/>
      </contour>
    </TTGlyph>
    <TTGlyph name="at" xMin="30" yMin="-179" xMax="575" yMax="740">
      <contour>
        <pt x="325" y="-179" on="1"/>
        <pt x="234" y="-179" on="0"/>
        <pt x="102" y="-109" on="0"/>
        <pt x="30" y="21" on="0"/>
        <pt x="30" y="111" on="1"/>
        <pt x="30" y="450" on="1"/>
        <pt x="30" y="540" on="0"/>
        <pt x="99" y="670" on="0"/>
        <pt x="226" y="740" on="0"/>
        <pt x="315" y="740" on="1"/>
        <pt x="396" y="740" on="0"/>
        <pt x="512" y="679" on="0"/>
        <pt x="575" y="570" on="0"/>
        <pt x="575" y="498" on="1"/>
        <pt x="575" y="65" on="1"/>
        <pt x="473" y="65" on="1"/>
        <pt x="473" y="136" on="1"/>
        <pt x="470" y="136" on="1"/>
        <pt x="466" y="99" on="0"/>
        <pt x="406" y="55" on="0"/>
        <pt x="361" y="55" on="1"/>
        <pt x="297" y="55" on="0"/>
        <pt x="230" y="139" on="0"/>
        <pt x="230" y="216" on="1"/>
        <pt x="230" y="330" on="1"/>
        <pt x="230" y="407" on="0"/>
        <pt x="297" y="491" on="0"/>
        <pt x="361" y="491" on="1"/>
        <pt x="407" y="491" on="0"/>
        <pt x="466" y="447" on="0"/>
        <pt x="470" y="410" on="1"/>
        <pt x="473" y="410" on="1"/>
        <pt x="470" y="488" on="1"/>
        <pt x="470" y="498" on="1"/>
        <pt x="470" y="571" on="0"/>
        <pt x="389" y="650" on="0"/>
        <pt x="311" y="650" on="1"/>
        <pt x="228" y="650" on="0"/>
        <pt x="135" y="545" on="0"/>
        <pt x="135" y="450" on="1"/>
        <pt x="135" y="111" on="1"/>
        <pt x="135" y="18" on="0"/>
        <pt x="235" y="-84" on="0"/>
        <pt x="325" y="-84" on="1"/>
        <pt x="396" y="-84" on="1"/>
        <pt x="396" y="-179" on="1"/>
      </contour>
      <contour>
        <pt x="401" y="131" on="1"/>
        <pt x="437" y="131" on="0"/>
        <pt x="470" y="173" on="0"/>
        <pt x="470" y="220" on="1"/>
        <pt x="470" y="330" on="1"/>
        <pt x="470" y="415" on="0"/>
        <pt x="401" y="415" on="1"/>
        <pt x="332" y="415" on="0"/>
        <pt x="332" y="330" on="1"/>
        <pt x="332" y="216" on="1"/>
        <pt x="332" y="171" on="0"/>
        <pt x="367" y="131" on="0"/>
      </contour>
    </TTGlyph>
    <TTGlyph name="atilde" xMin="42" yMin="-14" xMax="558" yMax="753">
      <contour>
        <pt x="220" y="-14" on="1"/>
        <pt x="171" y="-14" on="0"/>
        <pt x="90" y="27" on="0"/>
        <pt x="42" y="102" on="0"/>
        <pt x="42" y="153" on="1"/>
        <pt x="42" y="224" on="0"/>
        <pt x="130" y="307" on="0"/>
        <pt x="284" y="348" on="0"/>
        <pt x="384" y="356" on="1"/>
        <pt x="384" y="417" on="0"/>
        <pt x="349" y="467" on="0"/>
        <pt x="298" y="467" on="1"/>
        <pt x="266" y="467" on="0"/>
        <pt x="217" y="434" on="0"/>
        <pt x="208" y="399" on="1"/>
        <pt x="75" y="453" on="1"/>
        <pt x="101" y="509" on="0"/>
        <pt x="223" y="585" on="0"/>
        <pt x="311" y="585" on="1"/>
        <pt x="422" y="585" on="0"/>
        <pt x="540" y="478" on="0"/>
        <pt x="540" y="348" on="1"/>
        <pt x="540" y="223" on="1"/>
        <pt x="540" y="186" on="0"/>
        <pt x="544" y="101" on="0"/>
        <pt x="553" y="25" on="0"/>
        <pt x="558" y="0" on="1"/>
        <pt x="411" y="0" on="1"/>
        <pt x="393" y="69" on="1"/>
        <pt x="363" y="24" on="0"/>
        <pt x="275" y="-14" on="0"/>
      </contour>
      <contour>
        <pt x="278" y="106" on="1"/>
        <pt x="325" y="106" on="0"/>
        <pt x="387" y="161" on="0"/>
        <pt x="387" y="238" on="1"/>
        <pt x="387" y="252" on="1"/>
        <pt x="305" y="245" on="0"/>
        <pt x="205" y="211" on="0"/>
        <pt x="205" y="166" on="1"/>
        <pt x="205" y="139" on="0"/>
        <pt x="247" y="106" on="0"/>
      </contour>
      <contour>
        <pt x="389" y="622" on="1"/>
        <pt x="349" y="622" on="0"/>
        <pt x="316" y="639" on="1"/>
        <pt x="296" y="650" on="0"/>
        <pt x="273" y="663" on="0"/>
        <pt x="258" y="663" on="1"/>
        <pt x="242" y="663" on="0"/>
        <pt x="217" y="645" on="0"/>
        <pt x="214" y="627" on="1"/>
        <pt x="121" y="627" on="1"/>
        <pt x="130" y="687" on="0"/>
        <pt x="196" y="753" on="0"/>
        <pt x="251" y="753" on="1"/>
        <pt x="284" y="753" on="0"/>
        <pt x="325" y="731" on="0"/>
        <pt x="359" y="708" on="0"/>
        <pt x="380" y="708" on="1"/>
        <pt x="395" y="708" on="0"/>
        <pt x="414" y="720" on="0"/>
        <pt x="425" y="731" on="1"/>
        <pt x="444" y="753" on="0"/>
        <pt x="462" y="753" on="1"/>
        <pt x="482" y="753" on="0"/>
        <pt x="506" y="728" on="0"/>
        <pt x="506" y="709" on="1"/>
        <pt x="506" y="688" on="0"/>
        <pt x="472" y="648" on="0"/>
        <pt x="419" y="622" on="0"/>
      </contour>
    </TTGlyph>
    <TTGlyph name="b" xMin="29" yMin="-13" xMax="571" yMax="730">
      <contour>
        <pt x="344" y="-13" on="1"/>
        <pt x="302" y="-13" on="0"/>
        <pt x="212" y="28" on="0"/>
        <pt x="187" y="73" on="1"/>
        <pt x="167" y="0" on="1"/>
        <pt x="29" y="0" on="1"/>
        <pt x="29" y="730" on="1"/>
        <pt x="187" y="730" on="1"/>
        <pt x="187" y="468" on="1"/>
        <pt x="212" y="513" on="0"/>
        <pt x="302" y="557" on="0"/>
        <pt x="344" y="557" on="1"/>
        <pt x="410" y="557" on="0"/>
        <pt x="513" y="490" on="0"/>
        <pt x="571" y="364" on="0"/>
        <pt x="571" y="275" on="1"/>
        <pt x="571" y="187" on="0"/>
        <pt x="513" y="57" on="0"/>
        <pt x="410" y="-13" on="0"/>
      </contour>
      <contour>
        <pt x="294" y="116" on="1"/>
        <pt x="340" y="116" on="0"/>
        <pt x="407" y="200" on="0"/>
        <pt x="407" y="275" on="1"/>
        <pt x="407" y="350" on="0"/>
        <pt x="340" y="428" on="0"/>
        <pt x="294" y="428" on="1"/>
        <pt x="247" y="428" on="0"/>
        <pt x="179" y="355" on="0"/>
        <pt x="179" y="272" on="1"/>
        <pt x="179" y="188" on="0"/>
        <pt x="247" y="116" on="0"/>
      </contour>
    </TTGlyph>
    <TTGlyph name="backslash" xMin="55" yMin="-110" xMax="544" yMax="830">
      <contour>
        <pt x="411" y="-110" on="1"/>
        <pt x="55" y="830" on="1"/>
        <pt x="188" y="830" on="1"/>
        <pt x="544" y="-110" on="1"/>
      </contour>
    </TTGlyph>
    <TTGlyph name="backspacecontrol" xMin="106" yMin="241" xMax="493" yMax="493">
      <component glyphName="B" x="99" y="245" scale="0.33" flags="0x4"/>
      <component glyphName="S" x="302" y="245" scale="0.33" flags="0x4"/>
    </TTGlyph>
    <TTGlyph name="bar" xMin="229" yMin="-110" xMax="371" yMax="830">
      <contour>
        <pt x="300" y="-110" on="1"/>
        <pt x="300" y="-110" on="1"/>
        <pt x="371" y="-110" on="0"/>
        <pt x="371" y="-39" on="1"/>
        <pt x="371" y="759" on="1"/>
        <pt x="371" y="830" on="0"/>
        <pt x="300" y="830" on="1"/>
        <pt x="300" y="830" on="1"/>
        <pt x="229" y="830" on="0"/>
        <pt x="229" y="759" on="1"/>
        <pt x="229" y="-39" on="1"/>
        <pt x="229" y="-110" on="0"/>
      </contour>
    </TTGlyph>
    <TTGlyph name="bellcontrol" xMin="3" yMin="245" xMax="587" yMax="489">
      <component glyphName="B" x="-4" y="245" scale="0.33" flags="0x4"/>
      <component glyphName="E" x="201" y="245" scale="0.33" flags="0x4"/>
      <component glyphName="L" x="406" y="245" scale="0.33" flags="0x4"/>
    </TTGlyph>
    <TTGlyph name="beta" xMin="64" yMin="-180" xMax="558" yMax="740">
      <contour>
        <pt x="64" y="-180" on="1"/>
        <pt x="64" y="523" on="1"/>
        <pt x="64" y="588" on="0"/>
        <pt x="123" y="686" on="0"/>
        <pt x="229" y="740" on="0"/>
        <pt x="300" y="740" on="1"/>
        <pt x="373" y="740" on="0"/>
        <pt x="483" y="692" on="0"/>
        <pt x="543" y="607" on="0"/>
        <pt x="543" y="550" on="1"/>
        <pt x="543" y="487" on="0"/>
        <pt x="476" y="404" on="0"/>
        <pt x="414" y="389" on="1"/>
        <pt x="480" y="372" on="0"/>
        <pt x="558" y="278" on="0"/>
        <pt x="558" y="209" on="1"/>
        <pt x="558" y="147" on="0"/>
        <pt x="497" y="53" on="0"/>
        <pt x="387" y="0" on="0"/>
        <pt x="314" y="0" on="1"/>
        <pt x="186" y="0" on="1"/>
        <pt x="186" y="-180" on="1"/>
      </contour>
      <contour>
        <pt x="186" y="107" on="1"/>
        <pt x="306" y="107" on="1"/>
        <pt x="361" y="107" on="0"/>
        <pt x="425" y="167" on="0"/>
        <pt x="425" y="217" on="1"/>
        <pt x="425" y="267" on="0"/>
        <pt x="361" y="325" on="0"/>
        <pt x="306" y="325" on="1"/>
        <pt x="258" y="325" on="1"/>
        <pt x="258" y="422" on="1"/>
        <pt x="304" y="422" on="1"/>
        <pt x="354" y="422" on="0"/>
        <pt x="411" y="479" on="0"/>
        <pt x="411" y="526" on="1"/>
        <pt x="411" y="575" on="0"/>
        <pt x="350" y="633" on="0"/>
        <pt x="298" y="633" on="1"/>
        <pt x="246" y="633" on="0"/>
        <pt x="186" y="574" on="0"/>
        <pt x="186" y="523" on="1"/>
      </contour>
    </TTGlyph>
    <TTGlyph name="block" xMin="-6" yMin="-300" xMax="606" yMax="1020">
      <contour>
        <pt x="-6" y="-300" on="1"/>
        <pt x="-6" y="1020" on="1"/>
        <pt x="606" y="1020" on="1"/>
        <pt x="606" y="-300" on="1"/>
      </contour>
    </TTGlyph>
    <TTGlyph name="braceleft" xMin="67" yMin="-111" xMax="513" yMax="830">
      <contour>
        <pt x="443" y="-111" on="1"/>
        <pt x="355" y="-111" on="0"/>
        <pt x="252" y="-14" on="0"/>
        <pt x="260" y="67" on="1"/>
        <pt x="275" y="219" on="1"/>
        <pt x="279" y="260" on="0"/>
        <pt x="242" y="302" on="0"/>
        <pt x="198" y="302" on="1"/>
        <pt x="67" y="302" on="1"/>
        <pt x="67" y="417" on="1"/>
        <pt x="198" y="417" on="1"/>
        <pt x="242" y="417" on="0"/>
        <pt x="279" y="459" on="0"/>
        <pt x="275" y="499" on="1"/>
        <pt x="260" y="656" on="1"/>
        <pt x="252" y="735" on="0"/>
        <pt x="355" y="830" on="0"/>
        <pt x="443" y="830" on="1"/>
        <pt x="513" y="830" on="1"/>
        <pt x="513" y="715" on="1"/>
        <pt x="462" y="715" on="1"/>
        <pt x="424" y="715" on="0"/>
        <pt x="384" y="678" on="0"/>
        <pt x="386" y="644" on="1"/>
        <pt x="401" y="488" on="1"/>
        <pt x="406" y="437" on="0"/>
        <pt x="346" y="371" on="0"/>
        <pt x="293" y="362" on="1"/>
        <pt x="346" y="352" on="0"/>
        <pt x="406" y="282" on="0"/>
        <pt x="401" y="231" on="1"/>
        <pt x="386" y="75" on="1"/>
        <pt x="383" y="42" on="0"/>
        <pt x="424" y="5" on="0"/>
        <pt x="462" y="5" on="1"/>
        <pt x="513" y="5" on="1"/>
        <pt x="513" y="-111" on="1"/>
      </contour>
    </TTGlyph>
    <TTGlyph name="braceright" xMin="87" yMin="-111" xMax="533" yMax="830">
      <contour>
        <pt x="87" y="-111" on="1"/>
        <pt x="87" y="5" on="1"/>
        <pt x="138" y="5" on="1"/>
        <pt x="176" y="5" on="0"/>
        <pt x="217" y="42" on="0"/>
        <pt x="214" y="75" on="1"/>
        <pt x="199" y="231" on="1"/>
        <pt x="194" y="282" on="0"/>
        <pt x="254" y="353" on="0"/>
        <pt x="307" y="362" on="1"/>
        <pt x="253" y="371" on="0"/>
        <pt x="194" y="437" on="0"/>
        <pt x="199" y="488" on="1"/>
        <pt x="214" y="644" on="1"/>
        <pt x="216" y="678" on="0"/>
        <pt x="176" y="715" on="0"/>
        <pt x="138" y="715" on="1"/>
        <pt x="87" y="715" on="1"/>
        <pt x="87" y="830" on="1"/>
        <pt x="157" y="830" on="1"/>
        <pt x="245" y="830" on="0"/>
        <pt x="348" y="735" on="0"/>
        <pt x="340" y="656" on="1"/>
        <pt x="325" y="499" on="1"/>
        <pt x="321" y="459" on="0"/>
        <pt x="358" y="417" on="0"/>
        <pt x="402" y="417" on="1"/>
        <pt x="533" y="417" on="1"/>
        <pt x="533" y="302" on="1"/>
        <pt x="402" y="302" on="1"/>
        <pt x="358" y="302" on="0"/>
        <pt x="321" y="260" on="0"/>
        <pt x="325" y="219" on="1"/>
        <pt x="340" y="67" on="1"/>
        <pt x="348" y="-14" on="0"/>
        <pt x="245" y="-111" on="0"/>
        <pt x="157" y="-111" on="1"/>
      </contour>
    </TTGlyph>
    <TTGlyph name="bracketleft" xMin="186" yMin="-110" xMax="430" yMax="830">
      <contour>
        <pt x="220" y="-110" on="1"/>
        <pt x="252" y="-110" on="1"/>
        <pt x="286" y="-110" on="0"/>
        <pt x="286" y="-76" on="1"/>
        <pt x="286" y="796" on="1"/>
        <pt x="286" y="830" on="0"/>
        <pt x="252" y="830" on="1"/>
        <pt x="220" y="830" on="1"/>
        <pt x="186" y="830" on="0"/>
        <pt x="186" y="796" on="1"/>
        <pt x="186" y="-76" on="1"/>
        <pt x="186" y="-110" on="0"/>
      </contour>
      <contour>
        <pt x="216" y="740" on="1"/>
        <pt x="400" y="740" on="1"/>
        <pt x="430" y="740" on="0"/>
        <pt x="430" y="770" on="1"/>
        <pt x="430" y="800" on="1"/>
        <pt x="430" y="830" on="0"/>
        <pt x="400" y="830" on="1"/>
        <pt x="216" y="830" on="1"/>
        <pt x="186" y="830" on="0"/>
        <pt x="186" y="800" on="1"/>
        <pt x="186" y="770" on="1"/>
        <pt x="186" y="740" on="0"/>
      </contour>
      <contour>
        <pt x="216" y="-110" on="1"/>
        <pt x="400" y="-110" on="1"/>
        <pt x="430" y="-110" on="0"/>
        <pt x="430" y="-80" on="1"/>
        <pt x="430" y="-50" on="1"/>
        <pt x="430" y="-20" on="0"/>
        <pt x="400" y="-20" on="1"/>
        <pt x="216" y="-20" on="1"/>
        <pt x="186" y="-20" on="0"/>
        <pt x="186" y="-50" on="1"/>
        <pt x="186" y="-80" on="1"/>
        <pt x="186" y="-110" on="0"/>
      </contour>
    </TTGlyph>
    <TTGlyph name="bracketright" xMin="170" yMin="-110" xMax="414" yMax="830">
      <contour>
        <pt x="348" y="-110" on="1"/>
        <pt x="380" y="-110" on="1"/>
        <pt x="414" y="-110" on="0"/>
        <pt x="414" y="-76" on="1"/>
        <pt x="414" y="796" on="1"/>
        <pt x="414" y="830" on="0"/>
        <pt x="380" y="830" on="1"/>
        <pt x="348" y="830" on="1"/>
        <pt x="314" y="830" on="0"/>
        <pt x="314" y="796" on="1"/>
        <pt x="314" y="-76" on="1"/>
        <pt x="314" y="-110" on="0"/>
      </contour>
      <contour>
        <pt x="200" y="740" on="1"/>
        <pt x="384" y="740" on="1"/>
        <pt x="414" y="740" on="0"/>
        <pt x="414" y="770" on="1"/>
        <pt x="414" y="800" on="1"/>
        <pt x="414" y="830" on="0"/>
        <pt x="384" y="830" on="1"/>
        <pt x="200" y="830" on="1"/>
        <pt x="170" y="830" on="0"/>
        <pt x="170" y="800" on="1"/>
        <pt x="170" y="770" on="1"/>
        <pt x="170" y="740" on="0"/>
      </contour>
      <contour>
        <pt x="200" y="-110" on="1"/>
        <pt x="384" y="-110" on="1"/>
        <pt x="414" y="-110" on="0"/>
        <pt x="414" y="-80" on="1"/>
        <pt x="414" y="-50" on="1"/>
        <pt x="414" y="-20" on="0"/>
        <pt x="384" y="-20" on="1"/>
        <pt x="200" y="-20" on="1"/>
        <pt x="170" y="-20" on="0"/>
        <pt x="170" y="-50" on="1"/>
        <pt x="170" y="-80" on="1"/>
        <pt x="170" y="-110" on="0"/>
      </contour>
    </TTGlyph>
    <TTGlyph name="breve" xMin="118" yMin="637" xMax="473" yMax="785">
      <component glyphName="uni0306" x="600" y="0" flags="0x4"/>
    </TTGlyph>
    <TTGlyph name="breve.case" xMin="119" yMin="802" xMax="473" yMax="950">
      <component glyphName="uni0306.case" x="600" y="0" flags="0x4"/>
    </TTGlyph>
    <TTGlyph name="brevecombcy" xMin="-482" yMin="637" xMax="-127" yMax="785">
      <contour>
        <pt x="-304" y="637" on="1"/>
        <pt x="-384" y="637" on="0"/>
        <pt x="-482" y="718" on="0"/>
        <pt x="-482" y="785" on="1"/>
        <pt x="-384" y="785" on="1"/>
        <pt x="-384" y="752" on="0"/>
        <pt x="-340" y="712" on="0"/>
        <pt x="-304" y="712" on="1"/>
        <pt x="-269" y="712" on="0"/>
        <pt x="-225" y="752" on="0"/>
        <pt x="-225" y="785" on="1"/>
        <pt x="-127" y="785" on="1"/>
        <pt x="-127" y="718" on="0"/>
        <pt x="-224" y="637" on="0"/>
      </contour>
    </TTGlyph>
    <TTGlyph name="brokenbar" xMin="236" yMin="-110" xMax="364" yMax="830">
      <contour>
        <pt x="236" y="450" on="1"/>
        <pt x="236" y="830" on="1"/>
        <pt x="364" y="830" on="1"/>
        <pt x="364" y="450" on="1"/>
      </contour>
      <contour>
        <pt x="236" y="-110" on="1"/>
        <pt x="236" y="270" on="1"/>
        <pt x="364" y="270" on="1"/>
        <pt x="364" y="-110" on="1"/>
      </contour>
    </TTGlyph>
    <TTGlyph name="bullet" xMin="168" yMin="236" xMax="432" yMax="494">
      <contour>
        <pt x="300" y="236" on="1"/>
        <pt x="242" y="236" on="0"/>
        <pt x="168" y="308" on="0"/>
        <pt x="168" y="365" on="1"/>
        <pt x="168" y="422" on="0"/>
        <pt x="242" y="494" on="0"/>
        <pt x="300" y="494" on="1"/>
        <pt x="358" y="494" on="0"/>
        <pt x="432" y="422" on="0"/>
        <pt x="432" y="365" on="1"/>
        <pt x="432" y="308" on="0"/>
        <pt x="358" y="236" on="0"/>
      </contour>
    </TTGlyph>
    <TTGlyph name="c" xMin="51" yMin="-14" xMax="549" yMax="585">
      <contour>
        <pt x="316" y="-14" on="1"/>
        <pt x="230" y="-14" on="0"/>
        <pt x="113" y="62" on="0"/>
        <pt x="51" y="198" on="0"/>
        <pt x="51" y="288" on="1"/>
        <pt x="51" y="378" on="0"/>
        <pt x="118" y="511" on="0"/>
        <pt x="238" y="585" on="0"/>
        <pt x="316" y="585" on="1"/>
        <pt x="360" y="585" on="0"/>
        <pt x="449" y="558" on="0"/>
        <pt x="525" y="492" on="0"/>
        <pt x="549" y="436" on="1"/>
        <pt x="416" y="383" on="1"/>
        <pt x="404" y="420" on="0"/>
        <pt x="355" y="449" on="0"/>
        <pt x="325" y="449" on="1"/>
        <pt x="297" y="449" on="0"/>
        <pt x="245" y="419" on="0"/>
        <pt x="213" y="348" on="0"/>
        <pt x="213" y="287" on="1"/>
        <pt x="213" y="225" on="0"/>
        <pt x="246" y="152" on="0"/>
        <pt x="297" y="122" on="0"/>
        <pt x="325" y="122" on="1"/>
        <pt x="358" y="122" on="0"/>
        <pt x="404" y="150" on="0"/>
        <pt x="418" y="175" on="1"/>
        <pt x="546" y="124" on="1"/>
        <pt x="520" y="72" on="0"/>
        <pt x="444" y="12" on="0"/>
        <pt x="357" y="-14" on="0"/>
      </contour>
    </TTGlyph>
    <TTGlyph name="cacute" xMin="51" yMin="-14" xMax="549" yMax="794">
      <contour>
        <pt x="316" y="-14" on="1"/>
        <pt x="230" y="-14" on="0"/>
        <pt x="113" y="62" on="0"/>
        <pt x="51" y="198" on="0"/>
        <pt x="51" y="288" on="1"/>
        <pt x="51" y="378" on="0"/>
        <pt x="118" y="511" on="0"/>
        <pt x="238" y="585" on="0"/>
        <pt x="316" y="585" on="1"/>
        <pt x="360" y="585" on="0"/>
        <pt x="449" y="558" on="0"/>
        <pt x="525" y="492" on="0"/>
        <pt x="549" y="436" on="1"/>
        <pt x="416" y="383" on="1"/>
        <pt x="404" y="420" on="0"/>
        <pt x="355" y="449" on="0"/>
        <pt x="325" y="449" on="1"/>
        <pt x="297" y="449" on="0"/>
        <pt x="245" y="419" on="0"/>
        <pt x="213" y="348" on="0"/>
        <pt x="213" y="287" on="1"/>
        <pt x="213" y="225" on="0"/>
        <pt x="246" y="152" on="0"/>
        <pt x="297" y="122" on="0"/>
        <pt x="325" y="122" on="1"/>
        <pt x="358" y="122" on="0"/>
        <pt x="404" y="150" on="0"/>
        <pt x="418" y="175" on="1"/>
        <pt x="546" y="124" on="1"/>
        <pt x="520" y="72" on="0"/>
        <pt x="444" y="12" on="0"/>
        <pt x="357" y="-14" on="0"/>
      </contour>
      <contour>
        <pt x="247" y="627" on="1"/>
        <pt x="276" y="664" on="0"/>
        <pt x="333" y="738" on="0"/>
        <pt x="362" y="775" on="1"/>
        <pt x="378" y="794" on="0"/>
        <pt x="405" y="794" on="1"/>
        <pt x="430" y="794" on="0"/>
        <pt x="463" y="760" on="0"/>
        <pt x="463" y="733" on="1"/>
        <pt x="463" y="705" on="0"/>
        <pt x="444" y="687" on="1"/>
        <pt x="424" y="673" on="0"/>
        <pt x="385" y="643" on="0"/>
        <pt x="366" y="627" on="1"/>
      </contour>
    </TTGlyph>
    <TTGlyph name="cancelcontrol" xMin="3" yMin="241" xMax="597" yMax="493">
      <component glyphName="C" x="-4" y="245" scale="0.33" flags="0x4"/>
      <component glyphName="A" x="195" y="245" scale="0.33" flags="0x4"/>
      <component glyphName="N" x="406" y="245" scale="0.33" flags="0x4"/>
    </TTGlyph>
    <TTGlyph name="caron" xMin="98" yMin="645" xMax="493" yMax="785">
      <component glyphName="uni030C" x="600" y="0" flags="0x4"/>
    </TTGlyph>
    <TTGlyph name="caron.case" xMin="98" yMin="810" xMax="493" yMax="950">
      <component glyphName="uni030C.case" x="600" y="0" flags="0x4"/>
    </TTGlyph>
    <TTGlyph name="carriageReturncontrol" xMin="106" yMin="241" xMax="493" yMax="493">
      <component glyphName="C" x="99" y="245" scale="0.33" flags="0x4"/>
      <component glyphName="R" x="302" y="245" scale="0.33" flags="0x4"/>
    </TTGlyph>
</ttFont>
